<svg width="18" height="22" viewBox="0 0 18 22" fill="none" xmlns="http://www.w3.org/2000/svg">
<g id="Group">
<path id="Vector" d="M14.4014 21.9693H3.97482C3.54824 21.9688 3.13931 21.799 2.83774 21.4973C2.53616 21.1956 2.36657 20.7866 2.36621 20.36V3.81207C2.36621 3.63115 2.43809 3.45764 2.56603 3.3297C2.69397 3.20177 2.86747 3.12988 3.0484 3.12988C3.22933 3.12988 3.40286 3.20177 3.53079 3.3297C3.65873 3.45764 3.73059 3.63115 3.73059 3.81207V20.3586C3.73077 20.4234 3.75655 20.4855 3.80229 20.5314C3.84804 20.5772 3.91004 20.6032 3.97482 20.6035H14.4014C14.4662 20.6032 14.5282 20.5772 14.574 20.5314C14.6197 20.4855 14.6455 20.4234 14.6456 20.3586V3.81207C14.6456 3.63115 14.7175 3.45764 14.8455 3.3297C14.9734 3.20177 15.1469 3.12988 15.3278 3.12988C15.5088 3.12988 15.6823 3.20177 15.8102 3.3297C15.9382 3.45764 16.01 3.63115 16.01 3.81207V20.3586C16.01 20.7854 15.8406 21.1948 15.539 21.4968C15.2374 21.7988 14.8283 21.9688 14.4014 21.9693Z" fill="#FB1212"/>
<path id="Vector_2" d="M6.85748 18.0134C6.67656 18.0134 6.50305 17.9416 6.37511 17.8136C6.24718 17.6857 6.17529 17.5122 6.17529 17.3313V7.78058C6.17529 7.59965 6.24718 7.42614 6.37511 7.29821C6.50305 7.17027 6.67656 7.09839 6.85748 7.09839C7.03841 7.09839 7.21192 7.17027 7.33986 7.29821C7.46779 7.42614 7.53968 7.59965 7.53968 7.78058V17.3313C7.53968 17.5122 7.46779 17.6857 7.33986 17.8136C7.21192 17.9416 7.03841 18.0134 6.85748 18.0134Z" fill="#FB1212"/>
<path id="Vector_3" d="M11.5191 18.0134C11.3382 18.0134 11.1646 17.9416 11.0367 17.8136C10.9088 17.6857 10.8369 17.5122 10.8369 17.3313V7.78058C10.8369 7.59965 10.9088 7.42614 11.0367 7.29821C11.1646 7.17027 11.3382 7.09839 11.5191 7.09839C11.7 7.09839 11.8735 7.17027 12.0015 7.29821C12.1294 7.42614 12.2013 7.59965 12.2013 7.78058V17.3313C12.2013 17.5122 12.1294 17.6857 12.0015 17.8136C11.8735 17.9416 11.7 18.0134 11.5191 18.0134Z" fill="#FB1212"/>
<path id="Vector_4" d="M17.3178 4.49426H1.05914C0.878216 4.49426 0.704708 4.42242 0.576772 4.29449C0.448837 4.16655 0.376953 3.993 0.376953 3.81207C0.376953 3.63115 0.448837 3.45764 0.576772 3.3297C0.704708 3.20177 0.878216 3.12988 1.05914 3.12988H17.3178C17.4987 3.12988 17.6722 3.20177 17.8002 3.3297C17.9281 3.45764 18 3.63115 18 3.81207C18 3.993 17.9281 4.16655 17.8002 4.29449C17.6722 4.42242 17.4987 4.49426 17.3178 4.49426Z" fill="#FB1212"/>
<path id="Vector_5" d="M11.86 1.69739H6.45905C6.27812 1.69739 6.10461 1.62551 5.97667 1.49757C5.84874 1.36964 5.77686 1.19613 5.77686 1.0152C5.77686 0.834271 5.84874 0.660762 5.97667 0.532827C6.10461 0.404891 6.27812 0.333008 6.45905 0.333008H11.86C12.0409 0.333008 12.2144 0.404891 12.3423 0.532827C12.4703 0.660762 12.5422 0.834271 12.5422 1.0152C12.5422 1.19613 12.4703 1.36964 12.3423 1.49757C12.2144 1.62551 12.0409 1.69739 11.86 1.69739Z" fill="#FB1212"/>
</g>
</svg>
