<svg width="40" height="34" viewBox="0 0 40 34" fill="none" xmlns="http://www.w3.org/2000/svg">
<g id="Group 1261154242">
<g id="Group 1261154227">
<path id="Vector" d="M39.808 20.8289C39.7525 21.3841 39.2427 21.6617 38.8086 21.914C38.4048 22.1462 38.001 22.3834 37.6023 22.6156C36.9562 22.9891 36.3152 23.3626 35.6692 23.7361C34.8616 24.2055 34.0591 24.6749 33.2515 25.1393C32.3631 25.6541 31.4748 26.174 30.5814 26.6888C29.688 27.2087 28.7947 27.7286 27.8962 28.2485C27.0735 28.728 26.2558 29.2024 25.4331 29.6819C24.7618 30.0706 24.0956 30.4592 23.4243 30.8479C22.9851 31.1002 22.546 31.3577 22.1069 31.61C21.7738 31.8018 21.4608 31.9936 21.0823 32.1047C20.098 32.3873 19.0078 32.2914 18.1195 31.7766C17.8015 31.5898 17.4785 31.4081 17.1605 31.2214C16.575 30.8832 15.9945 30.5501 15.409 30.2119C14.6418 29.7677 13.8746 29.3236 13.1074 28.8844C12.2343 28.3797 11.356 27.875 10.4828 27.3702C9.57934 26.8504 8.67586 26.3254 7.77238 25.8056C6.91938 25.3109 6.06637 24.8213 5.20832 24.3267L3.02786 23.0699C2.50798 22.767 1.98305 22.4692 1.46318 22.1664C1.22595 22.0301 0.988723 21.8938 0.751497 21.7525C0.377992 21.5355 0.00953422 21.1923 0.00953422 20.7279C0.00953422 21.1519 0.00953391 21.5759 0.00448655 22.0049C0.00448655 22.1563 -0.00560818 22.3128 0.00448655 22.4692C0.0347707 22.8781 0.357802 23.1961 0.695975 23.398C0.902917 23.5241 1.11491 23.6402 1.3269 23.7614C1.87201 24.0743 2.41713 24.3923 2.96224 24.7052C3.74963 25.1595 4.53197 25.6138 5.31936 26.068C6.25312 26.6081 7.19193 27.1482 8.1257 27.6882C9.09984 28.2535 10.074 28.8138 11.0532 29.3791C11.9819 29.9141 12.9056 30.4491 13.8343 30.9841C14.6065 31.4283 15.3737 31.8725 16.146 32.3167C16.6658 32.6195 17.1908 32.9173 17.7106 33.2201C18.0135 33.3917 18.3113 33.5886 18.6394 33.7097C19.664 34.0832 20.8652 34.0025 21.8091 33.4523C22.1675 33.2454 22.5258 33.0334 22.8842 32.8264C23.5454 32.4428 24.2066 32.0592 24.8628 31.6756C25.7259 31.176 26.5839 30.6763 27.447 30.1715C28.4111 29.6113 29.3751 29.051 30.3341 28.4908L33.2262 26.81C34.0893 26.3052 34.9524 25.8056 35.8206 25.3008C36.4919 24.9122 37.1632 24.5235 37.8345 24.1298C38.2029 23.9128 38.5765 23.7008 38.9449 23.4838C39.056 23.4181 39.172 23.3525 39.278 23.2768C39.5607 23.0648 39.7828 22.7721 39.7878 22.4036C39.7929 22.2169 39.7878 22.0352 39.7878 21.8484C39.7878 21.48 39.7878 21.1065 39.7929 20.738C39.8131 20.7784 39.808 20.8036 39.808 20.8289C39.808 20.8188 39.803 20.844 39.808 20.8289Z" fill="#7A9EFD"/>
<path id="Vector_2" d="M39.0863 19.7436C40.0453 20.2989 40.0503 21.2023 39.0964 21.7575L21.7183 31.8573C20.7644 32.4125 19.2047 32.4125 18.2457 31.8573L0.741458 21.7575C-0.217541 21.2023 -0.222588 20.2989 0.731364 19.7436L18.1145 9.63882C19.0684 9.08361 20.6281 9.08361 21.5871 9.63882L39.0863 19.7436Z" fill="white"/>
<path id="Vector_3" d="M9.08457 16.1752C9.08457 16.1601 9.08962 16.145 9.08962 16.1298C9.08962 16.1197 9.09467 16.1096 9.09467 16.0995C9.09467 16.0894 9.09971 16.0793 9.09971 16.0743C9.10476 16.0591 9.10476 16.0491 9.10981 16.0339C9.10981 16.0289 9.11486 16.0188 9.11486 16.0137L9.13 15.9683C9.13 15.9632 9.13505 15.9582 9.13505 15.9481C9.14009 15.9279 9.15019 15.9077 9.16028 15.8875C9.16028 15.8875 9.16028 15.8825 9.16533 15.8825C9.17542 15.8623 9.18047 15.8472 9.19057 15.832C9.19561 15.827 9.19561 15.8219 9.20066 15.8169C9.21076 15.8017 9.2158 15.7866 9.2259 15.7664C9.2259 15.7614 9.23095 15.7614 9.23095 15.7563C9.24104 15.7361 9.25114 15.721 9.26628 15.7008C9.27132 15.6957 9.27132 15.6907 9.27637 15.6856C9.28647 15.6705 9.29151 15.6604 9.30161 15.6453C9.30666 15.6402 9.3117 15.6301 9.31675 15.6251C9.32685 15.615 9.33189 15.6049 9.34199 15.5948C9.34704 15.5847 9.35713 15.5796 9.36218 15.5696C9.36722 15.5595 9.37732 15.5544 9.38237 15.5443C9.39246 15.5292 9.4076 15.5191 9.4177 15.5039L9.43789 15.4837C9.46312 15.4585 9.48836 15.4383 9.5136 15.4181C9.51865 15.4131 9.52369 15.4131 9.52874 15.408C9.55398 15.3878 9.58426 15.3677 9.61455 15.3525C9.63473 15.3374 9.65997 15.3273 9.68016 15.3222C9.68521 15.3172 9.6953 15.3172 9.70035 15.3121C9.71549 15.3071 9.72559 15.302 9.74073 15.297C9.75082 15.297 9.75587 15.2919 9.76597 15.2919C9.77101 15.2919 9.78111 15.2869 9.78616 15.2869C9.79625 15.2869 9.80635 15.2819 9.81644 15.2819H9.87701C9.89215 15.2819 9.90225 15.2869 9.91739 15.2869H9.92748C9.93758 15.2869 9.94767 15.2919 9.95777 15.297C9.96281 15.297 9.96281 15.297 9.96786 15.302C9.97796 15.3071 9.9931 15.3121 10.0032 15.3172L9.25618 14.8831H9.25113C9.24104 14.8781 9.23094 14.873 9.2259 14.868H9.22085C9.2158 14.868 9.2158 14.868 9.21076 14.8629C9.20571 14.8629 9.20066 14.8579 9.19561 14.8579C9.19057 14.8579 9.18552 14.8579 9.18047 14.8528H9.16533C9.15524 14.8528 9.14514 14.8478 9.13505 14.8478H9.05934C9.05429 14.8478 9.04924 14.8478 9.04419 14.8528C9.03914 14.8528 9.02905 14.8579 9.024 14.8579C9.01896 14.8579 9.01391 14.8579 9.01391 14.8629C9.00886 14.8629 9.00381 14.868 9.00381 14.868C8.99372 14.873 8.97858 14.8781 8.96344 14.8831C8.95839 14.8831 8.95334 14.8882 8.94829 14.8882C8.94829 14.8882 8.94325 14.8932 8.9382 14.8932C8.91801 14.9033 8.89277 14.9134 8.87258 14.9285C8.8423 14.9437 8.81706 14.9639 8.79182 14.9841C8.78678 14.9891 8.78173 14.9891 8.77668 14.9942C8.75145 15.0143 8.72621 15.0396 8.70097 15.0598L8.69592 15.0648L8.68583 15.0749C8.67574 15.085 8.66059 15.1001 8.6505 15.1153L8.6404 15.1254L8.63031 15.1355C8.62526 15.1456 8.61517 15.1506 8.61012 15.1607L8.59498 15.1759C8.58993 15.1809 8.58993 15.186 8.58488 15.191C8.57984 15.196 8.57479 15.2061 8.56974 15.2112C8.56469 15.2162 8.56469 15.2213 8.55965 15.2263C8.5546 15.2364 8.54955 15.2415 8.5445 15.2516C8.53946 15.2566 8.53946 15.2617 8.53441 15.2667L8.52936 15.2718L8.49908 15.3172V15.3222C8.49908 15.3273 8.49403 15.3273 8.49403 15.3323C8.48898 15.3424 8.48394 15.3525 8.47384 15.3677C8.46879 15.3727 8.46879 15.3778 8.46375 15.3828C8.4587 15.3878 8.4587 15.3929 8.45365 15.3979C8.45365 15.403 8.4486 15.408 8.4486 15.4131C8.44356 15.4282 8.43851 15.4383 8.43346 15.4535C8.43346 15.4535 8.43346 15.4585 8.42841 15.4585C8.42337 15.4737 8.41327 15.4888 8.40823 15.509C8.40823 15.514 8.40822 15.514 8.40318 15.5191C8.40318 15.5241 8.39813 15.5292 8.39813 15.5393C8.39308 15.5494 8.39308 15.5544 8.38803 15.5645C8.38803 15.5696 8.38299 15.5796 8.38299 15.5847C8.38299 15.5897 8.37794 15.5998 8.37794 15.6049C8.37794 15.6099 8.37289 15.615 8.37289 15.62C8.37289 15.6301 8.36785 15.6352 8.36785 15.6453C8.36785 15.6554 8.3628 15.6655 8.3628 15.6705V15.6806C8.3628 15.6856 8.3628 15.6957 8.35775 15.7008C8.3527 15.7159 8.3527 15.7311 8.3527 15.7462V15.7664C8.34766 15.7967 8.34766 15.832 8.34766 15.8623C8.34766 16.0339 8.40822 16.155 8.50412 16.2106L9.25113 16.6446C9.15523 16.5891 9.09467 16.468 9.09467 16.2964C9.09467 16.2661 9.09467 16.2358 9.09971 16.2005C9.07952 16.1904 9.07952 16.1803 9.08457 16.1752Z" fill="#ACC5EA"/>
<path id="Vector_4" d="M10.7251 15.2869C10.7301 15.2869 10.7402 15.2818 10.7453 15.2818C10.7503 15.2818 10.7554 15.2768 10.7604 15.2768C10.7705 15.2768 10.7755 15.2717 10.7806 15.2717H10.8311C10.8412 15.2717 10.8513 15.2717 10.8614 15.2768H10.8714C10.8815 15.2768 10.8866 15.2818 10.8967 15.2818C10.8967 15.2818 10.9017 15.2818 10.9017 15.2869L10.932 15.302L10.185 14.8679C10.18 14.8629 10.1699 14.8629 10.1648 14.8578H10.1598C10.1598 14.8578 10.1547 14.8578 10.1547 14.8528C10.1497 14.8528 10.1497 14.8477 10.1446 14.8477C10.1396 14.8477 10.1345 14.8477 10.1345 14.8427H10.1194C10.1093 14.8427 10.1042 14.8427 10.0942 14.8376H10.0285C10.0235 14.8376 10.0184 14.8376 10.0134 14.8427H10.0033C9.99825 14.8427 9.99825 14.8427 9.9932 14.8477C9.98311 14.8528 9.97302 14.8528 9.96292 14.8578C9.95787 14.8578 9.95787 14.8578 9.95282 14.8629C9.95282 14.8629 9.94778 14.8629 9.94778 14.8679C9.93264 14.873 9.91245 14.8831 9.89731 14.8932L9.42285 15.1657L10.1699 15.5998L10.6443 15.3272C10.6645 15.3171 10.6796 15.3071 10.6948 15.302C10.6998 15.302 10.7049 15.297 10.7099 15.297C10.7049 15.2919 10.715 15.2919 10.7251 15.2869Z" fill="#2A2ABC"/>
<path id="Vector_5" d="M9.2309 16.6446L8.48389 16.2106H8.48893L9.2309 16.6446Z" fill="#28289E"/>
<path id="Vector_6" d="M9.23627 16.6496L8.48926 16.2156C8.49935 16.2206 8.50945 16.2257 8.51449 16.2307L9.26151 16.6648C9.25141 16.6547 9.24132 16.6547 9.23627 16.6496Z" fill="#2929A3"/>
<path id="Vector_7" d="M9.26117 16.6598L8.51416 16.2257C8.52425 16.2308 8.53435 16.2308 8.54444 16.2358L9.29146 16.6699C9.28136 16.6699 9.27127 16.6648 9.26117 16.6598Z" fill="#2A2AA8"/>
<path id="Vector_8" d="M9.29144 16.6698L8.54443 16.2357C8.55453 16.2408 8.56462 16.2408 8.57472 16.2408L9.32173 16.6748C9.31163 16.6748 9.30154 16.6748 9.29144 16.6698Z" fill="#2C2CAD"/>
<path id="Vector_9" d="M9.32172 16.6799L8.57471 16.2458C8.5848 16.2458 8.5949 16.2509 8.60499 16.2509L9.352 16.685C9.34191 16.6799 9.33181 16.6799 9.32172 16.6799Z" fill="#2D2DB3"/>
<path id="Vector_10" d="M9.35199 16.6799L8.60498 16.2458H8.64031L9.38732 16.6799H9.35199Z" fill="#2E2EB8"/>
<path id="Vector_11" d="M9.38764 16.68L8.64062 16.2459C8.65577 16.2459 8.66586 16.2459 8.681 16.2408L9.42801 16.6749C9.41287 16.68 9.40278 16.68 9.38764 16.68Z" fill="#2F2FBD"/>
<path id="Vector_12" d="M9.42816 16.6799L8.68115 16.2458C8.69629 16.2458 8.71144 16.2408 8.72658 16.2357L9.47359 16.6698C9.45845 16.6698 9.4433 16.6748 9.42816 16.6799Z" fill="#3131C2"/>
<path id="Vector_13" d="M9.47357 16.6698L8.72656 16.2358C8.74675 16.2307 8.76694 16.2206 8.79218 16.2156L9.53919 16.6496C9.519 16.6547 9.49881 16.6597 9.47357 16.6698Z" fill="#3232C7"/>
<path id="Vector_14" d="M9.539 16.6445L8.79199 16.2105C8.81723 16.2004 8.84247 16.1852 8.8677 16.1751C8.93332 16.1398 8.99389 16.0893 9.04941 16.0338L9.79642 16.4679C9.7409 16.5234 9.68033 16.5688 9.61471 16.6092C9.58948 16.6244 9.56424 16.6345 9.539 16.6445Z" fill="#3333CC"/>
<path id="Vector_15" d="M9.79633 16.4679L9.04932 16.0338L9.10989 15.9733L9.85689 16.4073L9.79633 16.4679Z" fill="#3232C7"/>
<path id="Vector_16" d="M9.85687 16.4073L9.10986 15.9732C9.12501 15.9581 9.14015 15.9379 9.15529 15.9177L9.9023 16.3518C9.88211 16.372 9.86697 16.3871 9.85687 16.4073Z" fill="#3131C2"/>
<path id="Vector_17" d="M9.8974 16.3519L9.15039 15.9178C9.16049 15.9026 9.17563 15.8875 9.18572 15.8673L9.93273 16.3014C9.92264 16.3216 9.91254 16.3367 9.8974 16.3519Z" fill="#2F2FBD"/>
<path id="Vector_18" d="M9.93256 16.3014L9.18555 15.8673L9.21583 15.8219L9.96284 16.256C9.95779 16.2711 9.94265 16.2863 9.93256 16.3014Z" fill="#2E2EB8"/>
<path id="Vector_19" d="M9.9682 16.256L9.22119 15.8219L9.25148 15.7765L9.99849 16.2106C9.98334 16.2257 9.97325 16.2408 9.9682 16.256Z" fill="#2D2DB3"/>
<path id="Vector_20" d="M9.9931 16.2106L9.24609 15.7765C9.25619 15.7614 9.26124 15.7462 9.27133 15.7311L10.0183 16.1652C10.0082 16.1803 10.0032 16.1954 9.9931 16.2106Z" fill="#2C2CAD"/>
<path id="Vector_21" d="M10.0185 16.165L9.27148 15.731C9.28158 15.7158 9.28663 15.7007 9.29672 15.6855L10.0437 16.1196C10.0336 16.1348 10.0286 16.1499 10.0185 16.165Z" fill="#2A2AA8"/>
<path id="Vector_22" d="M10.0439 16.1196L9.29688 15.6856C9.30192 15.6704 9.31202 15.6553 9.31707 15.6401L10.0641 16.0742C10.059 16.0894 10.0489 16.1045 10.0439 16.1196Z" fill="#2929A3"/>
<path id="Vector_23" d="M10.0639 16.0743L9.31689 15.6402C9.32194 15.6251 9.33204 15.6099 9.33708 15.5897L10.0841 16.0238C10.079 16.0389 10.069 16.0541 10.0639 16.0743Z" fill="#28289E"/>
<path id="Vector_24" d="M10.0839 16.0237L9.33691 15.5897C9.34196 15.5745 9.35206 15.5543 9.3571 15.5392L10.1041 15.9733C10.094 15.9884 10.089 16.0086 10.0839 16.0237Z" fill="#262699"/>
<path id="Vector_25" d="M10.0991 15.9732L9.35205 15.5392C9.3571 15.519 9.36215 15.5038 9.36719 15.4836L10.1142 15.9177C10.1142 15.9379 10.1092 15.953 10.0991 15.9732Z" fill="#252594"/>
<path id="Vector_26" d="M10.1196 15.9177L9.37256 15.4837L9.3877 15.4231L10.1347 15.8572L10.1196 15.9177Z" fill="#24248F"/>
<path id="Vector_27" d="M10.1347 15.8572L9.3877 15.4231L9.40284 15.3474L10.1498 15.7815L10.1347 15.8572Z" fill="#23238A"/>
<path id="Vector_28" d="M10.1445 15.7815L9.39746 15.3474C9.40251 15.3121 9.40251 15.2768 9.40251 15.2414C9.40251 15.2162 9.40251 15.196 9.39746 15.1708L10.1445 15.6049C10.1445 15.6301 10.1495 15.6503 10.1495 15.6755C10.1546 15.7108 10.1495 15.7462 10.1445 15.7815Z" fill="#212185"/>
<path id="Vector_29" d="M8.32779 15.7916L7.85334 16.0642C7.8281 16.0793 7.79782 16.0995 7.77258 16.1197C7.76248 16.1248 7.75744 16.1348 7.74734 16.1399C7.73725 16.15 7.72211 16.1601 7.71201 16.1702L7.69687 16.1853L7.68173 16.2005L7.66658 16.2156C7.65649 16.2307 7.64135 16.2408 7.63125 16.256C7.62621 16.261 7.62116 16.2661 7.62116 16.2711C7.62116 16.2762 7.61611 16.2762 7.61611 16.2812C7.61106 16.2863 7.61106 16.2913 7.60602 16.2964C7.59592 16.3065 7.59087 16.3216 7.58078 16.3317C7.57068 16.3418 7.56564 16.3569 7.56059 16.367V16.3771L7.54545 16.4074C7.5404 16.4175 7.53535 16.4326 7.52526 16.4427L7.51012 16.473C7.50507 16.4882 7.50002 16.4983 7.49497 16.5134C7.48993 16.5285 7.48488 16.5386 7.47983 16.5538C7.47983 16.5588 7.47479 16.5689 7.47479 16.574C7.47479 16.579 7.47478 16.579 7.46974 16.5841C7.46974 16.5891 7.46469 16.5942 7.46469 16.5992C7.45964 16.6143 7.45459 16.6295 7.45459 16.6497C7.45459 16.6598 7.44955 16.6699 7.44955 16.68C7.44955 16.685 7.44955 16.6901 7.4445 16.6951V16.7102C7.43945 16.7405 7.43945 16.7658 7.43945 16.791L7.45964 23.075C7.45964 23.2062 7.51012 23.3021 7.58583 23.3475L8.33284 23.7816C8.25713 23.7362 8.20665 23.6453 8.20665 23.509L8.18646 17.2251C8.18646 17.1948 8.19151 17.1595 8.19656 17.1292C8.19656 17.1241 8.19656 17.1191 8.20161 17.114C8.20665 17.0838 8.2117 17.0535 8.22179 17.0232C8.22179 17.0181 8.2218 17.0181 8.22684 17.0131C8.23694 16.9778 8.24703 16.9475 8.26217 16.9121C8.27732 16.8768 8.29246 16.8465 8.31265 16.8112V16.8061L8.37322 16.7153C8.37322 16.7102 8.37826 16.7102 8.37826 16.7052L8.43883 16.6295L8.45397 16.6143C8.46912 16.5942 8.48931 16.579 8.5095 16.5639C8.51959 16.5588 8.52464 16.5487 8.53473 16.5437C8.55997 16.5235 8.5852 16.5033 8.61549 16.4882L9.08994 16.2156L8.32779 15.7916Z" fill="#2A2ABC"/>
<path id="Vector_30" d="M10.6242 15.3323C10.8564 15.196 11.0482 15.3071 11.0533 15.5746L11.0735 21.8585C11.0735 22.1261 10.8817 22.4592 10.6495 22.5904L8.62548 23.7564C8.39331 23.8926 8.20151 23.7816 8.19646 23.5141L8.17627 17.2301C8.17627 16.9626 8.36807 16.6295 8.60025 16.4982L9.0747 16.2257C9.0747 16.2509 9.06965 16.2762 9.06965 16.3014C9.06965 16.6446 9.31193 16.7809 9.60972 16.6093C9.90752 16.4377 10.1498 16.0187 10.1498 15.6755C10.1498 15.6503 10.1498 15.6301 10.1447 15.6049L10.6242 15.3323Z" fill="#4040FF"/>
<path id="Vector_31" d="M9.53897 15.0597L10.0084 15.3272L9.08471 16.2307L8.88281 16.1146L9.34212 15.0597H9.53897Z" fill="#ACC5EA"/>
<path id="Vector_32" d="M9.61478 15.3574C9.91257 15.1858 10.1548 15.3221 10.1548 15.6653C10.1548 16.0085 9.91257 16.4275 9.61478 16.5991C9.31698 16.7707 9.07471 16.6344 9.07471 16.2912C9.07471 15.948 9.31193 15.5341 9.61478 15.3574Z" fill="white"/>
<path id="Vector_33" d="M15.4949 9.63888C15.505 9.63383 15.5151 9.63383 15.5252 9.62878C15.5302 9.62878 15.5403 9.62373 15.5454 9.62373C15.5504 9.62373 15.5555 9.61869 15.5605 9.61869C15.5706 9.61869 15.5757 9.61364 15.5807 9.61364H15.6312C15.6413 9.61364 15.6514 9.61364 15.6615 9.61869H15.6716C15.6817 9.61869 15.6867 9.62373 15.6968 9.62373C15.6968 9.62373 15.7019 9.62373 15.7019 9.62878L15.7321 9.64392L14.9851 9.20985C14.9801 9.2048 14.97 9.2048 14.9649 9.19975H14.9599C14.9599 9.19975 14.9548 9.19975 14.9548 9.19471C14.9498 9.19471 14.9498 9.18966 14.9448 9.18966C14.9397 9.18966 14.9347 9.18966 14.9347 9.18461H14.9195C14.9094 9.18461 14.9044 9.18461 14.8943 9.17957H14.8287C14.8236 9.17957 14.8186 9.17957 14.8135 9.18461H14.8034C14.7984 9.18461 14.7984 9.18461 14.7933 9.18966C14.7832 9.19471 14.7731 9.19471 14.763 9.19975C14.758 9.19975 14.758 9.19975 14.753 9.2048C14.753 9.2048 14.7479 9.2048 14.7479 9.20985C14.7328 9.2149 14.7126 9.22499 14.6974 9.23509L14.228 9.50764L14.975 9.94172L15.4444 9.66916C15.4646 9.65906 15.4798 9.64897 15.4949 9.64392C15.4848 9.64392 15.4899 9.63888 15.4949 9.63888Z" fill="#2A2ABC"/>
<path id="Vector_34" d="M14.0312 10.9159L13.2842 10.4818H13.2892L14.0312 10.9159C14.0362 10.9159 14.0362 10.9159 14.0312 10.9159Z" fill="#28289E"/>
<path id="Vector_35" d="M14.0361 10.9159L13.2891 10.4818C13.2992 10.4869 13.3093 10.4919 13.3143 10.497L14.0613 10.931C14.0563 10.926 14.0462 10.9209 14.0361 10.9159Z" fill="#2929A3"/>
<path id="Vector_36" d="M14.0615 10.931L13.3145 10.4969C13.3245 10.502 13.3346 10.502 13.3447 10.507L14.0917 10.9411C14.0817 10.9361 14.0716 10.931 14.0615 10.931Z" fill="#2A2AA8"/>
<path id="Vector_37" d="M14.0917 10.941L13.3447 10.507C13.3548 10.512 13.3649 10.512 13.375 10.512L14.122 10.9461C14.1119 10.9461 14.1018 10.941 14.0917 10.941Z" fill="#2C2CAD"/>
<path id="Vector_38" d="M14.122 10.9462L13.375 10.5121C13.3851 10.5121 13.3952 10.5171 13.4053 10.5171L14.1523 10.9512C14.1422 10.9512 14.1321 10.9462 14.122 10.9462Z" fill="#2D2DB3"/>
<path id="Vector_39" d="M14.1572 10.9512L13.4102 10.5171H13.4455L14.1925 10.9512H14.1572Z" fill="#2E2EB8"/>
<path id="Vector_40" d="M14.1928 10.9512L13.4458 10.5171C13.4609 10.5171 13.471 10.5171 13.4862 10.5121L14.2332 10.9462C14.218 10.9462 14.2029 10.9512 14.1928 10.9512Z" fill="#2F2FBD"/>
<path id="Vector_41" d="M14.2329 10.9461L13.4858 10.512C13.501 10.512 13.5161 10.507 13.5313 10.502L14.2783 10.936C14.2631 10.9411 14.248 10.9411 14.2329 10.9461Z" fill="#3131C2"/>
<path id="Vector_42" d="M14.2783 10.9361L13.5312 10.502C13.5514 10.497 13.5716 10.4869 13.5969 10.4818L14.3439 10.9159C14.3186 10.9209 14.2984 10.931 14.2783 10.9361Z" fill="#3232C7"/>
<path id="Vector_43" d="M14.3442 10.9158L13.5972 10.4817C13.6224 10.4716 13.6476 10.4565 13.6729 10.4464C13.7385 10.411 13.7991 10.3606 13.8546 10.3051L14.6016 10.7391C14.5461 10.7946 14.4855 10.8401 14.4199 10.8805C14.3947 10.8905 14.3694 10.9057 14.3442 10.9158Z" fill="#3333CC"/>
<path id="Vector_44" d="M14.5966 10.7341L13.8496 10.3001L13.9102 10.2395L14.6572 10.6736C14.637 10.6938 14.6168 10.719 14.5966 10.7341Z" fill="#3232C7"/>
<path id="Vector_45" d="M14.6572 10.6736L13.9102 10.2395C13.9253 10.2243 13.9404 10.2041 13.9556 10.184L14.7026 10.618C14.6874 10.6382 14.6723 10.6584 14.6572 10.6736Z" fill="#3131C2"/>
<path id="Vector_46" d="M14.7026 10.6181L13.9556 10.184C13.9657 10.1689 13.9808 10.1537 13.9909 10.1335L14.7379 10.5676C14.7278 10.5878 14.7127 10.603 14.7026 10.6181Z" fill="#2F2FBD"/>
<path id="Vector_47" d="M14.7377 10.5726L13.9907 10.1386L14.021 10.0931L14.768 10.5272L14.7377 10.5726Z" fill="#2E2EB8"/>
<path id="Vector_48" d="M14.768 10.5272L14.021 10.0932L14.0513 10.0477L14.7983 10.4818L14.768 10.5272Z" fill="#2D2DB3"/>
<path id="Vector_49" d="M14.7983 10.4818L14.0513 10.0477C14.0614 10.0326 14.0664 10.0175 14.0765 10.0023L14.8235 10.4364C14.8134 10.4515 14.8033 10.4667 14.7983 10.4818Z" fill="#2C2CAD"/>
<path id="Vector_50" d="M14.8237 10.4363L14.0767 10.0022C14.0868 9.98707 14.0918 9.97193 14.1019 9.95679L14.8489 10.3909C14.8388 10.401 14.8287 10.4211 14.8237 10.4363Z" fill="#2A2AA8"/>
<path id="Vector_51" d="M14.8437 10.3859L14.0967 9.9518C14.1017 9.93666 14.1118 9.92151 14.1169 9.90637L14.8639 10.3404C14.8588 10.3556 14.8538 10.3707 14.8437 10.3859Z" fill="#2929A3"/>
<path id="Vector_52" d="M14.8637 10.3404L14.1167 9.90631C14.1217 9.89117 14.1318 9.87602 14.1369 9.85583L14.8839 10.2899C14.8789 10.3101 14.8738 10.3252 14.8637 10.3404Z" fill="#28289E"/>
<path id="Vector_53" d="M14.8842 10.29L14.1372 9.85589C14.1423 9.84075 14.1523 9.82056 14.1574 9.80542L14.9044 10.2395C14.8994 10.2597 14.8943 10.2748 14.8842 10.29Z" fill="#262699"/>
<path id="Vector_54" d="M14.9042 10.2395L14.1572 9.8054C14.1623 9.78521 14.1673 9.77007 14.1724 9.74988L14.9194 10.184C14.9143 10.2041 14.9093 10.2243 14.9042 10.2395Z" fill="#252594"/>
<path id="Vector_55" d="M14.9194 10.184L14.1724 9.7499L14.1875 9.68933L14.9345 10.1234L14.9194 10.184Z" fill="#24248F"/>
<path id="Vector_56" d="M14.9345 10.1234L14.1875 9.68936L14.2026 9.61365L14.9497 10.0477L14.9345 10.1234Z" fill="#23238A"/>
<path id="Vector_57" d="M14.9496 10.0476L14.2026 9.61356C14.2077 9.57823 14.2077 9.5429 14.2077 9.50757L14.9547 9.94164C14.9547 9.97697 14.9547 10.0123 14.9496 10.0476Z" fill="#212185"/>
<path id="Vector_58" d="M13.1274 10.1335L12.658 10.4061C12.6328 10.4212 12.6025 10.4414 12.5773 10.4616C12.5672 10.4667 12.5621 10.4768 12.552 10.4818C12.5419 10.4919 12.5268 10.502 12.5167 10.5121C12.5117 10.5171 12.5066 10.5222 12.5016 10.5323L12.4864 10.5474L12.4713 10.5626C12.4612 10.5777 12.446 10.5878 12.4359 10.6029C12.4309 10.608 12.4258 10.613 12.4258 10.6181C12.4258 10.6231 12.4208 10.6231 12.4208 10.6282C12.4158 10.6332 12.4158 10.6383 12.4107 10.6433C12.4006 10.6534 12.3956 10.6686 12.3855 10.6787C12.3754 10.6888 12.3703 10.7039 12.3653 10.714V10.7241L12.3501 10.7544C12.3451 10.7645 12.34 10.7796 12.3299 10.7897L12.3148 10.82C12.3098 10.8351 12.3047 10.8452 12.2997 10.8604C12.2946 10.8755 12.2896 10.8856 12.2845 10.9007C12.2845 10.9058 12.2795 10.9159 12.2795 10.9209C12.2795 10.926 12.2795 10.926 12.2744 10.931C12.2744 10.9361 12.2694 10.9411 12.2694 10.9462C12.2643 10.9613 12.2593 10.9765 12.2593 10.9966C12.2593 11.0067 12.2542 11.0168 12.2542 11.0269C12.2542 11.032 12.2542 11.037 12.2492 11.0421V11.0572C12.2441 11.0875 12.2441 11.1127 12.2441 11.138L12.2744 21.1418C12.2744 21.2731 12.3198 21.369 12.4006 21.4144L13.1476 21.8485C13.0719 21.8031 13.0214 21.7122 13.0214 21.5759L12.9811 11.572C12.9811 11.5418 12.9861 11.5064 12.9912 11.4761C12.9912 11.4711 12.9912 11.466 12.9962 11.461C13.0012 11.4307 13.0063 11.4004 13.0164 11.3701C13.0164 11.3651 13.0164 11.3651 13.0214 11.3601C13.0315 11.3247 13.0416 11.2944 13.0568 11.2591C13.0719 11.2238 13.087 11.1935 13.1072 11.1582V11.1531L13.1678 11.0623C13.1678 11.0572 13.1729 11.0572 13.1729 11.0522L13.2334 10.9765L13.2486 10.9613C13.2637 10.9411 13.2839 10.926 13.3041 10.9108C13.3142 10.9058 13.3192 10.8957 13.3293 10.8906C13.3546 10.8705 13.3798 10.8503 13.4101 10.8351L13.8795 10.5626L13.1274 10.1335Z" fill="#2A2ABC"/>
<path id="Vector_59" d="M15.4294 9.6691C15.6616 9.53282 15.8534 9.64386 15.8584 9.91137L15.8887 19.9152C15.8887 20.1828 15.6969 20.5159 15.4647 20.6471L13.4357 21.8181C13.2035 21.9544 13.0117 21.8433 13.0067 21.5758L12.9814 11.572C12.9814 11.3044 13.1732 10.9713 13.4054 10.8401L13.8748 10.5675C13.8748 10.9108 14.1171 11.047 14.4149 10.8754C14.7127 10.7038 14.955 10.2849 14.955 9.94166L15.4294 9.6691Z" fill="#4040FF"/>
<path id="Vector_60" d="M14.1827 9.48743L14.6672 9.75998L13.9656 10.6231L13.5669 10.3859L14.1827 9.48743Z" fill="#ACC5EA"/>
<path id="Vector_61" d="M14.4097 9.61864C14.7075 9.44703 14.9498 9.58331 14.9498 9.92653C14.9498 10.2698 14.7075 10.6887 14.4097 10.8603C14.1119 11.0319 13.8696 10.8956 13.8696 10.5524C13.8747 10.2092 14.1119 9.79025 14.4097 9.61864Z" fill="white"/>
<path id="Vector_62" d="M14.0464 9.14922L14.0161 9.13408H14.0111C14.006 9.13408 14.006 9.13408 14.001 9.12903C13.9959 9.12903 13.9909 9.12399 13.9858 9.12399C13.9808 9.12399 13.9757 9.12399 13.9707 9.11894H13.9555C13.9454 9.11894 13.9353 9.11389 13.9252 9.11389H13.8495C13.8445 9.11389 13.8394 9.11389 13.8344 9.11894C13.8294 9.11894 13.8193 9.12399 13.8142 9.12399C13.8092 9.12399 13.8041 9.12399 13.8041 9.12903C13.7991 9.12903 13.794 9.13408 13.794 9.13408C13.7839 9.13913 13.7688 9.14418 13.7536 9.14922C13.7486 9.14922 13.7435 9.15427 13.7385 9.15427C13.7385 9.15427 13.7334 9.15932 13.7284 9.15932C13.7082 9.16941 13.683 9.17951 13.6628 9.19465C13.6325 9.20979 13.6073 9.22998 13.577 9.25017C13.5719 9.25522 13.5669 9.25522 13.5618 9.26027C13.5366 9.28046 13.5114 9.30569 13.4861 9.32588L13.4811 9.33093L13.471 9.34102C13.4609 9.35112 13.4457 9.36626 13.4357 9.3814L13.4256 9.3915L13.4155 9.40159C13.4104 9.41169 13.4003 9.41673 13.3953 9.42683L13.3801 9.44197C13.3751 9.44702 13.3751 9.45207 13.37 9.45711C13.365 9.46216 13.3599 9.47226 13.3549 9.4773C13.3499 9.48235 13.3498 9.4874 13.3448 9.49244C13.3398 9.50254 13.3347 9.50759 13.3297 9.51768C13.3246 9.52273 13.3246 9.52778 13.3196 9.53282L13.3145 9.53787L13.2842 9.5833V9.58835C13.2842 9.59339 13.2792 9.59339 13.2792 9.59844C13.2741 9.60853 13.2691 9.61863 13.259 9.62872C13.2539 9.63377 13.254 9.63882 13.2489 9.64386C13.2439 9.64891 13.2439 9.65396 13.2388 9.65901C13.2388 9.66406 13.2338 9.6691 13.2338 9.67415C13.2287 9.68929 13.2237 9.69939 13.2186 9.71453C13.2186 9.71453 13.2186 9.71958 13.2136 9.71958C13.2085 9.73472 13.1984 9.74986 13.1934 9.77005C13.1934 9.7751 13.1934 9.7751 13.1883 9.78014C13.1883 9.78519 13.1833 9.79024 13.1833 9.80033C13.1782 9.81043 13.1782 9.81548 13.1732 9.82557C13.1732 9.83062 13.1681 9.84071 13.1681 9.84576C13.1681 9.85081 13.1631 9.8609 13.1631 9.86595C13.1631 9.871 13.158 9.87604 13.158 9.88109C13.158 9.89119 13.153 9.89623 13.153 9.90633C13.153 9.91642 13.148 9.92652 13.148 9.93157V9.94166C13.148 9.94671 13.148 9.9568 13.1429 9.96185C13.1379 9.97699 13.1379 9.99213 13.1379 10.0073V10.0275C13.1328 10.0577 13.1328 10.0931 13.1328 10.1234V10.1385L13.8798 10.5726V10.5574C13.8798 10.5272 13.8798 10.4969 13.8849 10.4615C13.8849 10.4514 13.8849 10.4464 13.8899 10.4363C13.8899 10.4212 13.895 10.406 13.895 10.3909C13.895 10.3808 13.9 10.3707 13.9 10.3606C13.9 10.3505 13.9051 10.3404 13.9051 10.3354C13.9101 10.3202 13.9101 10.3101 13.9152 10.295C13.9152 10.2899 13.9202 10.2798 13.9202 10.2748L13.9353 10.2294C13.9353 10.2243 13.9404 10.2193 13.9404 10.2092C13.9454 10.189 13.9555 10.1688 13.9656 10.1486C13.9656 10.1486 13.9656 10.1436 13.9707 10.1436C13.9808 10.1284 13.9858 10.1082 13.9959 10.0931C14.001 10.088 14.001 10.083 14.006 10.0779C14.0161 10.0628 14.0211 10.0477 14.0312 10.0275C14.0312 10.0224 14.0363 10.0224 14.0363 10.0174C14.0464 9.99718 14.0565 9.98204 14.0716 9.96185C14.0767 9.9568 14.0767 9.95175 14.0817 9.94671C14.0918 9.93156 14.1019 9.92147 14.107 9.90633C14.112 9.90128 14.117 9.89119 14.1221 9.88614C14.1322 9.87604 14.1372 9.86595 14.1473 9.85585C14.1524 9.84576 14.1625 9.84071 14.1675 9.83062C14.1726 9.82052 14.1827 9.81548 14.1877 9.80538C14.1978 9.79024 14.2129 9.78015 14.223 9.765L14.2432 9.74481C14.2685 9.71958 14.2937 9.69939 14.3189 9.6792C14.324 9.67415 14.329 9.67415 14.3341 9.6691C14.3593 9.64891 14.3896 9.62872 14.4199 9.61358C14.4451 9.59844 14.4653 9.58834 14.4855 9.57825C14.4906 9.5732 14.5006 9.5732 14.5057 9.56815C14.5208 9.56311 14.5309 9.55806 14.5461 9.55301C14.5562 9.55301 14.5612 9.54797 14.5713 9.54797C14.5764 9.54797 14.5865 9.54292 14.5915 9.54292C14.6016 9.54292 14.6117 9.53787 14.6218 9.53787H14.6824C14.6975 9.53787 14.7076 9.54292 14.7227 9.54292H14.7328C14.7429 9.54292 14.753 9.54797 14.7631 9.55301C14.7682 9.55301 14.7682 9.55301 14.7732 9.55806C14.7833 9.56311 14.7984 9.56815 14.8085 9.5732L14.0464 9.14922Z" fill="#ACC5EA"/>
<path id="Vector_63" d="M20.31 9.98202C20.3201 9.97697 20.3302 9.97697 20.3403 9.97192C20.3454 9.97192 20.3554 9.96687 20.3605 9.96687C20.3655 9.96687 20.3706 9.96183 20.3756 9.96183C20.3857 9.96183 20.3908 9.95678 20.3958 9.95678H20.4413C20.4513 9.95678 20.4614 9.95678 20.4715 9.96183H20.4816C20.4917 9.96183 20.4968 9.96687 20.5069 9.96687C20.5069 9.96687 20.5119 9.96687 20.5119 9.97192L20.5422 9.98706L19.7952 9.55299C19.7901 9.54794 19.78 9.54794 19.775 9.54289H19.77C19.77 9.54289 19.7649 9.5429 19.7649 9.53785C19.7599 9.53785 19.7599 9.5328 19.7548 9.5328C19.7498 9.5328 19.7447 9.5328 19.7447 9.52775H19.7296C19.7195 9.52775 19.7144 9.52775 19.7043 9.52271H19.6387C19.6337 9.52271 19.6286 9.52271 19.6236 9.52775H19.6135C19.6084 9.52775 19.6084 9.52775 19.6034 9.5328C19.5933 9.53785 19.5832 9.53785 19.5731 9.54289C19.5681 9.54289 19.5681 9.54289 19.563 9.54794C19.563 9.54794 19.558 9.54794 19.558 9.55299C19.5428 9.55804 19.5226 9.56813 19.5075 9.57823L19.0381 9.85078L19.7851 10.2849L20.2545 10.0123C20.2747 10.0022 20.2898 9.99211 20.305 9.98706C20.2999 9.98706 20.305 9.98706 20.31 9.98202Z" fill="#2A2ABC"/>
<path id="Vector_64" d="M18.8461 11.259L18.0991 10.825H18.1042L18.8461 11.259Z" fill="#28289E"/>
<path id="Vector_65" d="M18.8461 11.259L18.0991 10.825C18.1092 10.83 18.1193 10.835 18.1244 10.8401L18.8714 11.2742C18.8663 11.2691 18.8562 11.2641 18.8461 11.259Z" fill="#2929A3"/>
<path id="Vector_66" d="M18.8764 11.2742L18.1294 10.8401C18.1395 10.8451 18.1496 10.8451 18.1597 10.8502L18.9067 11.2843C18.8915 11.2792 18.8865 11.2742 18.8764 11.2742Z" fill="#2A2AA8"/>
<path id="Vector_67" d="M18.9018 11.2843L18.1548 10.8502C18.1649 10.8553 18.175 10.8553 18.1851 10.8553L18.9321 11.2893C18.922 11.2893 18.9119 11.2843 18.9018 11.2843Z" fill="#2C2CAD"/>
<path id="Vector_68" d="M18.9321 11.2893L18.1851 10.8552C18.1952 10.8552 18.2052 10.8603 18.2153 10.8603L18.9624 11.2943C18.9573 11.2943 18.9422 11.2893 18.9321 11.2893Z" fill="#2D2DB3"/>
<path id="Vector_69" d="M18.9672 11.2944L18.2202 10.8604H18.2555L19.0026 11.2944H18.9672Z" fill="#2E2EB8"/>
<path id="Vector_70" d="M19.0029 11.2943L18.2559 10.8603C18.271 10.8603 18.2811 10.8603 18.2962 10.8552L19.0432 11.2893C19.0281 11.2893 19.018 11.2943 19.0029 11.2943Z" fill="#2F2FBD"/>
<path id="Vector_71" d="M19.0434 11.2894L18.2964 10.8553C18.3115 10.8553 18.3267 10.8503 18.3418 10.8452L19.0888 11.2793C19.0737 11.2843 19.0585 11.2894 19.0434 11.2894Z" fill="#3131C2"/>
<path id="Vector_72" d="M19.0888 11.2792L18.3418 10.8451C18.362 10.8401 18.3822 10.83 18.4074 10.825L19.1544 11.259C19.1342 11.2641 19.109 11.2742 19.0888 11.2792Z" fill="#3232C7"/>
<path id="Vector_73" d="M19.1542 11.259L18.4072 10.825C18.4325 10.8149 18.4577 10.7997 18.4829 10.7896C18.5486 10.7543 18.6091 10.7038 18.6646 10.6483L19.4117 11.0824C19.3561 11.1379 19.2956 11.1833 19.2299 11.2237C19.2047 11.2338 19.1795 11.249 19.1542 11.259Z" fill="#3333CC"/>
<path id="Vector_74" d="M19.4116 11.0774L18.6646 10.6433L18.7251 10.5828L19.4721 11.0168C19.4519 11.037 19.4318 11.0623 19.4116 11.0774Z" fill="#3232C7"/>
<path id="Vector_75" d="M19.4672 11.0168L18.7202 10.5827C18.7354 10.5676 18.7505 10.5474 18.7656 10.5272L19.5127 10.9613C19.4975 10.9815 19.4824 11.0017 19.4672 11.0168Z" fill="#3131C2"/>
<path id="Vector_76" d="M19.5126 10.9612L18.7656 10.5272C18.7757 10.512 18.7909 10.4969 18.801 10.4767L19.548 10.9108C19.5379 10.9309 19.5278 10.9461 19.5126 10.9612Z" fill="#2F2FBD"/>
<path id="Vector_77" d="M19.5478 10.9158L18.8008 10.4817L18.8311 10.4363L19.5781 10.8704L19.5478 10.9158Z" fill="#2E2EB8"/>
<path id="Vector_78" d="M19.5781 10.8704L18.8311 10.4363L18.8613 10.3909L19.6083 10.8249L19.5781 10.8704Z" fill="#2D2DB3"/>
<path id="Vector_79" d="M19.6083 10.82L18.8613 10.3859C18.8714 10.3707 18.8765 10.3556 18.8866 10.3405L19.6336 10.7745C19.6235 10.7897 19.6184 10.8048 19.6083 10.82Z" fill="#2C2CAD"/>
<path id="Vector_80" d="M19.6337 10.7745L18.8867 10.3405C18.8968 10.3253 18.9019 10.3102 18.912 10.295L19.659 10.7291C19.6489 10.7443 19.6438 10.7594 19.6337 10.7745Z" fill="#2A2AA8"/>
<path id="Vector_81" d="M19.6591 10.7291L18.9121 10.2951C18.9172 10.2799 18.9273 10.2648 18.9323 10.2496L19.6793 10.6837C19.6743 10.6988 19.6642 10.714 19.6591 10.7291Z" fill="#2929A3"/>
<path id="Vector_82" d="M19.6791 10.6836L18.9321 10.2496C18.9372 10.2344 18.9473 10.2193 18.9523 10.1991L19.6993 10.6332C19.6943 10.6534 19.6842 10.6685 19.6791 10.6836Z" fill="#28289E"/>
<path id="Vector_83" d="M19.6992 10.6332L18.9521 10.1992C18.9572 10.184 18.9622 10.1638 18.9723 10.1487L19.7193 10.5828C19.7093 10.6029 19.7042 10.6181 19.6992 10.6332Z" fill="#262699"/>
<path id="Vector_84" d="M19.7143 10.5827L18.9673 10.1487C18.9723 10.1285 18.9774 10.1133 18.9824 10.0931L19.7294 10.5272C19.7294 10.5474 19.7244 10.5676 19.7143 10.5827Z" fill="#252594"/>
<path id="Vector_85" d="M19.7348 10.5272L18.9878 10.0932L19.0029 10.0326L19.7499 10.4667L19.7348 10.5272Z" fill="#24248F"/>
<path id="Vector_86" d="M19.7499 10.4666L19.0029 10.0325L19.0181 9.95679L19.7651 10.3909L19.7499 10.4666Z" fill="#23238A"/>
<path id="Vector_87" d="M19.7597 10.3909L19.0127 9.95683C19.0177 9.92149 19.0177 9.88616 19.0177 9.85083L19.7648 10.2849C19.7698 10.3202 19.7648 10.3556 19.7597 10.3909Z" fill="#212185"/>
<path id="Vector_88" d="M17.191 19.1632L17.938 19.5973C17.8623 19.5518 17.8118 19.461 17.8118 19.3247L17.0648 18.8906C17.0698 19.0269 17.1153 19.1228 17.191 19.1632ZM17.938 10.4767L17.4686 10.7492C17.4433 10.7644 17.4131 10.7846 17.3878 10.8048C17.3777 10.8098 17.3727 10.8199 17.3626 10.825C17.3525 10.835 17.3373 10.8451 17.3272 10.8552C17.3222 10.8603 17.3172 10.8653 17.3121 10.8754L17.297 10.8906L17.2818 10.9057C17.2717 10.9209 17.2566 10.9309 17.2465 10.9461C17.2414 10.9511 17.2364 10.9562 17.2364 10.9612C17.2364 10.9663 17.2313 10.9663 17.2313 10.9713C17.2263 10.9764 17.2263 10.9814 17.2212 10.9865C17.2112 10.9966 17.2061 11.0117 17.196 11.0218C17.1859 11.0319 17.1809 11.047 17.1758 11.0571V11.0672L17.1607 11.0975C17.1556 11.1076 17.1506 11.1227 17.1405 11.1328C17.1354 11.1429 17.1304 11.153 17.1254 11.1682C17.1203 11.1833 17.1153 11.1934 17.1102 11.2086C17.1052 11.2237 17.1001 11.2338 17.0951 11.2489C17.0951 11.254 17.09 11.2641 17.09 11.2691C17.09 11.2742 17.09 11.2742 17.085 11.2792C17.085 11.2843 17.0799 11.2893 17.0799 11.2944C17.0749 11.3095 17.0698 11.3246 17.0698 11.3448C17.0698 11.3549 17.0648 11.365 17.0648 11.3751C17.0648 11.3802 17.0648 11.3852 17.0597 11.3903V11.4054C17.0547 11.4357 17.0547 11.4609 17.0547 11.4862L17.0749 18.8957L17.8219 19.3298L17.8017 11.9202C17.8017 11.8899 17.8067 11.8546 17.8118 11.8243C17.8118 11.8193 17.8118 11.8142 17.8168 11.8092C17.8219 11.7789 17.8269 11.7486 17.837 11.7183C17.837 11.7133 17.837 11.7133 17.8421 11.7082C17.8522 11.6729 17.8623 11.6426 17.8774 11.6073C17.8925 11.572 17.9077 11.5417 17.9279 11.5063V11.5013L17.9884 11.4104C17.9884 11.4054 17.9935 11.4054 17.9935 11.4004L18.0541 11.3246L18.0692 11.3095C18.0844 11.2893 18.1045 11.2742 18.1247 11.259C18.1348 11.254 18.1399 11.2439 18.15 11.2388C18.1752 11.2186 18.2004 11.1985 18.2307 11.1833L18.7001 10.9108L17.938 10.4767Z" fill="#2A2ABC"/>
<path id="Vector_89" d="M20.2393 10.0174C20.4715 9.88109 20.6633 9.99213 20.6633 10.2596L20.6835 17.6692C20.6835 17.9367 20.4917 18.2698 20.2595 18.401L18.2406 19.572C18.0084 19.7083 17.8166 19.5973 17.8166 19.3298L17.7964 11.9202C17.7964 11.6527 17.9882 11.3196 18.2204 11.1884L18.6898 10.9158C18.6898 11.259 18.932 11.3953 19.2298 11.2237C19.5276 11.0521 19.7699 10.6331 19.7699 10.2899L20.2393 10.0174Z" fill="#4040FF"/>
<path id="Vector_90" d="M19.23 9.97692C19.5278 9.80531 19.7701 9.94159 19.7701 10.2848C19.7701 10.628 19.5278 11.047 19.23 11.2186C18.9322 11.3902 18.6899 11.2539 18.6899 10.9107C18.6899 10.5675 18.9322 10.1485 19.23 9.97692Z" fill="white"/>
<path id="Vector_91" d="M18.8664 9.50762L18.8361 9.49248H18.831C18.826 9.49248 18.826 9.49248 18.8209 9.48743C18.8159 9.48743 18.8109 9.48239 18.8058 9.48239C18.8008 9.48239 18.7957 9.48239 18.7907 9.47734H18.7755C18.7654 9.47734 18.7553 9.47229 18.7452 9.47229H18.6695C18.6645 9.47229 18.6594 9.47229 18.6544 9.47734C18.6493 9.47734 18.6392 9.48239 18.6342 9.48239C18.6291 9.48239 18.6241 9.48239 18.6241 9.48743C18.6191 9.48743 18.614 9.49248 18.614 9.49248C18.6039 9.49753 18.5888 9.50257 18.5736 9.50762C18.5686 9.50762 18.5635 9.51267 18.5585 9.51267C18.5585 9.51267 18.5534 9.51772 18.5484 9.51772C18.5282 9.52781 18.503 9.53791 18.4828 9.55305C18.4525 9.56819 18.4273 9.58838 18.397 9.60857C18.3919 9.61362 18.3869 9.61362 18.3818 9.61866C18.3566 9.63885 18.3314 9.66409 18.3061 9.68428L18.3011 9.68933L18.291 9.69942C18.2809 9.70952 18.2657 9.72466 18.2556 9.7398C18.2506 9.74485 18.2506 9.7499 18.2455 9.7499L18.2355 9.75999C18.2304 9.77009 18.2203 9.77513 18.2153 9.78523L18.2001 9.80037C18.1951 9.80542 18.1951 9.81046 18.19 9.81551C18.185 9.82056 18.1799 9.83065 18.1749 9.8357C18.1698 9.84075 18.1698 9.8458 18.1648 9.85084C18.1597 9.86094 18.1547 9.86598 18.1496 9.87608C18.1446 9.88113 18.1446 9.88617 18.1396 9.89122L18.1345 9.89627L18.1042 9.9417V9.94674C18.1042 9.95179 18.0992 9.95179 18.0992 9.95684C18.0941 9.96693 18.0891 9.97703 18.079 9.99217C18.0739 9.99722 18.0739 10.0023 18.0689 10.0073C18.0638 10.0124 18.0638 10.0174 18.0588 10.0225C18.0588 10.0275 18.0537 10.0325 18.0537 10.0376C18.0487 10.0527 18.0437 10.0628 18.0336 10.078C18.0336 10.078 18.0336 10.083 18.0285 10.083C18.0235 10.0982 18.0134 10.1133 18.0083 10.1335C18.0083 10.1385 18.0083 10.1385 18.0033 10.1436C18.0033 10.1486 17.9982 10.1537 17.9982 10.1638C17.9932 10.1739 17.9932 10.1789 17.9881 10.189C17.9881 10.1941 17.9831 10.1991 17.9831 10.2092C17.9831 10.2143 17.978 10.2243 17.978 10.2294C17.978 10.2344 17.978 10.2395 17.973 10.2445C17.973 10.2546 17.9679 10.2597 17.9679 10.2698C17.9679 10.2799 17.9629 10.29 17.9629 10.295V10.3051C17.9629 10.3102 17.9578 10.3202 17.9578 10.3253C17.9528 10.3404 17.9528 10.3556 17.9528 10.3707V10.3909C17.9478 10.4212 17.9478 10.4565 17.9478 10.4868V10.4969L18.6948 10.9209C18.6948 10.8906 18.6948 10.8603 18.6998 10.83V10.8098C18.6998 10.7947 18.7049 10.7796 18.7049 10.7644C18.7049 10.7594 18.7049 10.7493 18.7099 10.7442V10.7341C18.7099 10.724 18.715 10.7139 18.715 10.7089C18.715 10.6988 18.72 10.6938 18.72 10.6837C18.72 10.6786 18.725 10.6736 18.725 10.6685C18.725 10.6635 18.7301 10.6534 18.7301 10.6483C18.7301 10.6433 18.7351 10.6332 18.7351 10.6281C18.7402 10.618 18.7402 10.613 18.7452 10.6029C18.7452 10.5979 18.7503 10.5928 18.7503 10.5827C18.7503 10.5777 18.7503 10.5777 18.7553 10.5726C18.7604 10.5575 18.7705 10.5423 18.7755 10.5221C18.7755 10.5221 18.7755 10.5171 18.7806 10.5171C18.7856 10.502 18.7907 10.4919 18.7957 10.4767C18.7957 10.4717 18.8008 10.4666 18.8008 10.4616C18.8058 10.4565 18.8058 10.4515 18.8109 10.4464C18.8159 10.4414 18.8159 10.4363 18.8209 10.4313C18.826 10.4212 18.831 10.4111 18.8411 10.396C18.8411 10.3909 18.8462 10.3909 18.8462 10.3859V10.3808L18.8765 10.3354L18.8815 10.3303C18.8866 10.3253 18.8866 10.3202 18.8916 10.3152C18.8967 10.3051 18.9017 10.3001 18.9068 10.29C18.9118 10.2849 18.9118 10.2799 18.9168 10.2748C18.9219 10.2698 18.9269 10.2597 18.932 10.2546C18.937 10.2496 18.937 10.2445 18.9421 10.2395L18.9572 10.2243C18.9623 10.2143 18.9724 10.2092 18.9774 10.1991L18.9875 10.189L18.9976 10.1789C19.0077 10.1638 19.0228 10.1537 19.0329 10.1385C19.038 10.1335 19.038 10.1284 19.043 10.1284L19.0481 10.1234C19.0733 10.0982 19.0986 10.078 19.1238 10.0578C19.1288 10.0527 19.1339 10.0527 19.1389 10.0477C19.1642 10.0275 19.1945 10.0073 19.2247 9.99217C19.25 9.97703 19.2702 9.96693 19.2904 9.95684C19.2954 9.95179 19.3055 9.95179 19.3105 9.94674C19.3257 9.94169 19.3358 9.93665 19.3509 9.9316C19.361 9.9316 19.3661 9.92655 19.3762 9.92655C19.3812 9.92655 19.3913 9.92151 19.3963 9.92151C19.4064 9.92151 19.4165 9.91646 19.4266 9.91646H19.4872C19.5023 9.91646 19.5124 9.92151 19.5276 9.92151H19.5377C19.5478 9.92151 19.5579 9.92655 19.568 9.9316C19.573 9.9316 19.573 9.9316 19.5781 9.93665C19.5881 9.9417 19.6033 9.94674 19.6134 9.95179L18.8664 9.50762Z" fill="#ACC5EA"/>
<path id="Vector_92" d="M25.1053 0.932088C25.1154 0.927041 25.1255 0.927041 25.1355 0.921994C25.1406 0.921994 25.1507 0.916946 25.1557 0.916946C25.1608 0.916946 25.1658 0.911899 25.1709 0.911899C25.181 0.911899 25.186 0.906851 25.1911 0.906851H25.2415C25.2516 0.906851 25.2617 0.906852 25.2718 0.911899H25.2819C25.292 0.911899 25.2971 0.916946 25.3072 0.916946C25.3072 0.916946 25.3122 0.916946 25.3122 0.921994L25.3425 0.937136L24.5955 0.503062C24.5904 0.498015 24.5803 0.498015 24.5753 0.492967H24.5702C24.5702 0.492967 24.5652 0.492967 24.5652 0.48792C24.5602 0.48792 24.5601 0.482873 24.5551 0.482873C24.5501 0.482873 24.545 0.482873 24.545 0.477825H24.5299C24.5198 0.477825 24.5147 0.477826 24.5046 0.472778H24.439C24.434 0.472778 24.4289 0.472778 24.4239 0.477825H24.4138C24.4087 0.477825 24.4087 0.477826 24.4037 0.482873C24.3936 0.48792 24.3835 0.48792 24.3734 0.492967C24.3684 0.492967 24.3684 0.492968 24.3633 0.498015C24.3633 0.498015 24.3583 0.498015 24.3583 0.503062C24.3431 0.508109 24.3229 0.518204 24.3078 0.528299L23.8384 0.800857L24.5854 1.23493L25.0548 0.962373C25.075 0.952278 25.0901 0.942183 25.1053 0.937136C25.0952 0.937136 25.1002 0.932088 25.1053 0.932088Z" fill="#2A2ABC"/>
<path id="Vector_93" d="M23.6415 2.2091L22.8945 1.77502H22.8996L23.6415 2.2091C23.6466 2.2091 23.6466 2.2091 23.6415 2.2091Z" fill="#28289E"/>
<path id="Vector_94" d="M23.6464 2.2091L22.8994 1.77502C22.9095 1.78007 22.9196 1.78512 22.9247 1.79017L23.6717 2.22424C23.6616 2.21919 23.6565 2.21415 23.6464 2.2091Z" fill="#2929A3"/>
<path id="Vector_95" d="M23.6718 2.22423L22.9248 1.79016C22.9349 1.79521 22.945 1.79521 22.9551 1.80026L23.7021 2.23433C23.692 2.22928 23.6819 2.22423 23.6718 2.22423Z" fill="#2A2AA8"/>
<path id="Vector_96" d="M23.7021 2.23437L22.9551 1.80029C22.9652 1.80534 22.9753 1.80534 22.9854 1.80534L23.7324 2.23941C23.7223 2.23941 23.7122 2.23437 23.7021 2.23437Z" fill="#2C2CAD"/>
<path id="Vector_97" d="M23.7324 2.23937L22.9854 1.8053C22.9954 1.8053 23.0055 1.81035 23.0156 1.81035L23.7626 2.24442C23.7526 2.24442 23.7425 2.23937 23.7324 2.23937Z" fill="#2D2DB3"/>
<path id="Vector_98" d="M23.7626 2.2445L23.0156 1.81042H23.051L23.798 2.2445H23.7626Z" fill="#2E2EB8"/>
<path id="Vector_99" d="M23.8027 2.24442L23.0557 1.81035C23.0708 1.81035 23.0809 1.81035 23.096 1.8053L23.8431 2.23937C23.8279 2.23937 23.8128 2.24442 23.8027 2.24442Z" fill="#2F2FBD"/>
<path id="Vector_100" d="M23.8432 2.23946L23.0962 1.80538C23.1113 1.80538 23.1265 1.80034 23.1416 1.79529L23.8886 2.22936C23.8735 2.23441 23.8583 2.23946 23.8432 2.23946Z" fill="#3131C2"/>
<path id="Vector_101" d="M23.8886 2.22929L23.1416 1.79521C23.1618 1.79017 23.182 1.78007 23.2072 1.77502L23.9542 2.2091C23.929 2.21919 23.9088 2.22424 23.8886 2.22929Z" fill="#3232C7"/>
<path id="Vector_102" d="M23.954 2.20912L23.207 1.77505C23.2323 1.76495 23.2575 1.74981 23.2827 1.73972C23.3484 1.70438 23.4089 1.65391 23.4644 1.59839L24.2115 2.03246C24.1559 2.08798 24.0954 2.13341 24.0298 2.17379C23.9995 2.18388 23.9742 2.19903 23.954 2.20912Z" fill="#3333CC"/>
<path id="Vector_103" d="M24.2065 2.03248L23.4595 1.59841L23.52 1.53784L24.2671 1.97192L24.2065 2.03248Z" fill="#3232C7"/>
<path id="Vector_104" d="M24.267 1.96689L23.52 1.53282C23.5352 1.51767 23.5503 1.49748 23.5654 1.47729L24.3125 1.91137C24.2973 1.93156 24.2822 1.95175 24.267 1.96689Z" fill="#3131C2"/>
<path id="Vector_105" d="M24.3124 1.91643L23.5654 1.48236C23.5755 1.46722 23.5907 1.45207 23.6008 1.43188L24.3478 1.86596C24.3326 1.8811 24.3225 1.89624 24.3124 1.91643Z" fill="#2F2FBD"/>
<path id="Vector_106" d="M24.3481 1.86585L23.6011 1.43178L23.6314 1.38635L24.3784 1.82043L24.3481 1.86585Z" fill="#2E2EB8"/>
<path id="Vector_107" d="M24.3784 1.82044L23.6313 1.38637L23.6616 1.34094L24.4086 1.77502L24.3784 1.82044Z" fill="#2D2DB3"/>
<path id="Vector_108" d="M24.4033 1.77503L23.6562 1.34096C23.6663 1.32582 23.6714 1.31067 23.6815 1.29553L24.4285 1.72961C24.4234 1.74475 24.4134 1.75989 24.4033 1.77503Z" fill="#2C2CAD"/>
<path id="Vector_109" d="M24.4287 1.72962L23.6816 1.29555C23.6917 1.28041 23.6968 1.26526 23.7069 1.25012L24.4539 1.6842C24.4488 1.69934 24.4387 1.71448 24.4287 1.72962Z" fill="#2A2AA8"/>
<path id="Vector_110" d="M24.454 1.68421L23.707 1.25014C23.7121 1.235 23.7222 1.21985 23.7272 1.20471L24.4742 1.63878C24.4692 1.64888 24.4641 1.66402 24.454 1.68421Z" fill="#2929A3"/>
<path id="Vector_111" d="M24.4741 1.63372L23.7271 1.19964C23.7321 1.1845 23.7422 1.16936 23.7472 1.14917L24.4943 1.58324C24.4892 1.60343 24.4842 1.61858 24.4741 1.63372Z" fill="#28289E"/>
<path id="Vector_112" d="M24.4941 1.58831L23.7471 1.15423C23.7521 1.13909 23.7622 1.1189 23.7673 1.10376L24.5143 1.53783C24.5092 1.55297 24.5042 1.56812 24.4941 1.58831Z" fill="#262699"/>
<path id="Vector_113" d="M24.5146 1.53281L23.7676 1.09873C23.7726 1.07854 23.7777 1.0634 23.7827 1.04321L24.5297 1.47729C24.5247 1.49748 24.5196 1.51767 24.5146 1.53281Z" fill="#252594"/>
<path id="Vector_114" d="M24.5297 1.48231L23.7827 1.04824L23.7979 0.987671L24.5449 1.42174C24.5398 1.43689 24.5348 1.45708 24.5297 1.48231Z" fill="#24248F"/>
<path id="Vector_115" d="M24.5449 1.41664L23.7979 0.982571L23.813 0.90686L24.56 1.34093L24.5449 1.41664Z" fill="#23238A"/>
<path id="Vector_116" d="M24.56 1.34097L23.813 0.906898C23.818 0.871566 23.818 0.836235 23.818 0.800903L24.565 1.23498C24.565 1.27031 24.565 1.30564 24.56 1.34097Z" fill="#212185"/>
<path id="Vector_117" d="M22.0109 16.5033L22.758 16.9373C22.6822 16.8919 22.6318 16.8011 22.6318 16.6648L21.8848 16.2307C21.8848 16.367 21.9352 16.4629 22.0109 16.5033Z" fill="#2A2ABC"/>
<path id="Vector_118" d="M22.7427 1.42676L22.2733 1.69932C22.248 1.71446 22.2177 1.73465 22.1925 1.75484C22.1824 1.75988 22.1774 1.76998 22.1673 1.77503C22.1572 1.78512 22.142 1.79522 22.1319 1.80531L22.1168 1.82045L22.1016 1.83559L22.0865 1.85074C22.0764 1.86588 22.0613 1.87597 22.0512 1.89112C22.0461 1.89616 22.0411 1.90121 22.0411 1.90626C22.0411 1.9113 22.036 1.9113 22.036 1.91635C22.031 1.9214 22.031 1.92645 22.0259 1.93149C22.0158 1.94159 22.0108 1.95673 22.0007 1.96683C21.9906 1.97692 21.9856 1.99206 21.9805 2.00216V2.01225L21.9654 2.04254C21.9603 2.05263 21.9553 2.06777 21.9452 2.07787L21.93 2.10815C21.925 2.12329 21.9199 2.13339 21.9149 2.14853C21.9098 2.16367 21.9048 2.17377 21.8998 2.18891C21.8998 2.19396 21.8947 2.20405 21.8947 2.2091C21.8947 2.21415 21.8947 2.21415 21.8897 2.21919C21.8897 2.22424 21.8846 2.22929 21.8846 2.23434C21.8796 2.24948 21.8745 2.26462 21.8745 2.28481C21.8745 2.2949 21.8695 2.305 21.8695 2.31509C21.8695 2.32014 21.8695 2.32519 21.8644 2.33024V2.34538C21.8594 2.37566 21.8594 2.4009 21.8594 2.42614L21.8998 16.2256L22.6316 16.6698L22.5912 2.8703C22.5912 2.84002 22.5963 2.80469 22.6013 2.7744C22.6013 2.76936 22.6013 2.76431 22.6064 2.75926C22.6114 2.72898 22.6165 2.69869 22.6266 2.66841C22.6266 2.66336 22.6266 2.66336 22.6316 2.65831C22.6417 2.62298 22.6518 2.5927 22.667 2.55737C22.6821 2.52204 22.6972 2.49175 22.7174 2.45642V2.45137L22.778 2.36052C22.778 2.35547 22.783 2.35547 22.783 2.35043L22.8436 2.27472L22.8588 2.25957C22.8739 2.23938 22.8941 2.22424 22.9143 2.2091C22.9244 2.20405 22.9294 2.19396 22.9395 2.18891C22.9647 2.16872 22.99 2.14853 23.0203 2.13339L23.4897 1.86083L22.7427 1.42676Z" fill="#2A2ABC"/>
<path id="Vector_119" d="M25.0344 0.967438C25.2666 0.831159 25.4584 0.942201 25.4634 1.20971L25.5038 15.0092C25.5038 15.2767 25.312 15.6098 25.0798 15.7411L23.0558 16.907C22.8237 17.0433 22.6319 16.9323 22.6268 16.6647L22.5864 2.86525C22.5864 2.59774 22.7782 2.26461 23.0104 2.13338L23.4798 1.86082C23.4798 2.20404 23.7221 2.34032 24.0199 2.16871C24.3177 1.9971 24.5599 1.57817 24.5599 1.23495L25.0344 0.967438Z" fill="#4040FF"/>
<path id="Vector_120" d="M24.0298 0.927116C24.3276 0.755506 24.5699 0.891784 24.5699 1.23501C24.5699 1.57823 24.3276 1.99716 24.0298 2.16877C23.732 2.34038 23.4897 2.2041 23.4897 1.86088C23.4897 1.51766 23.732 1.09873 24.0298 0.927116Z" fill="white"/>
<path id="Vector_121" d="M23.6667 0.457695L23.6364 0.442552H23.6313C23.6263 0.442552 23.6263 0.442552 23.6212 0.437505C23.6162 0.437505 23.6111 0.432458 23.6061 0.432458C23.6011 0.432458 23.596 0.432458 23.591 0.42741H23.5758C23.5657 0.42741 23.5556 0.422363 23.5455 0.422363H23.4698C23.4648 0.422363 23.4597 0.422363 23.4547 0.42741C23.4496 0.42741 23.4395 0.432458 23.4345 0.432458C23.4294 0.432458 23.4244 0.432457 23.4244 0.437505C23.4193 0.437505 23.4143 0.442552 23.4143 0.442552C23.4042 0.4476 23.3891 0.452647 23.3739 0.457695C23.3689 0.457695 23.3638 0.462742 23.3588 0.462742C23.3537 0.462742 23.3537 0.467789 23.3487 0.467789C23.3285 0.477884 23.3033 0.487979 23.2831 0.503121C23.2528 0.518263 23.2275 0.538453 23.1973 0.558642C23.1922 0.563689 23.1872 0.563689 23.1821 0.568737C23.1569 0.588926 23.1316 0.614163 23.1064 0.634352L23.1014 0.639399L23.0913 0.649495C23.0812 0.659589 23.066 0.674731 23.0559 0.689873C23.0509 0.69492 23.0509 0.699968 23.0458 0.699968L23.0357 0.710063C23.0307 0.720158 23.0206 0.725205 23.0156 0.7353L23.0004 0.750442C22.9954 0.755489 22.9954 0.760536 22.9903 0.765584C22.9853 0.770631 22.9802 0.780726 22.9752 0.785773C22.9701 0.790821 22.9701 0.795868 22.9651 0.800916C22.96 0.81101 22.955 0.816058 22.9499 0.826153C22.9449 0.8312 22.9449 0.836247 22.9398 0.841294L22.9348 0.846342L22.9045 0.891768V0.896815C22.9045 0.901863 22.8995 0.901863 22.8995 0.90691C22.8944 0.917005 22.8894 0.927099 22.8793 0.942241C22.8742 0.947289 22.8742 0.952336 22.8692 0.957384C22.8641 0.962431 22.8641 0.967478 22.8591 0.972526C22.8591 0.977573 22.854 0.982621 22.854 0.987668C22.849 1.00281 22.8439 1.01291 22.8339 1.02805C22.8339 1.02805 22.8339 1.03309 22.8288 1.03309C22.8238 1.04824 22.8137 1.06338 22.8086 1.08357C22.8086 1.08862 22.8086 1.08861 22.8036 1.09366C22.8036 1.09871 22.7985 1.10376 22.7985 1.1088C22.7935 1.1189 22.7935 1.12395 22.7884 1.13404C22.7884 1.13909 22.7834 1.14414 22.7834 1.15423C22.7834 1.15928 22.7783 1.16937 22.7783 1.17442C22.7783 1.17947 22.7783 1.18452 22.7733 1.18956C22.7733 1.19966 22.7682 1.2047 22.7682 1.2148C22.7682 1.22489 22.7632 1.23499 22.7632 1.24004V1.25013C22.7632 1.25518 22.7581 1.26527 22.7581 1.27032C22.7531 1.28546 22.7531 1.3006 22.7531 1.31575V1.33594C22.748 1.36622 22.748 1.3965 22.748 1.42679L23.4951 1.87096V1.86591C23.4951 1.83563 23.4951 1.80534 23.5001 1.77001V1.74982C23.5001 1.73468 23.5052 1.71954 23.5052 1.70439C23.5052 1.69935 23.5052 1.68925 23.5102 1.6842V1.67411C23.5102 1.66401 23.5152 1.65392 23.5152 1.64887C23.5152 1.63878 23.5203 1.63373 23.5203 1.62364C23.5203 1.61859 23.5253 1.61354 23.5253 1.60849C23.5253 1.60345 23.5304 1.59335 23.5304 1.5883C23.5304 1.58326 23.5354 1.57316 23.5354 1.56812C23.5405 1.55802 23.5405 1.55297 23.5455 1.54288C23.5455 1.53783 23.5506 1.53278 23.5506 1.52774C23.5506 1.52269 23.5506 1.52269 23.5556 1.51764C23.5607 1.5025 23.5708 1.48736 23.5758 1.46717C23.5758 1.46717 23.5758 1.46212 23.5809 1.46212C23.5859 1.44698 23.591 1.43688 23.596 1.42174C23.596 1.41669 23.6011 1.41165 23.6011 1.4066C23.6061 1.40155 23.6061 1.3965 23.6111 1.39146C23.6162 1.38641 23.6162 1.38136 23.6212 1.37632C23.6263 1.36622 23.6313 1.35613 23.6414 1.34098C23.6414 1.33594 23.6465 1.33594 23.6465 1.33089V1.32584L23.6768 1.28042L23.6818 1.27537C23.6869 1.27032 23.6869 1.26527 23.6919 1.26023C23.697 1.25013 23.702 1.24508 23.707 1.23499C23.7121 1.22994 23.7121 1.22489 23.7171 1.21985C23.7222 1.2148 23.7272 1.2047 23.7323 1.19966C23.7373 1.19461 23.7373 1.18956 23.7424 1.18452L23.7575 1.16937C23.7626 1.15928 23.7727 1.15423 23.7777 1.14414L23.7878 1.13404L23.7979 1.12395C23.808 1.1088 23.8231 1.09871 23.8332 1.08357L23.8433 1.07347L23.8484 1.06843C23.8736 1.04319 23.8988 1.023 23.9241 1.00281C23.9291 0.997763 23.9342 0.997762 23.9392 0.992715C23.9645 0.972526 23.9947 0.952337 24.025 0.937194C24.0503 0.922052 24.0705 0.911958 24.0906 0.901863C24.0957 0.896816 24.1058 0.896815 24.1108 0.891768C24.126 0.88672 24.1361 0.881674 24.1512 0.876626C24.1613 0.876626 24.1664 0.871579 24.1765 0.871579C24.1815 0.871579 24.1916 0.866531 24.1966 0.866531C24.2067 0.866531 24.2168 0.861484 24.2269 0.861484H24.2875C24.3026 0.861484 24.3127 0.866531 24.3279 0.866531H24.338C24.3481 0.866531 24.3582 0.871579 24.3683 0.876626C24.3733 0.876626 24.3733 0.876626 24.3783 0.881673C24.3884 0.88672 24.4036 0.891768 24.4137 0.896815L23.6667 0.457695Z" fill="#ACC5EA"/>
<path id="Vector_122" d="M30.3644 13.3032C30.3594 13.3032 30.3594 13.3032 30.3644 13.3032C30.3493 13.2931 30.3392 13.2881 30.324 13.283H30.319C30.3139 13.283 30.3089 13.278 30.3089 13.278C30.3038 13.278 30.2988 13.273 30.2887 13.273C30.2837 13.273 30.2736 13.2679 30.2685 13.2679C30.2635 13.2679 30.2584 13.2679 30.2584 13.2629H30.2534C30.2382 13.2629 30.2281 13.2578 30.213 13.2578H30.1171C30.112 13.2578 30.107 13.2629 30.102 13.2629C30.0919 13.2629 30.0818 13.2679 30.0717 13.2679C30.0666 13.2679 30.0616 13.2679 30.0565 13.273C30.0515 13.273 30.0464 13.278 30.0414 13.278C30.0262 13.283 30.0111 13.2881 29.9909 13.2931C29.9859 13.2931 29.9808 13.2982 29.9758 13.2982C29.9707 13.2982 29.9707 13.3032 29.9657 13.3032C29.9354 13.3133 29.9102 13.3285 29.8799 13.3436L22.8186 17.4269C22.7833 17.4471 22.7479 17.4724 22.7126 17.4976C22.7076 17.5026 22.7025 17.5077 22.6924 17.5127C22.6571 17.538 22.6268 17.5683 22.5965 17.5985C22.5915 17.6036 22.5915 17.6036 22.5864 17.6036L22.5713 17.6187C22.5561 17.6339 22.541 17.649 22.5259 17.6692L22.5107 17.6844C22.5057 17.6894 22.5057 17.6944 22.5006 17.6995C22.4905 17.7096 22.4804 17.7197 22.4754 17.7298C22.4703 17.7348 22.4653 17.7449 22.4602 17.75C22.4552 17.755 22.4501 17.7601 22.4451 17.7702C22.4401 17.7803 22.43 17.7853 22.4249 17.7954C22.4199 17.8004 22.4148 17.8055 22.4098 17.8156C22.4047 17.8257 22.3946 17.8358 22.3896 17.8459C22.3845 17.8509 22.3795 17.861 22.3744 17.8661C22.3744 17.8711 22.3694 17.8711 22.3694 17.8762C22.3593 17.8963 22.3442 17.9165 22.3341 17.9317V17.9367C22.3341 17.9418 22.329 17.9468 22.329 17.9468C22.3189 17.962 22.3139 17.9771 22.3038 17.9872C22.2987 17.9922 22.2987 18.0023 22.2937 18.0074C22.2886 18.0124 22.2886 18.0225 22.2836 18.0276C22.2785 18.0326 22.2785 18.0377 22.2735 18.0478C22.2634 18.0629 22.2583 18.078 22.2533 18.0932C22.2533 18.0982 22.2483 18.0982 22.2483 18.1033C22.2382 18.1235 22.2331 18.1437 22.223 18.1639C22.223 18.1689 22.218 18.1689 22.218 18.1739C22.2129 18.179 22.2129 18.1891 22.2079 18.1941C22.2028 18.2042 22.1978 18.2143 22.1978 18.2244C22.1927 18.2345 22.1927 18.2396 22.1927 18.2497C22.1877 18.2598 22.1877 18.2698 22.1826 18.2799C22.1826 18.285 22.1776 18.29 22.1776 18.3001C22.1725 18.3102 22.1725 18.3203 22.1675 18.3304C22.1624 18.3405 22.1624 18.3557 22.1574 18.3657C22.1574 18.3708 22.1574 18.3758 22.1524 18.3758C22.1524 18.3859 22.1473 18.391 22.1473 18.4011C22.1423 18.4213 22.1423 18.4364 22.1372 18.4566C22.1372 18.4616 22.1372 18.4667 22.1322 18.4717V18.4869C22.1271 18.5273 22.1221 18.5676 22.1221 18.608L22.1372 23.3172C22.1372 23.4787 22.1826 23.6049 22.2533 23.6857C22.2785 23.7109 22.3038 23.7361 22.3341 23.7563L23.0811 24.1904C22.9599 24.1197 22.8842 23.9683 22.8792 23.7513L22.8842 19.0421C22.8842 19.0017 22.8893 18.9613 22.8943 18.921C22.8943 18.9109 22.8943 18.9008 22.8994 18.8907C22.9044 18.8705 22.9044 18.8553 22.9095 18.8352C22.9095 18.8251 22.9145 18.8099 22.9145 18.7998C22.9196 18.7897 22.9196 18.7746 22.9246 18.7645C22.9296 18.7493 22.9347 18.7342 22.9397 18.714C22.9448 18.7039 22.9448 18.6938 22.9498 18.6837C22.9549 18.6635 22.9599 18.6484 22.97 18.6282C22.9751 18.6232 22.9751 18.6131 22.9801 18.608L23.0104 18.5323C23.0104 18.5273 23.0155 18.5273 23.0155 18.5222C23.0255 18.502 23.0356 18.4768 23.0457 18.4566C23.0508 18.4516 23.0508 18.4415 23.0558 18.4364C23.0659 18.4162 23.076 18.396 23.0912 18.3758C23.0912 18.3708 23.0962 18.3657 23.0962 18.3657C23.1114 18.3405 23.1265 18.3203 23.1416 18.2951C23.1467 18.29 23.1517 18.2799 23.1568 18.2749C23.1669 18.2598 23.177 18.2446 23.1921 18.2244C23.1972 18.2143 23.2022 18.2093 23.2123 18.1992C23.2224 18.184 23.2325 18.1739 23.2426 18.1588C23.2527 18.1487 23.2577 18.1386 23.2678 18.1285C23.2779 18.1184 23.283 18.1083 23.2931 18.0982C23.3082 18.0831 23.3233 18.0629 23.3385 18.0478C23.3435 18.0377 23.3536 18.0326 23.3587 18.0276C23.389 17.9973 23.4243 17.967 23.4546 17.9418C23.4596 17.9367 23.4647 17.9317 23.4748 17.9266C23.5101 17.9014 23.5454 17.8762 23.5808 17.856L30.642 13.7827C30.6723 13.7676 30.6975 13.7525 30.7278 13.7424C30.7379 13.7373 30.748 13.7373 30.7531 13.7323C30.7682 13.7272 30.7833 13.7222 30.8035 13.7171C30.8136 13.7121 30.8237 13.7121 30.8338 13.707C30.8439 13.707 30.854 13.702 30.8641 13.702C30.8742 13.702 30.8893 13.6969 30.8994 13.6969H30.9751C30.9903 13.6969 31.0105 13.702 31.0256 13.702C31.0307 13.702 31.0357 13.702 31.0357 13.707C31.0509 13.7121 31.061 13.7121 31.071 13.7171C31.0761 13.7171 31.0811 13.7222 31.0811 13.7222C31.0963 13.7272 31.1114 13.7373 31.1266 13.7424L30.3644 13.3032Z" fill="#C68620"/>
<path id="Vector_123" d="M30.6219 13.7827C31.0004 13.5657 31.3083 13.7373 31.3083 14.1713L31.3235 18.8805C31.3235 19.3146 31.0206 19.8446 30.6421 20.0616L23.5808 24.1348C23.2023 24.3519 22.8944 24.1752 22.8944 23.7462L22.8843 19.0421C22.8843 18.608 23.1871 18.078 23.5657 17.861L30.6219 13.7827Z" fill="#FFCD2E"/>
<path id="Vector_124" d="M28.9966 18.1891L28.4717 17.8862C28.4666 17.8812 28.4616 17.8812 28.4565 17.8711L28.9815 18.1739C28.9865 18.184 28.9916 18.1891 28.9966 18.1891Z" fill="#674611"/>
<path id="Vector_125" d="M28.8247 17.9569L28.2998 17.6541L28.4613 17.8711L28.9862 18.179L28.8247 17.9569Z" fill="#E8CFAC"/>
<path id="Vector_126" d="M28.9565 16.1701C29.0271 16.1297 29.0725 16.1903 29.0372 16.2811L28.5628 17.5076C28.5476 17.5531 28.5123 17.5884 28.482 17.6086C28.4517 17.6288 28.4214 17.6288 28.4012 17.6035L28.2448 17.3815L26.8214 19.1581C26.7962 19.1884 26.7659 19.2137 26.7407 19.2338C26.6851 19.2641 26.6296 19.2641 26.5993 19.2238L26.1955 18.6584L24.7772 20.425C24.752 20.4553 24.7217 20.4805 24.6965 20.5007C24.641 20.5361 24.5854 20.531 24.5551 20.4906C24.5097 20.425 24.535 20.2938 24.6157 20.1979L26.1754 18.2547C26.2006 18.2244 26.2309 18.1991 26.2561 18.1789C26.3116 18.1436 26.3672 18.1487 26.3974 18.189L26.8012 18.7543L28.0833 17.1543L27.9268 16.9322C27.8915 16.8818 27.9369 16.7707 28.0025 16.7304L28.9565 16.1701Z" fill="#C68620"/>
<path id="Vector_127" d="M26.8516 19.0219L27.3765 19.3248L28.6585 17.7248L28.5021 17.5027L27.9771 17.1998L28.1336 17.4169L26.8516 19.0219Z" fill="#E8CFAC"/>
<path id="Vector_128" d="M29.5971 16.7405L29.3295 16.584L29.0721 16.4326H29.0166C29.0116 16.4326 29.0065 16.4377 29.0015 16.4377L28.0475 16.9929C28.0374 16.9979 28.0273 17.008 28.0172 17.0131L28.0071 17.0232L28.0021 17.0282C28.0021 17.0333 27.997 17.0333 27.997 17.0383C27.997 17.0433 27.992 17.0433 27.992 17.0484C27.992 17.0534 27.9869 17.0534 27.9869 17.0585V17.0635C27.9869 17.0686 27.9819 17.0686 27.9819 17.0736C27.9819 17.0787 27.9819 17.0787 27.9769 17.0837C27.9769 17.0888 27.9769 17.0888 27.9718 17.0938C27.9718 17.0989 27.9718 17.0989 27.9668 17.1039C27.9668 17.109 27.9668 17.109 27.9617 17.114C27.9617 17.1191 27.9617 17.1191 27.9567 17.1241V17.1695C27.9567 17.1796 27.9617 17.1897 27.9668 17.1948L28.4917 17.4976C28.4866 17.4926 28.4816 17.4825 28.4816 17.4724V17.4219C28.4866 17.4017 28.4917 17.3815 28.5018 17.3664C28.5068 17.3563 28.5119 17.3462 28.5169 17.3411C28.522 17.3361 28.527 17.326 28.5371 17.321C28.5472 17.3109 28.5573 17.3058 28.5674 17.3008L29.5213 16.7456C29.5264 16.7405 29.5314 16.7405 29.5365 16.7355H29.5415C29.5466 16.7355 29.5516 16.7304 29.5567 16.7304H29.5718C29.592 16.7405 29.5971 16.7405 29.5971 16.7405C29.6021 16.7405 29.6021 16.7405 29.5971 16.7405ZM27.1743 19.7942L26.7705 19.2289L26.2456 18.926L26.6494 19.4913C26.6544 19.5014 26.6645 19.5115 26.6746 19.5166L27.1996 19.8194C27.1895 19.8144 27.1844 19.8043 27.1743 19.7942Z" fill="#E8CFAC"/>
<path id="Vector_129" d="M26.4171 18.4314C26.4121 18.4314 26.4121 18.4263 26.407 18.4263C26.402 18.4263 26.402 18.4263 26.3969 18.4213H26.3616C26.3566 18.4213 26.3515 18.4213 26.3465 18.4263C26.3465 18.4263 26.3414 18.4263 26.3414 18.4314H26.3313C26.3212 18.4364 26.3162 18.4364 26.3061 18.4415C26.296 18.4465 26.2808 18.4566 26.2708 18.4667L26.2607 18.4768L26.2506 18.4869L26.2304 18.5071L26.2203 18.5172L24.6606 20.4604L25.1856 20.7632L26.7452 18.82C26.7553 18.8049 26.7704 18.7948 26.7805 18.7796L26.7906 18.7695C26.8007 18.7594 26.8159 18.7493 26.826 18.7443L26.8562 18.7292H26.8613C26.8714 18.7241 26.8815 18.7241 26.8865 18.7241H26.9118C26.9219 18.7241 26.9269 18.7292 26.937 18.7342L26.4171 18.4314Z" fill="#E8CFAC"/>
<path id="Vector_130" d="M24.6455 20.4806C24.6405 20.4857 24.6405 20.4907 24.6354 20.4958V20.5008C24.6354 20.5059 24.6304 20.5059 24.6304 20.5109C24.6253 20.516 24.6253 20.521 24.6203 20.5261C24.6203 20.5311 24.6152 20.5362 24.6152 20.5412C24.6152 20.5463 24.6102 20.5463 24.6102 20.5513C24.6102 20.5564 24.6051 20.5614 24.6051 20.5664C24.6051 20.5715 24.6001 20.5765 24.6001 20.5816C24.6001 20.5866 24.5951 20.5917 24.5951 20.5967C24.5951 20.6018 24.59 20.6119 24.59 20.6169V20.622C24.59 20.627 24.59 20.6321 24.585 20.6371V20.7027C24.59 20.7179 24.5951 20.7381 24.6051 20.7481C24.6102 20.7582 24.6203 20.7683 24.6304 20.7734L25.1553 21.0762C25.1452 21.0712 25.1351 21.0611 25.1301 21.051C25.12 21.0358 25.1149 21.0207 25.1099 21.0056V21.0005C25.1048 20.9854 25.1048 20.9652 25.1099 20.945C25.1099 20.94 25.1099 20.9299 25.1149 20.9248V20.9198C25.12 20.9046 25.12 20.8945 25.125 20.8794C25.1301 20.8642 25.1351 20.8541 25.1402 20.839C25.1452 20.8239 25.1553 20.8138 25.1604 20.7986C25.1705 20.7835 25.1755 20.7734 25.1856 20.7633L24.6607 20.4604L24.6556 20.4655C24.6506 20.4705 24.6506 20.4756 24.6455 20.4806Z" fill="#E8CFAC"/>
<path id="Vector_131" d="M29.5367 16.7505C29.6074 16.7102 29.6528 16.7707 29.6175 16.8616L29.143 18.083C29.1279 18.1285 29.0925 18.1638 29.0622 18.184C29.032 18.2042 29.0017 18.2042 28.9815 18.1789L28.825 17.9569L27.3966 19.7335C27.3714 19.7638 27.3411 19.7891 27.3159 19.8092C27.2603 19.8446 27.2048 19.8395 27.1745 19.7991L26.7707 19.2338L25.3524 21.0004C25.3272 21.0307 25.2969 21.0559 25.2717 21.0761C25.2161 21.1115 25.1606 21.1064 25.1303 21.066C25.0849 21.0004 25.1102 20.8692 25.1909 20.7733L26.7505 18.8301C26.7758 18.7998 26.8061 18.7745 26.8313 18.7543C26.8868 18.719 26.9423 18.7241 26.9726 18.7644L27.3764 19.3297L28.6585 17.7297L28.502 17.5076C28.4667 17.4572 28.5121 17.3461 28.5777 17.3058L29.5367 16.7505Z" fill="white"/>
</g>
</g>
</svg>
