<svg width="16" height="16" viewBox="0 0 16 16" fill="none" xmlns="http://www.w3.org/2000/svg">
<g id="uiw:delete" clip-path="url(#clip0_225_1638)">
<path id="Vector" d="M7.30308 0L8.88228 0.004C9.50468 0.0792 10.0503 0.372 10.4999 0.8664C10.8671 1.2696 11.0599 1.7384 11.0711 2.2488H15.4511C15.5973 2.24965 15.7373 2.30851 15.8402 2.41245C15.9431 2.5164 16.0005 2.65694 15.9999 2.8032C16.0003 2.94932 15.9428 3.08965 15.8399 3.19343C15.737 3.2972 15.5972 3.35595 15.4511 3.3568L13.9823 3.356V12.6576C13.9823 14.692 13.2231 16 11.5495 16H4.33508C2.66148 16 1.91428 14.6992 1.91428 12.6576V3.356H0.548678C0.402834 3.35515 0.263251 3.29662 0.160422 3.1932C0.057593 3.08977 -0.000124521 2.94985 -0.00012207 2.804C-0.00012207 2.4976 0.245478 2.2504 0.548678 2.2504H4.92468C4.93588 1.8392 5.08868 1.4224 5.36788 1.0104C5.78388 0.396 6.43348 0.0592 7.30308 0ZM12.8847 3.356H3.01108V12.6576C3.01108 14.168 3.42708 14.8928 4.33508 14.8928H11.5495C12.4607 14.8928 12.8855 14.1616 12.8855 12.6576L12.8847 3.356ZM5.37268 5.072C5.67508 5.072 5.92068 5.32 5.92068 5.6256V12.0656C5.9211 12.2117 5.86357 12.3521 5.7607 12.4558C5.65782 12.5596 5.518 12.6184 5.37188 12.6192C5.2259 12.6181 5.08628 12.5593 4.98357 12.4555C4.88087 12.3518 4.82345 12.2116 4.82388 12.0656V5.6256C4.82388 5.32 5.07028 5.072 5.37268 5.072ZM7.55268 5.072C7.85668 5.072 8.10148 5.32 8.10148 5.6256V12.0656C8.1019 12.2117 8.04437 12.3521 7.9415 12.4558C7.83863 12.5596 7.6988 12.6184 7.55268 12.6192C7.4067 12.6181 7.26708 12.5593 7.16437 12.4555C7.06167 12.3518 7.00425 12.2116 7.00468 12.0656V5.6256C7.00468 5.32 7.25028 5.072 7.55268 5.072ZM9.73508 5.072C10.0375 5.072 10.2831 5.32 10.2831 5.6256V12.0656C10.2835 12.2116 10.2261 12.3518 10.1234 12.4555C10.0207 12.5593 9.88106 12.6181 9.73508 12.6192C9.58896 12.6184 9.44913 12.5596 9.34626 12.4558C9.24338 12.3521 9.18585 12.2117 9.18628 12.0656V5.6256C9.18585 5.47948 9.24338 5.33915 9.34626 5.23537C9.44913 5.1316 9.58896 5.07285 9.73508 5.072ZM7.34068 1.1056C6.82708 1.1416 6.48868 1.3168 6.27348 1.6352C6.11508 1.868 6.03588 2.0696 6.02308 2.2496L9.97348 2.2488C9.96228 2.016 9.87028 1.8112 9.69188 1.6152C9.41508 1.3112 9.10788 1.1464 8.81748 1.1072L7.34068 1.1056Z" fill="black"/>
</g>
<defs>
<clipPath id="clip0_225_1638">
<rect width="16" height="16" fill="white"/>
</clipPath>
</defs>
</svg>
