<svg width="24" height="25" viewBox="0 0 24 25" fill="none" xmlns="http://www.w3.org/2000/svg">
<g id="material-symbols:warning-outline">
<path id="Vector" d="M1 21.5L12 2.5L23 21.5H1ZM4.45 19.5H19.55L12 6.5L4.45 19.5ZM12 18.5C12.2833 18.5 12.521 18.404 12.713 18.212C12.905 18.02 13.0007 17.7827 13 17.5C12.9993 17.2173 12.9033 16.98 12.712 16.788C12.5207 16.596 12.2833 16.5 12 16.5C11.7167 16.5 11.4793 16.596 11.288 16.788C11.0967 16.98 11.0007 17.2173 11 17.5C10.9993 17.7827 11.0953 18.0203 11.288 18.213C11.4807 18.4057 11.718 18.5013 12 18.5ZM11 15.5H13V10.5H11V15.5Z" fill="#FB0000"/>
</g>
</svg>
