<svg width="24" height="24" viewBox="0 0 24 24" fill="none" xmlns="http://www.w3.org/2000/svg">
<g id="FRAME 3" clip-path="url(#clip0_110_1084)">
<g id="Clip path group">
<mask id="mask0_110_1084" style="mask-type:luminance" maskUnits="userSpaceOnUse" x="-1" y="0" width="25" height="24">
<g id="clipPath9531475129">
<path id="Vector" d="M-0.000244141 0H23.9998V24H-0.000244141V0Z" fill="white"/>
</g>
</mask>
<g mask="url(#mask0_110_1084)">
<g id="Group">
<g id="Clip path group_2">
<mask id="mask1_110_1084" style="mask-type:luminance" maskUnits="userSpaceOnUse" x="-1" y="0" width="25" height="24">
<g id="clipPath3539127378">
<path id="Vector_2" d="M-0.000244141 0H23.9998V24H-0.000244141V0Z" fill="white"/>
</g>
</mask>
<g mask="url(#mask1_110_1084)">
<g id="Group_2">
<path id="Vector_3" d="M15.5998 15H17.3998C17.6998 15 17.9998 14.7 17.9998 14.4V8.1C17.9998 7.8 17.6998 7.5 17.3998 7.5H15.5998C15.2998 7.5 14.9998 7.8 14.9998 8.1V14.4C14.9998 14.7 15.2998 15 15.5998 15ZM20.0998 15H21.8998C22.1998 15 22.4998 14.7 22.4998 14.4V3.6C22.4998 3.3 22.1998 3 21.8998 3H20.0998C19.7998 3 19.4998 3.3 19.4998 3.6V14.4C19.4998 14.7 19.7998 15 20.0998 15ZM6.59976 15H8.39976C8.69976 15 8.99976 14.7 8.99976 14.4V11.1C8.99976 10.8 8.69976 10.5 8.39976 10.5H6.59976C6.29976 10.5 5.99976 10.8 5.99976 11.1V14.4C5.99976 14.7 6.29976 15 6.59976 15ZM11.0998 15H12.8998C13.1998 15 13.4998 14.7 13.4998 14.4V5.1C13.4998 4.8 13.1998 4.5 12.8998 4.5H11.0998C10.7998 4.5 10.4998 4.8 10.4998 5.1V14.4C10.4998 14.7 10.7998 15 11.0998 15ZM23.2498 18H2.99976V3.75C2.99976 3.33562 2.66414 3 2.24976 3H0.749756C0.335381 3 -0.000244141 3.33562 -0.000244141 3.75V19.5C-0.000244141 20.3283 0.671475 21 1.49976 21H23.2498C23.6642 21 23.9998 20.6644 23.9998 20.25V18.75C23.9998 18.3356 23.6642 18 23.2498 18Z" fill="#5367FC"/>
</g>
</g>
</g>
</g>
</g>
</g>
</g>
<defs>
<clipPath id="clip0_110_1084">
<rect width="24" height="24" fill="white" transform="translate(-0.000244141)"/>
</clipPath>
</defs>
</svg>
