<svg width="27" height="30" viewBox="0 0 27 30" fill="none" xmlns="http://www.w3.org/2000/svg">
<g id="log-out-Regular">
<path id="log-out-Regular_2" d="M14.6154 28.8462C14.6154 29.1522 14.4938 29.4457 14.2774 29.662C14.061 29.8784 13.7676 30 13.4615 30H7.30769C5.37032 29.9976 3.513 29.2269 2.14307 27.8569C0.773142 26.487 0.00244258 24.6297 0 22.6923V7.30769C0.00244258 5.37032 0.773142 3.513 2.14307 2.14307C3.513 0.773142 5.37032 0.00244258 7.30769 0H13.4615C13.7676 0 14.061 0.121565 14.2774 0.337954C14.4938 0.554342 14.6154 0.847827 14.6154 1.15385C14.6154 1.45987 14.4938 1.75335 14.2774 1.96974C14.061 2.18613 13.7676 2.30769 13.4615 2.30769H7.30769C5.98211 2.30932 4.71129 2.83663 3.77396 3.77396C2.83663 4.71129 2.30932 5.98211 2.30769 7.30769V22.6923C2.30932 24.0179 2.83663 25.2887 3.77396 26.226C4.71129 27.1634 5.98211 27.6907 7.30769 27.6923H13.4615C13.7676 27.6923 14.061 27.8139 14.2774 28.0303C14.4938 28.2466 14.6154 28.5401 14.6154 28.8462ZM26.5846 14.1846L20.4308 8.03077C20.3243 7.92062 20.1969 7.83278 20.0561 7.77237C19.9153 7.71197 19.7639 7.68021 19.6107 7.67895C19.4575 7.67769 19.3056 7.70696 19.1638 7.76504C19.022 7.82312 18.8932 7.90886 18.7849 8.01725C18.6766 8.12564 18.591 8.25451 18.5331 8.39634C18.4751 8.53817 18.446 8.69012 18.4474 8.84332C18.4488 8.99653 18.4807 9.14792 18.5412 9.28867C18.6018 9.42941 18.6897 9.55669 18.8 9.66308L22.9831 13.8462H10.3846C10.0786 13.8462 9.78511 13.9677 9.56872 14.1841C9.35233 14.4005 9.23077 14.694 9.23077 15C9.23077 15.306 9.35233 15.5995 9.56872 15.8159C9.78511 16.0323 10.0786 16.1538 10.3846 16.1538H22.9831L18.8 20.3385C18.5897 20.556 18.4733 20.8474 18.4758 21.1499C18.4782 21.4525 18.5995 21.7419 18.8133 21.956C19.0271 22.17 19.3165 22.2915 19.619 22.2942C19.9215 22.297 20.2131 22.1809 20.4308 21.9708L26.5846 15.8169C26.6918 15.7098 26.7769 15.5825 26.8349 15.4425C26.893 15.3025 26.9228 15.1524 26.9228 15.0008C26.9228 14.8492 26.893 14.6991 26.8349 14.559C26.7769 14.419 26.6918 14.2918 26.5846 14.1846Z" fill="white"/>
</g>
</svg>
