<svg width="27" height="40" viewBox="0 0 27 40" fill="none" xmlns="http://www.w3.org/2000/svg">
<g id="Group 1261154219">
<path id="Vector" fill-rule="evenodd" clip-rule="evenodd" d="M5.88524 10L4.00774 13.1499C0.811176 18.5121 -0.787106 21.1931 0.382536 23.2109C1.55218 25.2288 4.70821 25.2288 11.0205 25.2288C11.9786 25.2288 12.4578 25.2288 12.7551 25.5221C13.0528 25.8155 13.0528 26.288 13.0528 27.2325V34.7018C13.0528 37.665 13.0528 39.1466 13.8013 39.3478C14.5498 39.549 15.3109 38.2722 16.8336 35.7182L22.0975 26.8879C25.2939 21.5258 26.8924 18.8447 25.7227 16.8269C24.5531 14.8091 21.3969 14.8091 15.0847 14.8091C14.1266 14.8091 13.6474 14.8091 13.3501 14.5157C13.0528 14.2224 13.0528 13.7499 13.0528 12.8053V10H5.88524Z" fill="white"/>
<path id="Star 1" d="M9.5 0L10.7154 3.28459L14 4.5L10.7154 5.71541L9.5 9L8.28459 5.71541L5 4.5L8.28459 3.28459L9.5 0Z" fill="white"/>
</g>
</svg>
