<svg width="20" height="20" viewBox="0 0 20 20" fill="none" xmlns="http://www.w3.org/2000/svg">
<g id="mage:eye-off">
<g id="Group">
<path id="Vector" d="M4.54172 14.0999C3.62408 13.23 2.90002 12.1766 2.41672 11.0082C2.33419 10.816 2.29163 10.609 2.29163 10.3999C2.29163 10.1907 2.33419 9.98374 2.41672 9.79155C3.05856 8.2302 4.13435 6.88546 5.51672 5.91655C6.82881 4.99964 8.39984 4.52658 10.0001 4.56655C11.1514 4.53764 12.2933 4.7803 13.3334 5.27488M15.4667 6.70822C16.3795 7.57724 17.1004 8.62749 17.5834 9.79155C17.6659 9.98374 17.7085 10.1907 17.7085 10.3999C17.7085 10.609 17.6659 10.816 17.5834 11.0082C16.9416 12.5696 15.8658 13.9143 14.4834 14.8832C13.1713 15.8001 11.6003 16.2732 10.0001 16.2332C8.84874 16.2621 7.7068 16.0195 6.66672 15.5249" stroke="black" stroke-width="1.25" stroke-linecap="round" stroke-linejoin="round"/>
<path id="Vector_2" d="M7.25833 11.3749C7.14146 11.0632 7.08217 10.7328 7.08333 10.3999C7.08333 9.62637 7.39062 8.8845 7.93761 8.33752C8.48459 7.79054 9.22645 7.48325 10 7.48325C10.3333 7.48158 10.6633 7.54158 10.975 7.65825M12.7417 9.42492C12.8583 9.73659 12.9183 10.0666 12.9167 10.3999C12.9167 11.1735 12.6094 11.9153 12.0624 12.4623C11.5154 13.0093 10.7735 13.3166 10 13.3166C9.66709 13.3177 9.33673 13.2585 9.025 13.1416M2.5 16.6666L15.8333 3.33325" stroke="black" stroke-width="1.25" stroke-linecap="round" stroke-linejoin="round"/>
</g>
</g>
</svg>
