<svg width="18" height="18" viewBox="0 0 18 18" fill="#000" xmlns="http://www.w3.org/2000/svg">
<path id="Vector" d="M9.22198 0.277536C9.46105 0.399412 9.55011 0.701754 9.42355 0.971285C9.31105 1.21503 9.07198 1.31582 8.8212 1.22676C8.63136 1.15879 8.53292 1.0205 8.5048 0.783785C8.45558 0.366598 8.85167 0.0900364 9.22198 0.277536ZM8.06417 0.762691C8.06417 0.889254 8.06886 1.01347 8.07589 1.03926C8.08292 1.07676 8.06652 1.08847 7.96808 1.10488C6.95792 1.27832 6.2548 1.48925 5.5212 1.83847C5.15558 2.01191 4.51339 2.40097 4.19464 2.64238C3.93917 2.83457 3.3298 3.36425 3.14933 3.55175C2.40402 4.31582 1.67042 5.56269 1.31651 6.66426C1.20167 7.01816 1.06339 7.59707 1.01886 7.91347L0.98839 8.11035L0.927452 8.08926C0.89464 8.07988 0.779796 8.07051 0.674327 8.07051C0.44464 8.07051 0.456358 8.10566 0.526671 7.65332C0.730577 6.33613 1.29542 5.00019 2.09698 3.94551C2.78136 3.04551 3.46339 2.40097 4.32589 1.84082C5.11105 1.33457 5.79542 1.02285 6.6837 0.772066C6.97902 0.687691 7.77355 0.540035 7.94464 0.537691L8.06183 0.535347L8.06417 0.762691ZM10.4525 0.608004C10.947 0.68066 11.2353 0.755661 11.8939 0.985348C12.4259 1.1705 13.3306 1.64863 13.8556 2.01894C14.8821 2.74785 15.7282 3.66426 16.3634 4.73535C16.6353 5.19707 16.9282 5.83926 17.097 6.35488C17.2587 6.84472 17.4157 7.55019 17.4532 7.94629L17.4626 8.03535H17.3079C17.2071 8.03535 17.1204 8.05175 17.0548 8.08222C16.9376 8.13613 16.9446 8.15019 16.9095 7.84785C16.79 6.84238 16.3048 5.60957 15.6439 4.61816C15.3251 4.14004 15.154 3.93613 14.6126 3.39238C14.247 3.02207 13.8509 2.68691 13.511 2.45722C13.1056 2.18301 12.2665 1.72128 11.9642 1.6041C11.3501 1.36972 10.8251 1.23144 10.2978 1.16582C10.0728 1.13769 9.88292 1.10722 9.87355 1.10019C9.84542 1.07441 9.9087 0.933786 9.94855 0.933786C9.97198 0.933786 9.97433 0.926754 9.95792 0.915035C9.94151 0.905661 9.92745 0.818941 9.92276 0.720503L9.91339 0.542379L10.0189 0.551754C10.0775 0.556442 10.272 0.582222 10.4525 0.608004ZM6.31105 2.41504L6.31573 2.8041L6.25245 2.81816C6.21495 2.82519 6.14464 2.82285 6.09308 2.81347L5.99933 2.79707L5.9923 2.43847L5.98527 2.07988L6.06261 2.04707C6.1048 2.02832 6.17745 2.01426 6.22198 2.01894L6.30402 2.02363L6.31105 2.41504ZM12.304 2.25566C12.3509 2.28613 12.3579 2.3166 12.372 2.64707C12.3814 2.85566 12.379 3.01269 12.3673 3.02441C12.3556 3.03613 12.29 3.04316 12.2196 3.03847L12.0931 3.03144L12.086 2.66816C12.079 2.21348 12.0837 2.19004 12.1798 2.20879C12.222 2.21582 12.2782 2.23926 12.304 2.25566ZM10.4689 2.36582C10.6282 2.49941 10.722 2.60488 10.722 2.65176C10.722 2.66347 10.647 2.74316 10.5556 2.83222C10.4243 2.95644 10.3798 2.98691 10.3564 2.96582C10.3329 2.94238 10.3376 2.92597 10.3775 2.88379C10.429 2.82988 10.4267 2.82988 10.3048 2.89082C10.2368 2.92597 10.1876 2.96347 10.197 2.97754C10.2415 3.04785 10.1032 2.93301 9.99542 2.80879C9.8548 2.64472 9.85245 2.6166 9.98839 2.45957C10.0728 2.35879 10.2415 2.22285 10.279 2.22285C10.2907 2.22285 10.3751 2.28613 10.4689 2.36582ZM7.92355 2.38457C8.08995 2.50644 8.19073 2.65644 8.15089 2.72207C8.10401 2.80175 7.92355 2.99629 7.8837 3.00801C7.77589 3.04316 7.39386 2.77129 7.39386 2.66113C7.39386 2.56504 7.67277 2.3166 7.78058 2.3166C7.8087 2.3166 7.87433 2.34707 7.92355 2.38457ZM9.25011 2.5041C9.30636 2.57441 9.30401 2.69629 9.24542 2.75019C9.18214 2.80879 9.01808 2.82285 8.91026 2.77832C8.83058 2.74316 8.82355 2.73379 8.82355 2.64941C8.82355 2.56035 8.87745 2.483 8.96417 2.45019C9.03917 2.41972 9.20792 2.45254 9.25011 2.5041ZM4.89542 2.81347C4.90245 2.86972 4.90245 3.03613 4.89073 3.18379L4.87433 3.45332L4.75245 3.46035C4.65402 3.46504 4.62589 3.46035 4.60948 3.42519C4.58839 3.38535 4.58839 2.83691 4.60714 2.82519C4.65402 2.79707 4.83448 2.71738 4.85558 2.71738C4.86964 2.71504 4.88839 2.75957 4.89542 2.81347ZM10.347 2.99629C10.347 3.008 10.3353 3.01972 10.3212 3.01972C10.3095 3.01972 10.3048 3.008 10.3118 2.99629C10.3189 2.98222 10.3306 2.97285 10.3376 2.97285C10.3423 2.97285 10.347 2.98222 10.347 2.99629ZM6.42589 3.28222C6.47745 3.33144 6.4798 3.34785 6.4798 3.67597C6.4798 3.86582 6.46808 4.08144 6.45167 4.1541C6.41886 4.32051 6.37902 4.3416 6.12823 4.32519C5.87745 4.30644 5.88214 4.31113 5.86339 3.7955C5.8423 3.21894 5.83526 3.23066 6.14698 3.23066C6.3462 3.23066 6.37667 3.23769 6.42589 3.28222ZM13.8884 3.2916C14.0337 3.37597 14.0501 3.4416 14.0501 3.97363C14.0501 4.27597 14.0407 4.44941 14.0267 4.44941C14.015 4.44941 14.0032 4.44004 14.0032 4.42832C14.0032 4.4166 13.9728 4.42129 13.9329 4.44004C13.8157 4.49863 13.7196 4.50332 13.5814 4.45644L13.4525 4.41191L13.4407 3.83769C13.4337 3.52363 13.4337 3.25644 13.4384 3.24472C13.4548 3.20722 13.804 3.24238 13.8884 3.2916ZM12.5267 3.50254C12.5665 3.60332 12.5431 5.1455 12.5032 5.08222C12.4915 5.06113 12.461 5.06113 12.3954 5.07988C12.2689 5.11504 12.1517 5.11269 12.0345 5.07051L11.936 5.03535L11.9454 5.1291C11.9501 5.18066 11.9454 5.21347 11.9337 5.20175C11.9103 5.17832 11.8681 4.08144 11.8775 3.73457C11.8821 3.51191 11.8845 3.50019 11.9407 3.47207C11.9759 3.45332 12.0954 3.4416 12.2525 3.4416C12.5009 3.4416 12.5056 3.4416 12.5267 3.50254ZM10.8579 3.55879C10.8814 3.60332 10.886 3.69238 10.8743 3.93379C10.8673 4.10722 10.8509 4.25957 10.8392 4.27129C10.8275 4.28301 10.7712 4.28301 10.7056 4.27129L10.5931 4.25019L10.586 3.91504C10.579 3.51425 10.5907 3.48379 10.729 3.49316C10.804 3.49785 10.8321 3.51425 10.8579 3.55879ZM4.99151 3.92207C5.05011 3.97832 5.05011 3.98535 5.05011 4.36738C5.05011 4.71894 5.04542 4.75879 5.00558 4.79863C4.89777 4.90644 4.49933 4.87597 4.45245 4.75644C4.44308 4.73535 4.43839 4.54551 4.43839 4.33222C4.44308 3.85176 4.43605 3.86347 4.72667 3.86347C4.91652 3.86347 4.93995 3.86816 4.99151 3.92207ZM9.3087 4.10254C9.33214 4.12129 9.33917 4.24316 9.33917 4.56894V5.01191H9.18683H9.03448L9.03917 4.56191L9.0462 4.11191L9.1048 4.08144C9.16573 4.04863 9.25714 4.06035 9.3087 4.10254ZM3.50089 4.38847C3.51964 4.40957 3.52667 4.508 3.52198 4.67441L3.51495 4.92988L3.36964 4.93691C3.17745 4.94629 3.16573 4.92519 3.18917 4.59941L3.20558 4.35566H3.33917C3.42589 4.35566 3.48448 4.36738 3.50089 4.38847ZM6.28761 4.69785C6.3087 4.70254 6.31573 4.79394 6.31573 5.04472V5.38222L6.24308 5.408C6.13527 5.44551 6.10948 5.44082 6.0462 5.37519C5.98995 5.32129 5.98761 5.30722 5.98761 5.00254V4.68613L6.06495 4.67675C6.13526 4.66972 6.22198 4.67675 6.28761 4.69785ZM10.9564 4.68379C11.0548 4.73535 11.0665 4.92519 11.0337 5.90254C11.0196 6.32676 11.015 6.37363 10.9892 6.30097C10.9728 6.25644 10.9587 6.23535 10.9587 6.2541C10.9564 6.28222 10.9517 6.28457 10.9353 6.25644C10.9212 6.233 10.886 6.23066 10.7993 6.24238C10.715 6.2541 10.6564 6.24707 10.5931 6.22129C10.4806 6.17441 10.4314 6.17207 10.4501 6.21894C10.4689 6.2705 10.4384 6.40176 10.4126 6.37597C10.4009 6.36426 10.3868 6.0291 10.3798 5.63066C10.3751 5.23222 10.3657 4.88535 10.3587 4.85957C10.354 4.83379 10.361 4.78691 10.3775 4.7541C10.4032 4.70019 10.4243 4.69551 10.6048 4.68144C10.715 4.67441 10.8275 4.66738 10.8579 4.66504C10.8884 4.66269 10.9329 4.66972 10.9564 4.68379ZM13.8696 5.08222C13.8931 5.17363 13.879 5.77363 13.8509 5.83691C13.8251 5.89785 13.6376 5.8955 13.6048 5.83457C13.5907 5.80644 13.5814 5.61894 13.5814 5.38691V4.98613L13.715 4.99316C13.8462 5.00019 13.8485 5.00254 13.8696 5.08222ZM7.82276 5.18301C7.86026 5.20879 7.86261 5.25801 7.85792 5.63301L7.85089 6.05488L7.70558 6.06191C7.56495 6.06894 7.55792 6.0666 7.54386 6.00566C7.52042 5.9166 7.55323 5.25332 7.58136 5.19707C7.61183 5.1455 7.75948 5.13379 7.82276 5.18301ZM4.9048 5.65176L4.91183 6.01972L4.85089 6.04316C4.76183 6.07597 4.68448 6.07129 4.6423 6.0291C4.61183 5.99863 4.6048 5.92832 4.6048 5.63066V5.26738L4.75245 5.27441L4.89776 5.28144L4.9048 5.65176ZM3.5712 5.39863C3.6087 5.41738 3.64386 5.45722 3.65089 5.48535C3.67667 5.5791 3.63917 6.25176 3.60636 6.29629C3.58292 6.3291 3.53839 6.33613 3.34152 6.33613C3.01573 6.33613 3.02511 6.34785 3.01573 5.8955C3.00636 5.51113 3.02276 5.42207 3.10948 5.38691C3.1962 5.3541 3.49855 5.35879 3.5712 5.39863ZM9.4212 5.42441C9.50792 5.45957 9.51495 5.53691 9.50792 6.35957C9.50323 6.87285 9.49386 7.14238 9.47745 7.12129C9.46573 7.09785 9.44933 7.09551 9.43995 7.10957C9.39777 7.16582 9.14933 7.18222 9.03448 7.13535C8.92198 7.09082 8.89151 7.08847 8.94542 7.12832C8.98761 7.16113 8.98761 7.20097 8.94777 7.27129C8.93136 7.30175 8.91964 7.30644 8.90558 7.28769C8.87042 7.22676 8.84464 6.70879 8.85167 6.10176L8.8587 5.47129L8.9173 5.44082C8.97823 5.41035 9.35089 5.39863 9.4212 5.42441ZM12.3743 5.75019C12.3978 5.90488 12.379 6.38769 12.3485 6.41816C12.3321 6.43457 12.2782 6.45097 12.2243 6.458C12.1376 6.46972 12.1282 6.46504 12.1048 6.40879C12.0931 6.37363 12.0814 6.18613 12.0814 5.99394V5.64472H12.2196H12.3603L12.3743 5.75019ZM14.2939 6.0291C14.2564 6.07363 14.2165 6.11113 14.2071 6.11113C14.1978 6.11347 14.2235 6.07129 14.2634 6.01972C14.3056 5.96816 14.3431 5.93066 14.3501 5.93769C14.3571 5.94238 14.3314 5.98457 14.2939 6.0291ZM2.11105 6.02676C2.1298 6.01972 2.14386 6.02676 2.14386 6.04316C2.14386 6.05722 2.15323 6.06426 2.16495 6.05722C2.19073 6.04082 2.20714 6.1041 2.22823 6.28457C2.24698 6.43926 2.21886 6.48847 2.11573 6.48847C1.98917 6.48847 1.95636 6.45332 1.95636 6.31738C1.95636 6.19785 2.04542 5.9541 2.06651 6.01269C2.0712 6.0291 2.0923 6.03379 2.11105 6.02676ZM15.3157 6.1416C15.6251 6.29863 15.6603 6.75332 15.3814 6.99004C15.2009 7.14707 14.9782 7.15176 14.7673 7.00644C14.6056 6.89394 14.5845 6.85644 14.5704 6.68066C14.5517 6.41582 14.6384 6.23301 14.8282 6.13926C14.9689 6.07129 15.1775 6.07129 15.3157 6.1416ZM7.95636 6.48379C8.00558 6.52363 8.00792 6.54004 8.00792 6.93379C8.01027 7.82676 8.00323 8.1291 7.9798 8.1291C7.96808 8.1291 7.95636 8.10801 7.95636 8.08222V8.03535L7.86964 8.08222C7.75948 8.14082 7.66808 8.14082 7.53683 8.08222C7.48058 8.05644 7.43136 8.03535 7.42667 8.03535C7.42198 8.03535 7.42433 8.08457 7.42902 8.1455C7.44308 8.28379 7.40558 8.23222 7.38448 8.08222C7.37511 8.02363 7.36105 7.66269 7.35402 7.28066C7.33995 6.46738 7.33761 6.47441 7.52745 6.458C7.81573 6.43691 7.9048 6.4416 7.95636 6.48379ZM6.33917 6.54941C6.37902 6.59394 6.39777 7.00176 6.37433 7.24785L6.35792 7.42597H6.21964H6.08136V6.99707C6.08136 6.69472 6.09073 6.55879 6.10948 6.54004C6.14933 6.50019 6.30402 6.50488 6.33917 6.54941ZM3.52902 6.87519C3.53839 6.95254 3.54542 7.12832 3.54777 7.26894L3.55011 7.51972L3.48683 7.54551C3.41886 7.57129 3.27355 7.55957 3.24542 7.52676C3.23605 7.51738 3.22198 7.33691 3.21495 7.12832L3.20089 6.74863L3.27589 6.73925C3.31808 6.73457 3.38839 6.72988 3.43292 6.73222L3.51495 6.73457L3.52902 6.87519ZM10.8743 7.0955C10.8907 7.3791 10.8743 7.57832 10.8345 7.62988C10.7993 7.67441 10.6142 7.66972 10.5954 7.62285C10.5884 7.60176 10.5814 7.41191 10.5814 7.20097V6.8166H10.7196H10.8556L10.8743 7.0955ZM14.554 6.86347C14.561 6.87519 14.5564 6.9291 14.5423 6.98066C14.5142 7.08613 14.3829 7.208 14.186 7.31347C14.0314 7.39785 13.9798 7.39785 13.9798 7.31816C13.9798 7.27129 14.0267 7.21269 14.1696 7.07676C14.2751 6.97832 14.3829 6.88691 14.411 6.87051C14.472 6.83535 14.5353 6.83301 14.554 6.86347ZM2.30323 6.94316C2.40636 6.99707 2.42277 7.06738 2.42745 7.43769C2.43214 7.88301 2.42511 7.89472 2.17198 7.89472C1.97276 7.89472 1.81573 7.84082 1.7712 7.75879C1.7548 7.73066 1.74542 7.56894 1.74542 7.36738C1.74542 7.02988 1.74542 7.02519 1.80636 6.96894C1.83917 6.93847 1.88839 6.90801 1.91651 6.90097C2.00323 6.88222 2.23526 6.90801 2.30323 6.94316ZM13.6868 7.27363C13.8603 7.34394 13.9798 7.50801 13.9798 7.67207C13.9798 7.93223 13.8532 8.14316 13.6587 8.20879C13.436 8.28613 13.2954 8.25097 13.1079 8.07051C12.986 7.95332 12.9556 7.8666 12.9814 7.69316C13.0071 7.49394 13.1689 7.28066 13.3189 7.24785C13.354 7.24082 13.3939 7.23144 13.4056 7.22676C13.4431 7.21269 13.6095 7.24082 13.6868 7.27363ZM4.81339 7.64863C4.89777 7.69082 4.90011 7.71191 4.89073 8.19238L4.8837 8.56972L4.7923 8.58613C4.74073 8.59551 4.6798 8.59551 4.65167 8.58613C4.60714 8.57207 4.6048 8.55332 4.6048 8.13847C4.6048 7.73769 4.60714 7.70488 4.65167 7.66035C4.70792 7.6041 4.72667 7.60176 4.81339 7.64863ZM9.33917 8.08926C9.33917 8.37285 9.3298 8.5041 9.31105 8.52285C9.29464 8.53926 9.24073 8.55097 9.18683 8.55097C9.13292 8.55097 9.07901 8.53926 9.06261 8.52285C9.04386 8.5041 9.03448 8.37285 9.03448 8.08926V7.68379H9.18683H9.33917V8.08926ZM6.47042 7.87363C6.51261 7.92051 6.51495 7.97441 6.52198 8.70566C6.52433 9.13691 6.52198 9.48847 6.51261 9.48847C6.50323 9.48847 6.47511 9.47207 6.45167 9.44863C6.41417 9.41582 6.40011 9.41582 6.35089 9.4416C6.28761 9.47441 6.27355 9.50957 6.32276 9.5166C6.39308 9.52363 6.12823 9.54707 6.03917 9.53769C5.96652 9.53301 5.93136 9.5166 5.91261 9.4791C5.88683 9.43222 5.84698 8.04707 5.86808 7.92285C5.8798 7.84551 5.94308 7.82676 6.20089 7.82676C6.40011 7.82441 6.43058 7.8291 6.47042 7.87363ZM12.8782 8.10332C12.8782 8.17832 12.8642 8.20644 12.7892 8.27441C12.672 8.37988 12.4845 8.45488 12.4564 8.41035C12.4446 8.3916 12.4423 8.36347 12.4517 8.34707C12.4845 8.29082 12.8103 8.01191 12.8431 8.01191C12.8689 8.01191 12.8782 8.03769 12.8782 8.10332ZM12.1704 8.23222C12.2056 8.25097 12.2806 8.30488 12.3368 8.35644C12.4235 8.43379 12.44 8.46426 12.4587 8.57207C12.5056 8.87207 12.3603 9.15566 12.1118 9.24004C11.9689 9.28926 11.8564 9.28691 11.7415 9.23301C11.5493 9.14394 11.4767 9.02441 11.4556 8.75957C11.4321 8.49472 11.5493 8.29082 11.7673 8.20879C11.8728 8.17129 12.0743 8.18301 12.1704 8.23222ZM2.29386 8.36816C2.30089 8.39863 2.30792 8.56269 2.30792 8.73379C2.30792 9.03379 2.30558 9.04785 2.24933 9.10176C2.19073 9.16269 2.10167 9.17675 2.02433 9.13691C1.98214 9.11347 1.9798 9.08301 1.9798 8.7291C1.9798 8.52051 1.98683 8.34004 1.9962 8.333C2.00323 8.32363 2.0712 8.3166 2.1462 8.3166C2.26339 8.3166 2.2798 8.32129 2.29386 8.36816ZM0.911046 8.54394C0.967296 8.58379 1.03292 8.66113 1.07276 8.73847C1.13136 8.84863 1.13839 8.88613 1.12901 8.99863C1.10089 9.31269 0.955577 9.46504 0.660265 9.48379C0.517296 9.49316 0.472765 9.48613 0.393077 9.44629C0.264171 9.38066 0.193859 9.23535 0.179796 9.01035C0.170421 8.86504 0.177452 8.82519 0.229015 8.72676C0.261827 8.66113 0.308702 8.59082 0.334484 8.56738C0.475109 8.44082 0.749327 8.4291 0.911046 8.54394ZM17.5118 8.48301C17.6056 8.51816 17.7275 8.64004 17.779 8.75019C17.8728 8.9541 17.8142 9.24941 17.6501 9.38769C17.4837 9.52832 17.2962 9.54472 17.0829 9.43926C16.9423 9.36894 16.8626 9.22363 16.8439 9.00801C16.8251 8.76894 16.9446 8.56269 17.1462 8.48301C17.2235 8.45254 17.4321 8.45254 17.5118 8.48301ZM7.86261 9.05254C7.86261 9.44863 7.86027 9.46269 7.81105 9.49785C7.74308 9.54707 7.65402 9.54472 7.60011 9.49551C7.56261 9.46269 7.55792 9.41582 7.55792 9.05019V8.64472H7.71027H7.86261V9.05254ZM3.36261 8.75019L3.43292 8.78769V9.25644V9.72519L3.28761 9.71816L3.13995 9.71113L3.14698 9.2541C3.15167 8.82285 3.15636 8.79472 3.20089 8.75488C3.26183 8.70566 3.27589 8.70566 3.36261 8.75019ZM4.98917 8.99863L5.05245 9.04785L5.04777 9.85176C5.04542 10.2924 5.03605 10.6674 5.02667 10.6838C5.0173 10.7002 4.9962 10.7049 4.98214 10.6955C4.96573 10.6861 4.93995 10.6908 4.92589 10.7049C4.87433 10.7447 4.5298 10.7635 4.48292 10.726C4.44777 10.6978 4.44073 10.6088 4.42198 9.88691C4.39855 8.98926 4.39855 8.98457 4.53917 8.96582C4.58136 8.96113 4.68683 8.9541 4.7712 8.9541C4.89777 8.94941 4.93761 8.95879 4.98917 8.99863ZM11.3032 9.22363C11.3126 9.32441 11.1907 9.4416 10.9985 9.51191C10.94 9.533 10.9329 9.54472 10.9329 9.64785C10.9329 10.0275 10.6704 10.2947 10.3329 10.2549C10.204 10.2408 10.0517 10.1424 9.98839 10.0322C9.92745 9.92676 9.9087 9.69004 9.95558 9.57988C10.047 9.35722 10.2415 9.24004 10.4853 9.25879C10.6095 9.26816 10.6423 9.28222 10.7642 9.37832L10.9048 9.48847L11.0712 9.31035C11.1626 9.21191 11.2517 9.13691 11.2681 9.1416C11.2821 9.14863 11.2985 9.18379 11.3032 9.22363ZM15.3345 9.27754C15.4048 9.38301 15.4001 9.46504 15.3228 9.54004C15.1962 9.65722 15.0837 9.68301 15.0087 9.61504C14.9712 9.57988 14.9689 9.58222 14.9782 9.62207C14.9946 9.68535 14.8142 9.84472 14.4368 10.0978C13.9868 10.3978 13.8743 10.4564 13.8181 10.4283C13.7032 10.3674 13.7431 10.2432 13.9282 10.0697C14.0665 9.94082 14.1931 9.85644 14.5751 9.64316C14.8657 9.48379 14.9056 9.46738 14.9243 9.5166C14.9314 9.53301 14.9314 9.51426 14.9267 9.47676C14.9173 9.42051 14.9314 9.38769 15.0017 9.30566C15.1423 9.1416 15.236 9.13222 15.3345 9.27754ZM6.38605 9.48847C6.38605 9.50019 6.38136 9.51191 6.37667 9.51191C6.36964 9.51191 6.35792 9.50019 6.35089 9.48847C6.34386 9.47441 6.34855 9.46504 6.36027 9.46504C6.37433 9.46504 6.38605 9.47441 6.38605 9.48847ZM1.01651 9.97363C1.02823 10.0228 1.05636 10.1728 1.07745 10.3088C1.10089 10.4447 1.16417 10.7119 1.22042 10.9064C1.64698 12.383 2.26339 13.4728 3.24542 14.49C4.00714 15.2775 4.84855 15.8564 5.84698 16.2807C6.45636 16.5385 7.31417 16.7752 7.91417 16.8478L8.14152 16.876L8.11105 16.9393C8.06651 17.026 8.02667 17.2275 8.02667 17.3635V17.4807H7.93995C7.74308 17.4807 6.94151 17.3119 6.52667 17.1853C5.94542 17.0049 5.28917 16.7283 4.80402 16.4588C4.51808 16.2994 3.8548 15.8611 3.72589 15.7463C3.67433 15.6994 3.55245 15.5986 3.45636 15.5236C3.03214 15.1838 2.33839 14.4221 1.92823 13.8432C1.38214 13.0768 1.0587 12.3736 0.693077 11.176C0.648546 11.033 0.505577 10.3228 0.484484 10.1471L0.465734 9.97832L0.59464 9.99238C0.704796 10.0041 0.74464 9.99707 0.843077 9.94785C0.908702 9.91738 0.967296 9.88926 0.976671 9.88926C0.986046 9.88691 1.0048 9.92676 1.01651 9.97363ZM17.0618 9.93613C17.1532 9.97597 17.2048 9.98301 17.315 9.97363L17.4532 9.96191L17.4392 10.1166C17.4251 10.2643 17.3759 10.5174 17.2634 11.0353C17.2048 11.3049 16.9681 12.0291 16.8228 12.383C16.6821 12.7275 16.511 13.0603 16.2462 13.4916C15.0509 15.458 12.9673 16.9228 10.6985 17.3986C10.4267 17.4549 10.0892 17.5041 9.96261 17.5041C9.89464 17.5041 9.89464 17.5041 9.9087 17.3799C9.91573 17.2908 9.90636 17.2111 9.86417 17.0822C9.8337 16.9861 9.80792 16.8994 9.80792 16.8877C9.80792 16.8783 9.84776 16.8713 9.89698 16.8713C10.4267 16.8713 11.5845 16.5596 12.2829 16.2291C12.5735 16.0908 13.3353 15.6549 13.5579 15.4978C13.9564 15.2189 14.6642 14.5721 14.9642 14.2111C15.7446 13.2713 16.2579 12.3643 16.5884 11.3283C16.7735 10.7471 16.9329 10.1072 16.9329 9.93613C16.9329 9.87519 16.9259 9.87519 17.0618 9.93613ZM6.37667 10.0439C6.40245 10.215 6.37198 10.7096 6.33448 10.733C6.28761 10.7635 6.1423 10.7588 6.10948 10.726C6.09073 10.7072 6.08136 10.5807 6.08136 10.3158V9.93379H6.21964H6.36027L6.37667 10.0439ZM3.51495 10.1541L3.57355 10.2127L3.56417 11.0143C3.55714 11.7994 3.5548 11.8182 3.50792 11.8346C3.42355 11.8674 2.9923 11.8697 2.96183 11.8393C2.91964 11.7971 2.89855 10.2291 2.94308 10.1775C2.9923 10.1166 3.05792 10.1002 3.26417 10.1002C3.43995 10.0978 3.46339 10.1025 3.51495 10.1541ZM9.90167 10.2385C9.90167 10.3111 9.84542 10.3697 9.67902 10.4682C9.46808 10.5924 9.36026 10.583 9.43761 10.4447C9.47745 10.3721 9.68605 10.1799 9.77511 10.133C9.83605 10.1002 9.84542 10.1025 9.87355 10.1377C9.88761 10.1588 9.90167 10.2057 9.90167 10.2385ZM9.23136 10.4588C9.3462 10.5385 9.36261 10.5596 9.3837 10.6627C9.46339 11.0283 9.35792 11.2674 9.07198 11.3752C8.90323 11.4385 8.73683 11.408 8.60089 11.2885C8.45792 11.1643 8.42276 11.0846 8.42042 10.9088C8.42042 10.6908 8.53058 10.4963 8.71105 10.4049C8.87042 10.3228 9.06495 10.3439 9.23136 10.4588ZM13.2368 10.3814C13.3118 10.4213 13.4407 10.5455 13.4782 10.6182C13.5157 10.6885 13.5228 10.8643 13.49 10.9463C13.4384 11.0846 13.1993 11.2439 13.047 11.2463C12.8642 11.2463 12.6603 11.0939 12.6251 10.9275C12.5829 10.733 12.679 10.4986 12.8384 10.4025C12.9228 10.3486 13.1525 10.3393 13.2368 10.3814ZM12.2454 11.1807L12.2735 11.2814L12.1564 11.3893C11.915 11.6119 11.5798 11.7877 11.4814 11.7408C11.4134 11.7103 11.3454 11.6096 11.3642 11.5627C11.3946 11.4783 12.0626 11.0963 12.2009 11.0846C12.2079 11.0822 12.229 11.1268 12.2454 11.1807ZM4.89308 11.5369C4.90245 11.7502 4.90245 11.94 4.89542 11.9588C4.87667 12.008 4.7548 12.0455 4.68917 12.0197C4.63995 12.001 4.63527 11.9822 4.6212 11.7478C4.60011 11.4338 4.60011 11.2369 4.61886 11.19C4.63058 11.1619 4.66573 11.1525 4.7548 11.1525H4.87901L4.89308 11.5369ZM8.22823 11.1924C8.2798 11.2627 8.26573 11.3072 8.15323 11.408C7.99386 11.5557 7.78761 11.626 7.7548 11.5416C7.7337 11.4877 7.7712 11.4432 7.95636 11.2932C8.1462 11.1432 8.17901 11.1291 8.22823 11.1924ZM7.43605 11.326C7.54386 11.3846 7.67745 11.5393 7.70089 11.6353C7.75245 11.8627 7.71495 12.0619 7.59308 12.1908C7.39386 12.3994 7.15011 12.4135 6.93448 12.2236C6.79386 12.0994 6.73995 11.9799 6.73761 11.7947C6.73761 11.6705 6.74933 11.6353 6.81495 11.5369C6.95089 11.333 7.25558 11.2322 7.43605 11.326ZM15.1985 11.3705C15.3228 11.4314 15.3298 11.483 15.3368 12.2752L15.3415 13.0064L15.2689 13.1353C15.2267 13.2057 15.1845 13.2572 15.1728 13.2478C15.161 13.2408 15.154 13.2455 15.1564 13.2549C15.161 13.2666 15.0907 13.3814 14.9993 13.508L14.8353 13.74L14.8189 13.0275C14.8095 12.6338 14.8071 12.1182 14.8142 11.8814C14.8282 11.4689 14.8306 11.4478 14.8845 11.3939C14.9454 11.333 15.1001 11.3213 15.1985 11.3705ZM10.9048 11.7994C11.0056 11.865 11.0525 11.9705 11.0454 12.1252C11.0384 12.2541 11.0337 12.2682 10.9564 12.3197C10.736 12.4697 10.415 12.2494 10.4876 11.9986C10.5509 11.776 10.7337 11.6893 10.9048 11.7994ZM13.647 12.2307C13.7431 12.2893 13.8017 12.4158 13.7712 12.4955C13.7454 12.5635 13.6423 12.6478 13.5626 12.6689C13.49 12.6853 13.3423 12.6408 13.2907 12.5846C13.2673 12.5588 13.2439 12.4978 13.2368 12.4486C13.2087 12.2424 13.4548 12.1135 13.647 12.2307ZM3.43292 12.676V13.0978L3.35323 13.1377C3.27823 13.1728 3.26652 13.1728 3.21261 13.1353C3.15636 13.1002 3.14698 13.0791 3.14698 12.9924C3.14698 12.9736 3.14698 12.7978 3.14933 12.6057L3.15167 12.2541H3.2923H3.43292V12.676ZM6.63214 12.301C6.70245 12.3783 6.66027 12.451 6.44933 12.6103C6.34386 12.69 6.13058 12.8564 5.97589 12.976C5.8212 13.0978 5.65714 13.215 5.61261 13.2385C5.49777 13.2947 5.4087 13.3135 5.38995 13.283C5.34542 13.2127 5.74386 12.8096 6.06964 12.5963C6.18683 12.5189 6.33683 12.4111 6.4048 12.3549C6.54777 12.2424 6.5712 12.2353 6.63214 12.301ZM10.2485 12.3525C10.2907 12.3947 10.2814 12.5072 10.2345 12.5541C10.1103 12.6783 9.44933 13.0744 9.3673 13.0744C9.33683 13.0744 9.29698 13.0064 9.26886 12.9057C9.25011 12.8447 9.25714 12.833 9.36964 12.7486C9.58995 12.5822 10.0821 12.3268 10.1853 12.3244C10.204 12.3244 10.2321 12.3361 10.2485 12.3525ZM8.88917 13.0275C8.98058 13.0838 9.06964 13.2596 9.04855 13.3463C9.0298 13.4189 8.94308 13.4728 8.82589 13.4893C8.73917 13.501 8.72276 13.4939 8.63605 13.4072C8.57745 13.3486 8.5423 13.2924 8.5423 13.2572C8.5423 13.1494 8.6923 12.983 8.78839 12.9807C8.80245 12.9807 8.84698 13.0018 8.88917 13.0275ZM12.236 13.0838C12.3767 13.2244 12.3345 13.4002 12.1446 13.4705C11.9501 13.5455 11.7368 13.3486 11.8001 13.1541C11.8353 13.0463 11.9056 13.0041 12.0415 13.0041C12.14 13.0041 12.1681 13.0158 12.236 13.0838ZM13.6821 13.1424C13.7923 13.1846 13.7993 13.2478 13.7853 14.0658C13.7759 14.4807 13.7712 14.8228 13.7689 14.8228C13.7665 14.8369 13.6751 14.8463 13.6681 14.8346C13.6634 14.8275 13.6634 14.8346 13.6657 14.8486C13.6704 14.865 13.654 14.8885 13.6282 14.9025C13.572 14.933 13.5509 14.933 13.5696 14.9025C13.579 14.8885 13.5767 14.8791 13.565 14.8814C13.5017 14.8932 13.4407 14.8744 13.4407 14.8439C13.4407 14.8252 13.4314 14.8088 13.4196 14.8088C13.3634 14.8088 13.3235 14.8416 13.3235 14.8885C13.3212 14.933 13.3189 14.933 13.2978 14.8978C13.272 14.851 13.2368 13.3275 13.2626 13.2314C13.272 13.1869 13.3001 13.1635 13.354 13.1471C13.4548 13.1189 13.6118 13.1166 13.6821 13.1424ZM5.12277 13.2807C5.47433 13.4635 5.53058 13.8947 5.23292 14.1291C4.93292 14.3682 4.59308 14.2978 4.44308 13.965C4.37745 13.8244 4.3798 13.6674 4.45011 13.515C4.57667 13.2291 4.8462 13.1353 5.12277 13.2807ZM10.6892 13.7564C10.8462 13.8525 10.8626 13.9978 10.7314 14.1197C10.6634 14.1853 10.6306 14.1994 10.5462 14.1994C10.3517 14.1994 10.2251 14.0143 10.3095 13.8525C10.3868 13.7049 10.5415 13.665 10.6892 13.7564ZM12.2595 13.9955L12.3228 14.0494L12.3181 14.7291C12.3157 15.4416 12.2993 15.7228 12.2665 15.6408C12.2501 15.5963 12.2478 15.5963 12.2478 15.6432C12.2454 15.6947 12.161 15.7369 12.147 15.6947C12.1423 15.683 12.0907 15.69 12.0251 15.7111C11.9618 15.7322 11.8915 15.7439 11.8681 15.7393C11.8306 15.7299 11.8235 15.7416 11.8235 15.8283C11.8235 15.8869 11.8353 15.9338 11.8517 15.9385C11.8681 15.9455 11.8657 15.9549 11.84 15.9643C11.8025 15.9783 11.8001 15.9385 11.7978 15.4697C11.7954 15.1908 11.7907 14.7525 11.786 14.4971C11.779 13.9346 11.7767 13.9416 12.0321 13.9416C12.1704 13.9416 12.2056 13.951 12.2595 13.9955ZM7.7548 14.1549C7.83683 14.2205 7.84152 14.3682 7.76417 14.4197C7.62589 14.5088 7.45714 14.4783 7.39855 14.3541C7.36105 14.2814 7.39386 14.1689 7.46183 14.1291C7.5298 14.0893 7.68917 14.1033 7.7548 14.1549ZM10.7501 14.7385L10.8204 14.8111L10.811 15.4299C10.8064 15.7697 10.797 16.0557 10.7876 16.0627C10.7806 16.0697 10.6728 16.0885 10.5485 16.1025C10.4267 16.1166 10.3282 16.1353 10.3329 16.1424C10.3376 16.1494 10.3329 16.2033 10.3259 16.2619C10.3165 16.3205 10.3025 16.0135 10.2931 15.5799C10.2837 15.1463 10.2814 14.7736 10.2907 14.7549C10.3095 14.7033 10.4056 14.6728 10.5532 14.6705C10.6634 14.6682 10.6868 14.6775 10.7501 14.7385ZM9.23839 14.7502C9.30402 14.7971 9.34855 14.9518 9.3298 15.076C9.32276 15.1299 9.31339 15.4486 9.31105 15.7885C9.3087 16.3416 9.30401 16.4025 9.2712 16.3885C9.25011 16.3791 9.1423 16.3674 9.0298 16.3603L8.82355 16.351V15.5846C8.82355 15.165 8.83292 14.8088 8.8423 14.7924C8.89152 14.715 9.15167 14.6893 9.23839 14.7502ZM7.74542 14.9377C7.87667 15.0057 7.88136 15.0385 7.85792 15.7346C7.8462 16.0814 7.83214 16.3697 7.82745 16.3744C7.82277 16.3791 7.77355 16.3721 7.7173 16.358C7.6423 16.3393 7.63526 16.3346 7.69386 16.3416C7.7548 16.3463 7.76886 16.3393 7.76886 16.3018C7.76886 16.2666 7.75714 16.2596 7.71027 16.2666C7.67042 16.276 7.65167 16.2689 7.65167 16.2478C7.65167 16.2291 7.63058 16.215 7.6048 16.215C7.57902 16.215 7.55792 16.201 7.55792 16.1822C7.55792 16.1635 7.54386 16.1447 7.5298 16.1377C7.51339 16.133 7.55792 16.1213 7.62823 16.1096C7.77355 16.0885 7.7548 16.0814 7.5298 16.0697L7.37042 16.0603L7.36808 16.133C7.36808 16.1705 7.36105 16.2221 7.35167 16.2432C7.3423 16.2643 7.33292 16.0064 7.32823 15.6666C7.3212 15.076 7.32355 15.0502 7.37042 14.9916C7.44073 14.9002 7.62589 14.8744 7.74542 14.9377ZM13.3048 15.165C13.2884 15.1814 13.2767 15.1838 13.2767 15.1697C13.2767 15.1369 13.3048 15.1088 13.3212 15.1252C13.3259 15.1322 13.3189 15.151 13.3048 15.165ZM6.2923 15.2189C6.33214 15.2564 6.33917 15.2916 6.33917 15.4932C6.33917 15.6385 6.3298 15.7228 6.31339 15.7228C6.30167 15.7228 6.24073 15.6994 6.1798 15.6713C6.05323 15.615 5.94308 15.5986 5.90089 15.6338C5.85401 15.6713 5.86339 15.8096 5.91261 15.8377C5.9337 15.8518 5.94073 15.8635 5.92902 15.8635C5.86339 15.8635 5.84698 15.8002 5.84698 15.5471C5.84698 15.1955 5.87745 15.1557 6.13526 15.1697C6.20089 15.1744 6.26417 15.1932 6.2923 15.2189ZM7.55792 16.3088C7.61417 16.3275 7.61417 16.3275 7.5462 16.3275C7.5087 16.3275 7.45011 16.3182 7.4173 16.3088C7.36105 16.29 7.36105 16.29 7.42902 16.29C7.46886 16.29 7.52511 16.2994 7.55792 16.3088ZM10.4642 16.3463C10.4642 16.351 10.4384 16.3557 10.4056 16.3557C10.3728 16.3557 10.347 16.3463 10.347 16.3346C10.347 16.3252 10.3728 16.3205 10.4056 16.3275C10.4384 16.3322 10.4642 16.3416 10.4642 16.3463ZM10.5978 16.3228C10.5907 16.3299 10.5696 16.3322 10.5532 16.3252C10.5345 16.3182 10.5415 16.3111 10.5673 16.3111C10.5931 16.3088 10.6071 16.3158 10.5978 16.3228ZM9.20558 16.7916C9.3673 16.8736 9.45167 17.0072 9.47276 17.2111C9.4962 17.4408 9.39073 17.6353 9.18917 17.7291C9.04386 17.7971 8.95714 17.7994 8.79308 17.7385C8.58214 17.6588 8.49542 17.5205 8.49542 17.2603C8.49542 16.9275 8.71808 16.7119 9.0298 16.7424C9.0837 16.7494 9.16339 16.7705 9.20558 16.7916Z" fill="#000"/>
</svg>
