<svg width="21" height="21" viewBox="0 0 21 21" fill="#000" xmlns="http://www.w3.org/2000/svg">
<g id="Group">
<path id="Vector" d="M9.02343 0.986832C7.49062 0.996206 6.84608 1.00793 6.76171 1.02668C5.85233 1.2423 5.15858 1.85402 4.93358 2.63214C4.79999 3.09621 4.80702 2.77511 4.80468 8.67199C4.80233 13.5353 4.80468 14.1165 4.83749 14.2759C4.88905 14.5173 4.97577 14.7657 5.08358 14.9767C5.1328 15.0728 5.16796 15.1689 5.16327 15.1876C5.1539 15.2157 5.15624 15.2157 5.17499 15.1923C5.1914 15.1689 5.21249 15.1876 5.26405 15.2673C5.30155 15.3259 5.33905 15.3751 5.35077 15.3751C5.36015 15.3751 5.36718 15.3892 5.36718 15.4056C5.36718 15.422 5.38827 15.4478 5.41405 15.4642C5.43983 15.4806 5.4539 15.5064 5.44687 15.5275C5.43749 15.5509 5.44218 15.5579 5.46562 15.5509C5.48202 15.5439 5.51718 15.5532 5.54296 15.572C5.56874 15.5931 5.57577 15.6095 5.56171 15.6095C5.5453 15.6095 5.53124 15.6212 5.53124 15.6353C5.53124 15.6493 5.54999 15.654 5.57577 15.6446C5.62499 15.6306 5.68358 15.6868 5.6578 15.729C5.64608 15.7478 5.65077 15.7501 5.66952 15.7384C5.71171 15.715 5.81718 15.7759 5.80077 15.8134C5.79608 15.8321 5.80077 15.8392 5.81249 15.8321C5.84765 15.8111 5.92968 15.8415 5.92265 15.8743C5.9203 15.8907 5.93671 15.9001 5.9578 15.9001C5.98124 15.8978 5.9953 15.9071 5.99296 15.9236C5.99062 15.9376 6.00702 15.947 6.03046 15.9423C6.0539 15.9376 6.17108 15.9751 6.28827 16.0267C6.70077 16.2025 6.68905 16.2001 8.82421 16.2071C10.125 16.2095 10.7391 16.2189 10.7719 16.2376C10.8047 16.254 10.8703 16.2564 10.9805 16.24C11.1422 16.2212 11.6437 16.2095 12.668 16.2071C13.0195 16.2071 13.2375 16.2165 13.3523 16.24C13.5023 16.2681 13.5422 16.2681 13.7039 16.2353C13.8656 16.2001 14.1351 16.1954 16.0055 16.1954C18.382 16.1931 18.2719 16.2001 18.7359 16.022C19.0406 15.9025 19.2305 15.7946 19.425 15.6259C19.582 15.4876 19.8023 15.2345 19.9148 15.0587C20.0226 14.89 20.1445 14.5548 20.2055 14.2712L20.2547 14.0275L20.2617 8.95324C20.2641 6.16183 20.257 3.67746 20.2476 3.43371C20.2289 2.96496 20.1797 2.70246 20.0531 2.38605C19.8445 1.86808 19.3453 1.3923 18.7758 1.16964C18.3328 0.996206 18.3797 1.00089 16.6289 0.991519C13.1133 0.975113 11.0601 0.972769 9.02343 0.986832ZM10.882 1.07121C10.8258 1.07589 10.7367 1.07589 10.6828 1.07121C10.6266 1.06652 10.6711 1.06183 10.7812 1.06183C10.8914 1.06183 10.9359 1.06652 10.882 1.07121ZM11.3859 1.09464C11.3625 1.09933 11.325 1.09933 11.3039 1.09464C11.2805 1.08761 11.2992 1.08292 11.3437 1.08292C11.3883 1.08292 11.407 1.08761 11.3859 1.09464ZM18.1289 2.02277C18.6891 2.18917 19.0383 2.54074 19.2047 3.10324C19.2516 3.26964 19.2539 3.27199 19.2586 8.5548C19.268 14.3111 19.275 13.9876 19.1367 14.3228C19.0617 14.5103 18.8555 14.7798 18.6914 14.9064C18.5461 15.0189 18.2883 15.1267 18.082 15.1595C17.9906 15.1759 16.057 15.1829 12.457 15.1806L6.97265 15.1759L6.80858 15.1196C6.28124 14.9439 5.87812 14.447 5.81483 13.8939C5.80546 13.8001 5.79843 11.3978 5.80312 8.55246C5.81015 2.8548 5.79608 3.31886 5.95312 2.91339C6.07968 2.58527 6.24608 2.39074 6.56718 2.19621C6.75702 2.08136 6.9703 2.01574 7.21874 1.99699C7.3289 1.98761 9.79687 1.98058 12.7031 1.98058C17.6859 1.98292 17.9953 1.98527 18.1289 2.02277ZM19.9172 2.53371C19.9101 2.55246 19.9008 2.54074 19.8914 2.51027C19.882 2.47043 19.8844 2.46105 19.9031 2.4798C19.9148 2.49152 19.9219 2.5173 19.9172 2.53371Z" fill="#000"/>
<path id="Vector_2" d="M16.1039 2.58682C16.0007 2.64307 15.9867 2.70635 15.9843 3.0626V3.39776H15.8414C15.7148 3.39776 15.6914 3.40479 15.6281 3.47042L15.5554 3.54073L15.5742 3.79151C15.5835 3.92979 15.5953 4.28604 15.5976 4.58135C15.6 4.93995 15.6117 5.13917 15.6281 5.17198C15.675 5.25635 15.7523 5.2962 15.8718 5.2962H15.9843V5.88917C15.9843 6.53604 15.9867 6.54776 16.125 6.62042C16.2117 6.66495 16.2796 6.63682 16.357 6.52667C16.4109 6.44698 16.4109 6.44229 16.4015 5.87042L16.3945 5.2962H16.5093C16.6125 5.2962 16.6335 5.28682 16.725 5.19307L16.8281 5.09229V4.32823C16.8281 3.89932 16.8187 3.53839 16.8046 3.50557C16.7718 3.41651 16.6546 3.36729 16.5187 3.3837L16.4062 3.4001L16.4039 3.22901C16.4039 3.13526 16.3945 2.96417 16.3875 2.85167C16.3734 2.6712 16.364 2.63604 16.3148 2.59854C16.2515 2.54698 16.1835 2.54229 16.1039 2.58682Z" fill="#f2f2f2"/>
<path id="Vector_3" d="M9.00156 2.58682C8.89844 2.64307 8.88437 2.70635 8.88203 3.0626V3.39776H8.73906C8.6125 3.39776 8.58906 3.40479 8.52578 3.47042L8.45312 3.54073L8.47187 3.79151C8.48125 3.92979 8.49297 4.28604 8.49531 4.58135C8.49766 4.93995 8.50937 5.13917 8.52578 5.17198C8.57266 5.25635 8.65 5.2962 8.76953 5.2962H8.88203V5.88917C8.88203 6.53604 8.88437 6.54776 9.02266 6.62042C9.10937 6.66495 9.17734 6.63682 9.25469 6.52667C9.30859 6.44698 9.30859 6.44229 9.29922 5.87042L9.29219 5.2962H9.40703C9.51016 5.2962 9.53125 5.28682 9.62266 5.19307L9.72578 5.09229V4.32823C9.72578 3.89932 9.71641 3.53839 9.70234 3.50557C9.66953 3.41651 9.55234 3.36729 9.41641 3.3837L9.30391 3.4001L9.30156 3.22901C9.30156 3.13526 9.29219 2.96417 9.28516 2.85167C9.27109 2.6712 9.26172 2.63604 9.2125 2.59854C9.14922 2.54698 9.08125 2.54229 9.00156 2.58682Z" fill="#f2f2f2"/>
<path id="Vector_4" d="M13.0289 2.59688C12.9961 2.60156 12.9281 2.64609 12.8766 2.69766L12.7852 2.79141L12.7945 8.55C12.7992 11.7164 12.8109 14.332 12.8227 14.3602C12.832 14.3859 12.8813 14.4398 12.9281 14.4773C13.0125 14.5406 13.0289 14.543 13.2563 14.543C13.4906 14.543 13.4977 14.5406 13.5703 14.4727C13.7156 14.3344 13.7063 14.5078 13.7203 11.7281C13.7273 10.3242 13.7391 9.13594 13.7484 9.08906C13.7578 9.03047 13.7789 8.99766 13.8094 8.98594C13.8984 8.95781 16.4859 8.92031 16.5773 8.94609L16.6406 8.96484L16.5 9.12422C16.4227 9.21094 16.3406 9.31641 16.3195 9.35859C16.2398 9.51094 16.2891 9.77578 16.4227 9.89531C16.5609 10.0219 16.8703 10.0734 16.9945 9.98906C17.0273 9.96797 17.3719 9.63281 17.7586 9.24609C18.5367 8.47031 18.5344 8.47266 18.457 8.27812C18.4289 8.21016 18.3445 8.11406 18.1688 7.95234C18.0305 7.82578 17.7211 7.53047 17.4797 7.29609C17.2406 7.05937 17.0156 6.85781 16.9805 6.84375C16.9477 6.83203 16.8563 6.82031 16.7789 6.82031C16.4883 6.82031 16.2891 7.01719 16.2891 7.30078C16.2891 7.44141 16.3336 7.52578 16.5094 7.71094L16.6523 7.86328L16.4297 7.87734C16.1461 7.89375 15.0539 7.85859 14.8805 7.82812C14.7891 7.81172 14.7281 7.81172 14.6859 7.82812C14.6508 7.83984 14.4328 7.85156 14.2031 7.85156C13.807 7.85156 13.7813 7.84922 13.7578 7.80469C13.7414 7.77422 13.7297 6.96328 13.7227 5.27109L13.7133 2.78203L13.65 2.71641C13.6172 2.68125 13.5609 2.64141 13.5258 2.62734C13.4648 2.60391 13.1414 2.58281 13.0289 2.59688Z" fill="#000"/>
<path id="Vector_5" d="M11.625 2.64364C11.5805 2.66708 11.5195 2.72099 11.4938 2.76083L11.4422 2.83583V4.8913C11.4422 7.03349 11.4281 7.76942 11.3836 7.82567C11.3625 7.85145 11.2289 7.85614 10.6992 7.8538C10.3383 7.85145 9.69142 7.85614 9.26486 7.86552C8.82657 7.87255 8.48439 7.87255 8.48439 7.86083C8.48439 7.82802 8.5547 7.73427 8.6672 7.61708C8.72111 7.55849 8.78204 7.4788 8.80079 7.43661C8.88751 7.2538 8.81017 7.00302 8.6297 6.88817C8.54064 6.83192 8.49611 6.8202 8.38126 6.8202C8.10236 6.8202 8.10939 6.81552 7.43439 7.48583C6.75001 8.16317 6.65626 8.27333 6.63986 8.42099C6.62579 8.54989 6.71017 8.68114 6.9422 8.88505C7.03595 8.96708 7.30314 9.22489 7.53517 9.45927C7.98986 9.9163 8.13282 10.0288 8.27579 10.0475C8.45861 10.0733 8.70236 9.91864 8.79611 9.72177C8.84767 9.61161 8.84767 9.41474 8.79611 9.3327C8.77267 9.29755 8.69532 9.20145 8.62032 9.11942C8.54767 9.03505 8.49142 8.96005 8.49845 8.95067C8.50782 8.93427 9.38204 8.93895 10.8984 8.96239L11.3789 8.96942L11.3953 9.13114C11.4234 9.40302 11.461 11.8968 11.4539 13.1413C11.4492 14.2968 11.4492 14.3179 11.4985 14.3811C11.5969 14.5147 11.6602 14.5429 11.8828 14.5499C12.1242 14.5616 12.225 14.5265 12.3235 14.3952L12.3867 14.3132L12.3797 8.56864C12.375 4.72724 12.3656 2.8077 12.3492 2.77724C12.3375 2.75145 12.2883 2.70458 12.2414 2.67177C12.1664 2.6202 12.1266 2.61317 11.932 2.60614C11.7469 2.59911 11.693 2.60614 11.625 2.64364Z" fill="#000"/>
<path id="Vector_6" d="M8.24529 7.10858C8.15388 7.16249 8.11873 7.2492 8.17029 7.29139C8.21482 7.32889 8.36482 7.33124 8.39529 7.29608C8.40935 7.27967 8.43513 7.26561 8.45154 7.26561C8.47263 7.26561 8.48435 7.23749 8.48435 7.18827C8.48435 7.04764 8.39763 7.01717 8.24529 7.10858Z" fill="#000"/>
<path id="Vector_7" d="M14.6226 2.80164C14.5242 2.85554 14.5031 2.94226 14.5125 3.23992C14.5148 3.38523 14.5171 3.63835 14.5148 3.80242L14.5078 4.10242H14.414C14.2921 4.10242 14.1679 4.15398 14.1328 4.2196C14.114 4.25476 14.1046 4.49382 14.1046 5.00945L14.1023 5.74773L14.1656 5.80867C14.2125 5.85789 14.257 5.87429 14.3625 5.88367L14.496 5.89539L14.5101 6.26804L14.5218 6.6407L14.5968 6.70632C14.7 6.79773 14.789 6.79539 14.8687 6.70164C14.9296 6.63132 14.9296 6.62429 14.9296 6.24695V5.86492L15.0585 5.85554C15.1406 5.84851 15.2062 5.82742 15.2367 5.79929C15.3445 5.70554 15.3515 5.6446 15.3515 4.93914C15.3515 4.29929 15.3492 4.27117 15.3023 4.21023C15.2343 4.12351 15.1359 4.07898 15.014 4.07898H14.9109L14.9203 3.4696L14.932 2.86023L14.8546 2.81335C14.7632 2.75945 14.707 2.75476 14.6226 2.80164Z" fill="#000"/>
<path id="Vector_8" d="M7.52031 2.80164C7.42188 2.85554 7.40078 2.94226 7.41016 3.23992C7.4125 3.38523 7.41484 3.63835 7.4125 3.80242L7.40547 4.10242H7.31172C7.18984 4.10242 7.06562 4.15398 7.03047 4.2196C7.01172 4.25476 7.00234 4.49382 7.00234 5.00945L7 5.74773L7.06328 5.80867C7.11016 5.85789 7.15469 5.87429 7.26016 5.88367L7.39375 5.89539L7.40781 6.26804L7.41953 6.6407L7.49453 6.70632C7.59766 6.79773 7.68672 6.79539 7.76641 6.70164C7.82734 6.63132 7.82734 6.62429 7.82734 6.24695V5.86492L7.95625 5.85554C8.03828 5.84851 8.10391 5.82742 8.13437 5.79929C8.24219 5.70554 8.24922 5.6446 8.24922 4.93914C8.24922 4.29929 8.24687 4.27117 8.2 4.21023C8.13203 4.12351 8.03359 4.07898 7.91172 4.07898H7.80859L7.81797 3.4696L7.82969 2.86023L7.75234 2.81335C7.66094 2.75945 7.60469 2.75476 7.52031 2.80164Z" fill="#000"/>
<path id="Vector_9" d="M17.5641 2.86804L17.4844 2.94772V3.58288V4.21804H17.3531C17.2359 4.21804 17.2148 4.22507 17.1422 4.29772L17.0625 4.37741V5.04772V5.71569L17.1352 5.79772C17.1984 5.87038 17.2195 5.87976 17.3391 5.88679L17.4727 5.89382L17.4844 6.27116C17.4961 6.67663 17.5031 6.69772 17.6297 6.76335C17.7141 6.80788 17.7703 6.79147 17.8477 6.70007C17.9039 6.62976 17.9063 6.62038 17.9063 6.2571C17.9063 5.83991 17.8969 5.85866 18.1078 5.85866C18.1898 5.85866 18.218 5.8446 18.2789 5.77663L18.3516 5.69226V5.036C18.3516 4.63054 18.3422 4.36101 18.3281 4.33288C18.2859 4.25554 18.1688 4.211 18.0305 4.22272L17.9039 4.23444L17.9086 3.56647L17.9133 2.89616L17.85 2.84225C17.7563 2.76257 17.6602 2.77194 17.5641 2.86804Z" fill="#000"/>
<path id="Vector_10" d="M10.4618 2.86804L10.3821 2.94772V3.58288V4.21804H10.2508C10.1336 4.21804 10.1125 4.22507 10.0399 4.29772L9.96021 4.37741V5.04772V5.71569L10.0329 5.79772C10.0961 5.87038 10.1172 5.87976 10.2368 5.88679L10.3704 5.89382L10.3821 6.27116C10.3938 6.67663 10.4008 6.69772 10.5274 6.76335C10.6118 6.80788 10.668 6.79147 10.7454 6.70007C10.8016 6.62976 10.804 6.62038 10.804 6.2571C10.804 5.83991 10.7946 5.85866 11.0055 5.85866C11.0875 5.85866 11.1157 5.8446 11.1766 5.77663L11.2493 5.69226V5.036C11.2493 4.63054 11.2399 4.36101 11.2258 4.33288C11.1836 4.25554 11.0665 4.211 10.9282 4.22272L10.8016 4.23444L10.8063 3.56647L10.811 2.89616L10.7477 2.84225C10.654 2.76257 10.5579 2.77194 10.4618 2.86804Z" fill="#000"/>
<path id="Vector_11" d="M10.5234 4.42979C10.5234 4.46025 10.5937 4.46025 10.6406 4.42979C10.6664 4.41338 10.657 4.40635 10.6008 4.40635C10.5586 4.40635 10.5234 4.41572 10.5234 4.42979Z" fill="#000"/>
<path id="Vector_12" d="M10.9383 4.45549C10.9547 4.47189 10.9734 4.47893 10.9805 4.47189C10.9875 4.46486 10.9758 4.4508 10.9523 4.44377C10.9195 4.42971 10.9172 4.43205 10.9383 4.45549Z" fill="#000"/>
<path id="Vector_13" d="M7.61253 4.704C7.62659 4.70869 7.65471 4.70869 7.67112 4.704C7.68518 4.69697 7.67346 4.69229 7.64065 4.69229C7.60784 4.69229 7.59612 4.69697 7.61253 4.704Z" fill="#000"/>
<path id="Vector_14" d="M7.39686 10.1132C7.27264 10.1788 7.26795 10.1976 7.26561 10.6335C7.26561 11.0835 7.27733 11.0554 7.09686 11.0578C7.02186 11.0578 6.93279 11.121 6.87889 11.2124C6.84373 11.271 6.83904 11.3531 6.84139 11.9109C6.84608 12.4804 6.85076 12.5554 6.89061 12.6304C6.94217 12.7335 7.01951 12.7734 7.16014 12.7734H7.26561V13.4484V14.121L7.33826 14.2101C7.42967 14.3203 7.50233 14.3249 7.59608 14.2242C7.63358 14.1843 7.66639 14.1328 7.66873 14.1117C7.67108 14.0906 7.67342 13.7882 7.67342 13.4367C7.67576 13.0874 7.68279 12.7945 7.69217 12.7851C7.6992 12.7757 7.75311 12.764 7.80936 12.757C7.95233 12.7406 8.01326 12.7054 8.06483 12.6046C8.10467 12.5249 8.10936 12.4617 8.10936 11.864V11.2124L8.03904 11.1445C7.97342 11.0835 7.95467 11.0765 7.82811 11.0812L7.68748 11.0882V10.6546V10.2234L7.60545 10.1507C7.50936 10.0687 7.49061 10.064 7.39686 10.1132Z" fill="#000"/>
<path id="Vector_15" d="M17.5523 10.1437C17.4679 10.2187 17.4679 10.2164 17.4797 10.7109C17.4914 11.1281 17.5054 11.0859 17.3414 11.0859C17.2172 11.0859 17.1914 11.093 17.1328 11.1539L17.0648 11.2219L17.0789 11.8969C17.0929 12.5906 17.1 12.6516 17.1937 12.7289C17.2172 12.7477 17.2851 12.7617 17.3531 12.7617H17.4726L17.4844 13.4602L17.4961 14.1609L17.5734 14.2289C17.6719 14.318 17.7609 14.318 17.8476 14.2266L17.9133 14.1586L17.9015 13.5703C17.8945 13.2469 17.8945 12.9352 17.9015 12.8766L17.9133 12.7734H18.0094C18.1195 12.7734 18.2367 12.7102 18.2953 12.6187C18.3328 12.5625 18.3375 12.4805 18.3445 11.8922L18.3492 11.2312L18.2672 11.1586C18.1781 11.0789 18.1804 11.0812 18.0117 11.0766L17.8945 11.0742L17.8804 10.6172C17.8734 10.3664 17.8664 10.1578 17.864 10.1555C17.8429 10.132 17.7117 10.0781 17.6742 10.0781C17.6461 10.0781 17.5922 10.1086 17.5523 10.1437ZM18.2203 11.2406C18.2297 11.2664 18.225 11.2687 18.1875 11.243C18.1617 11.2289 18.1406 11.2078 18.1406 11.1984C18.1406 11.1703 18.2062 11.2055 18.2203 11.2406ZM17.2383 11.2266C17.2453 11.2383 17.2359 11.25 17.2148 11.25C17.1937 11.25 17.1844 11.2383 17.1914 11.2266C17.1984 11.2125 17.2101 11.2031 17.2148 11.2031C17.2195 11.2031 17.2312 11.2125 17.2383 11.2266ZM17.3554 11.2734C17.3625 11.2852 17.3601 11.2969 17.3461 11.2969C17.3344 11.2969 17.3156 11.2852 17.3086 11.2734C17.3015 11.2594 17.3039 11.25 17.3179 11.25C17.3297 11.25 17.3484 11.2594 17.3554 11.2734ZM17.5617 11.2898C17.5453 11.2945 17.5125 11.2945 17.4914 11.2898C17.4679 11.2828 17.482 11.2781 17.5195 11.2781C17.5594 11.2781 17.5758 11.2828 17.5617 11.2898Z" fill="#000"/>
<path id="Vector_16" d="M10.3336 10.1836C10.2984 10.2024 10.2633 10.2352 10.2539 10.2586C10.2445 10.2821 10.2375 10.4883 10.2398 10.7157L10.2469 11.1328H10.132C10.0031 11.1328 9.87654 11.1985 9.84607 11.2805C9.83435 11.3086 9.83201 11.6508 9.83904 12.0422C9.84841 12.675 9.85544 12.7571 9.89294 12.8203C9.94685 12.9047 10.0336 12.9446 10.1531 12.9328L10.2398 12.9258L10.2469 13.5539L10.2539 14.1844L10.3312 14.2524C10.432 14.3414 10.4883 14.3391 10.589 14.2336L10.6687 14.1469L10.6594 13.5422L10.65 12.9375H10.7508C10.8937 12.9375 10.9992 12.886 11.0601 12.7875C11.114 12.7032 11.114 12.6891 11.1117 12.0094C11.1094 11.6297 11.1023 11.3063 11.0953 11.2899C11.0719 11.2266 10.95 11.1797 10.807 11.1797H10.664V10.725V10.2703L10.5914 10.2094C10.5117 10.1414 10.425 10.1344 10.3336 10.1836Z" fill="#000"/>
<path id="Vector_17" d="M14.6414 10.1907C14.5148 10.2751 14.5101 10.3009 14.5031 10.7368L14.4961 11.1446L14.3812 11.1517C14.2617 11.1587 14.1656 11.2126 14.1211 11.2993C14.0836 11.3673 14.1 12.722 14.1375 12.7923C14.1773 12.8696 14.2758 12.9142 14.3976 12.9142H14.5008L14.5148 13.3524C14.5242 13.5962 14.5312 13.8751 14.5312 13.9735C14.5312 14.1423 14.5359 14.1563 14.6039 14.2243C14.7 14.3204 14.789 14.3204 14.8711 14.2243L14.932 14.1493L14.9273 13.5376L14.9226 12.9259L15.0422 12.9142C15.1617 12.9024 15.2555 12.8415 15.3094 12.7407C15.3375 12.6868 15.3633 11.6509 15.3398 11.4399C15.3258 11.3157 15.3117 11.2759 15.2555 11.2196C15.1922 11.1563 15.1734 11.1517 15.0609 11.161L14.9344 11.1704L14.918 10.9595C14.9109 10.8423 14.9062 10.6384 14.9109 10.5071C14.918 10.2915 14.9133 10.2634 14.8711 10.2212C14.8008 10.1509 14.7164 10.1415 14.6414 10.1907ZM14.8078 10.261C14.8148 10.2821 14.8008 10.2915 14.7633 10.2845C14.7351 10.2821 14.707 10.2634 14.7 10.247C14.693 10.2259 14.707 10.2165 14.7445 10.2235C14.7726 10.2259 14.8008 10.2446 14.8078 10.261Z" fill="#000"/>
<path id="Vector_18" d="M16.1484 10.2844C16.1297 10.2891 16.0852 10.3219 16.05 10.3547L15.9844 10.4156V11.0906V11.7656H15.8578C15.7547 11.7656 15.7148 11.7773 15.6633 11.8219L15.5977 11.8781L15.5859 12.6258C15.5789 13.0359 15.5812 13.3945 15.5906 13.425C15.6 13.4531 15.6375 13.5047 15.6703 13.5352C15.7219 13.582 15.757 13.5937 15.8578 13.5937H15.9844V13.9664C15.9844 14.1727 15.9937 14.3672 16.0078 14.4C16.0312 14.4609 16.1555 14.5547 16.2141 14.5547C16.2328 14.5547 16.282 14.5195 16.3266 14.475L16.4062 14.3953V13.9828V13.5703H16.5352C16.6336 13.5703 16.6758 13.5586 16.7133 13.5211C16.8211 13.4133 16.8281 13.357 16.8281 12.6094C16.8281 12.1687 16.8187 11.8852 16.8047 11.857C16.7672 11.7891 16.6547 11.7422 16.5258 11.7422C16.4109 11.7422 16.4109 11.7422 16.3969 11.6531C16.3898 11.6062 16.3852 11.3039 16.3898 10.9852C16.3969 10.4789 16.3945 10.3969 16.3617 10.357C16.3195 10.3078 16.2023 10.2656 16.1484 10.2844Z" fill="#000"/>
<path id="Vector_19" d="M8.86876 10.3359C8.7422 10.418 8.73282 10.4695 8.74923 11.0344C8.7586 11.3156 8.77267 11.5922 8.7797 11.6531L8.7961 11.7656H8.66954C8.52892 11.7656 8.41407 11.8219 8.36485 11.9109C8.34142 11.9508 8.33673 12.143 8.34142 12.6797L8.3461 13.3945L8.42813 13.4742C8.50313 13.5422 8.52423 13.5516 8.60392 13.5375C8.67657 13.5258 8.69767 13.5305 8.71876 13.568C8.73282 13.5938 8.7422 13.7789 8.7422 14.0039V14.3953L8.82188 14.475C8.86642 14.5195 8.92501 14.5547 8.95313 14.5547C8.98126 14.5547 9.03985 14.5195 9.08438 14.475L9.16407 14.3953V13.9617V13.5305L9.30704 13.5164C9.4547 13.5023 9.51798 13.4672 9.57423 13.3594C9.59767 13.3148 9.6047 13.1344 9.60001 12.6023L9.59767 11.9016L9.52032 11.8336C9.4547 11.775 9.42657 11.7656 9.30001 11.7656H9.15704L9.17345 11.0883L9.18985 10.4133L9.1172 10.35C9.02813 10.2773 8.9672 10.2727 8.86876 10.3359Z" fill="#000"/>
<path id="Vector_20" d="M5.71875 15.7969C5.71875 15.8086 5.73047 15.8203 5.74219 15.8203C5.75625 15.8203 5.76562 15.8086 5.76562 15.7969C5.76562 15.7828 5.75625 15.7734 5.74219 15.7734C5.73047 15.7734 5.71875 15.7828 5.71875 15.7969Z" fill="#000"/>
<path id="Vector_21" d="M6.68438 16.1835C6.69376 16.1929 6.68907 16.2187 6.67266 16.2374C6.64922 16.2679 6.65157 16.2726 6.68672 16.2585C6.71016 16.2492 6.78047 16.2398 6.83907 16.2398L6.94922 16.2351L6.84376 16.221C6.78516 16.2117 6.72188 16.1976 6.70313 16.1859C6.68438 16.1742 6.67501 16.1718 6.68438 16.1835Z" fill="black"/>
<path id="Vector_22" d="M12.2672 16.2399C12.2812 16.2586 12.4195 16.2516 12.4406 16.2305C12.4476 16.2235 12.4078 16.2188 12.3539 16.2188C12.3 16.2188 12.2601 16.2281 12.2672 16.2399Z" fill="black"/>
<path id="Vector_23" d="M15.0422 16.2353C15.0703 16.2399 15.1172 16.2399 15.1477 16.2353C15.1758 16.2306 15.1523 16.2259 15.0937 16.2259C15.0352 16.2259 15.0117 16.2306 15.0422 16.2353Z" fill="black"/>
<path id="Vector_24" d="M0.234375 20.0835C0.234375 20.1023 0.267188 20.1234 0.314063 20.1304C0.328125 20.1327 0.339844 20.1163 0.342188 20.0976C0.346875 20.0671 0.339844 20.0648 0.314063 20.0882C0.290625 20.107 0.28125 20.107 0.28125 20.0882C0.28125 20.0741 0.271875 20.0624 0.257812 20.0624C0.246094 20.0624 0.234375 20.0718 0.234375 20.0835Z" fill="black"/>
<path id="Vector_25" d="M0.358582 20.475C0.358582 20.4937 0.372644 20.5078 0.391394 20.5078C0.4078 20.5078 0.421863 20.4984 0.421863 20.4867C0.421863 20.475 0.4078 20.4609 0.391394 20.4539C0.372644 20.4469 0.358582 20.4562 0.358582 20.475Z" fill="black"/>
<path id="Vector_26" d="M0.433609 20.6718C0.426578 20.6859 0.435953 20.6883 0.454703 20.6812C0.49689 20.6648 0.503921 20.6484 0.471109 20.6484C0.457046 20.6484 0.44064 20.6578 0.433609 20.6718Z" fill="black"/>
<path id="Vector_27" d="M0.609375 20.7517C0.609375 20.7564 0.628125 20.7751 0.651562 20.7915C0.686719 20.822 0.689062 20.8196 0.658594 20.7821C0.628125 20.7446 0.609375 20.7329 0.609375 20.7517Z" fill="black"/>
<path id="Vector_28" d="M0.67265 20.8992C0.679681 20.9156 0.686713 20.9297 0.6914 20.9297C0.696088 20.9297 0.703119 20.9156 0.71015 20.8992C0.717181 20.8805 0.707806 20.8664 0.6914 20.8664C0.674994 20.8664 0.665619 20.8805 0.67265 20.8992Z" fill="black"/>
<path id="Vector_29" d="M0.609375 20.9648C0.609375 20.9836 0.614063 21 0.61875 21C0.623438 21 0.632812 20.9836 0.642188 20.9648C0.649219 20.9461 0.644531 20.9297 0.632812 20.9297C0.61875 20.9297 0.609375 20.9461 0.609375 20.9648Z" fill="black"/>
</g>
</svg>
