<svg width="18" height="18" viewBox="0 0 18 18" fill="#000" xmlns="http://www.w3.org/2000/svg">
<g id="Group" opacity="0.8">
<path id="Vector" d="M8.45257 0.240039C8.25305 0.293432 8.15469 0.346826 7.94955 0.509816C7.67977 0.729011 7.5505 0.914483 7.45495 1.22079C7.3847 1.45123 7.37627 1.5805 7.42123 1.84184C7.48305 2.19312 7.59546 2.41231 7.83995 2.65399C8.1294 2.94344 8.27272 2.99121 8.81227 2.99121H9.21975L9.44456 2.86475C9.73401 2.70176 10.0544 2.38983 10.1527 2.17345C10.2061 2.05542 10.2286 1.95144 10.237 1.77159C10.2651 1.3051 10.1443 0.973497 9.83237 0.641895C9.62442 0.422701 9.43332 0.301863 9.19165 0.237228C8.9865 0.183835 8.65209 0.186645 8.45257 0.240039ZM9.13263 0.785215C9.31249 0.855469 9.57383 1.11401 9.66376 1.31634C9.80427 1.6367 9.70591 2.00765 9.41084 2.27461C9.14387 2.51067 8.76731 2.58092 8.49191 2.44041C8.32611 2.35892 8.09568 2.11724 8.0198 1.94582C7.95236 1.79126 7.9383 1.51024 7.9917 1.32758C8.05633 1.10839 8.30363 0.847039 8.52001 0.771164C8.683 0.71215 8.95278 0.72058 9.13263 0.785215Z" fill="#000"/>
<path id="Vector_2" d="M10.6837 1.412C10.7118 1.85601 10.7286 1.9656 10.7595 1.96841C10.7792 1.96841 10.9591 1.96841 11.1642 1.9656C11.4761 1.96279 11.5548 1.97122 11.67 2.019C11.7937 2.06958 11.8836 2.0752 12.8166 2.08644C13.7215 2.09768 13.8507 2.10611 14.039 2.1567C14.5055 2.28034 14.854 2.49954 15.2924 2.93793C15.5312 3.17679 15.5959 3.2611 15.7167 3.49996C15.95 3.95521 16.0062 4.15755 16.0371 4.64652C16.0483 4.87977 16.0596 5.3856 16.0624 5.77341V6.47595H16.4558H16.8492V5.46429C16.8492 4.29525 16.8295 4.06481 16.7087 3.70511C16.5148 3.12621 16.304 2.78337 15.8123 2.24662C15.3542 1.74641 14.5983 1.35298 13.9351 1.26587C13.8142 1.24901 13.0302 1.23214 12.1927 1.22371L10.6696 1.20966L10.6837 1.412Z" fill="#000"/>
<path id="Vector_3" d="M3.89143 1.26116C3.61884 1.29488 3.03151 1.53375 2.71115 1.74451C2.34582 1.98338 1.90744 2.43301 1.63485 2.84329C1.38193 3.22829 1.30043 3.40252 1.18803 3.80438L1.10372 4.1135L1.08967 5.2994L1.07843 6.4881H1.33697C1.47748 6.4881 1.6489 6.50215 1.71915 6.51902C1.78941 6.53588 1.85123 6.54431 1.86247 6.53588C1.8709 6.52464 1.88776 6.00194 1.899 5.37246L1.91868 4.2259L2.0086 3.96737C2.17159 3.48964 2.32053 3.21705 2.59593 2.89669C2.85166 2.596 3.31815 2.29531 3.73968 2.15761C3.93358 2.09297 3.96449 2.09297 5.45951 2.08173L6.97982 2.07049L6.97139 1.6602L6.96015 1.24711L5.51852 1.2443C4.72605 1.24149 3.99259 1.24992 3.89143 1.26116Z" fill="#000"/>
<path id="Vector_4" d="M10.5627 2.24566C10.3154 2.28219 10.3182 2.27938 10.3407 2.48171L10.3576 2.65876L10.2677 2.69529C10.2171 2.71496 10.1215 2.75711 10.0541 2.78802L9.93606 2.84704L9.85738 2.77116C9.81241 2.72901 9.76464 2.69529 9.74778 2.69529C9.73092 2.69529 9.62975 2.79927 9.52015 2.92572C9.41056 3.05499 9.28972 3.18988 9.25038 3.22641C9.15202 3.31915 9.15764 3.39502 9.27848 3.53272C9.34311 3.6086 9.37402 3.67323 9.3684 3.71258C9.35997 3.76878 9.3403 3.78002 9.18293 3.79126C9.07333 3.79969 8.99746 3.81936 8.9806 3.84465C8.96936 3.86714 8.94969 4.01889 8.93845 4.18188C8.93002 4.34487 8.91877 4.491 8.91315 4.50505C8.90753 4.53596 8.63495 4.31115 8.23028 3.9402C8.05605 3.78002 7.89587 3.65075 7.87057 3.65075C7.78908 3.65075 7.64857 3.74349 7.47153 3.9121C7.30292 4.07228 7.2973 4.0779 7.23266 4.03294C7.19613 4.00765 7.12026 3.97392 7.06405 3.95706L6.95726 3.92896V3.66761C6.95726 3.4428 6.94883 3.39502 6.89825 3.32758L6.83643 3.25171L6.14512 3.27138C5.76575 3.28262 5.43133 3.29667 5.40604 3.30229C5.3386 3.32196 5.29926 3.48495 5.29926 3.74068C5.29926 3.95144 5.29645 3.95987 5.23181 3.95987C5.19528 3.95987 5.13626 3.98516 5.09692 4.01327L5.02948 4.06666L4.80747 3.884C4.50116 3.63389 4.47306 3.61703 4.40843 3.64232C4.30726 3.68166 3.33213 4.63713 3.33213 4.69614C3.33213 4.77764 3.37147 4.83665 3.56818 5.06146L3.74803 5.26099L3.67497 5.41274L3.6019 5.56168H3.36585C3.15789 5.56168 3.12698 5.57011 3.06516 5.62912C2.96961 5.72467 2.96118 5.80897 2.97242 6.52557C2.98085 7.06513 2.98647 7.1691 3.02581 7.20564C3.05954 7.23936 3.14665 7.25622 3.34056 7.26746L3.61033 7.28432L3.64968 7.39954C3.67216 7.46417 3.70026 7.53443 3.70869 7.55691C3.71993 7.58501 3.66092 7.67494 3.54289 7.80983C3.44172 7.92504 3.36023 8.04588 3.36023 8.07679C3.36023 8.17234 3.46982 8.31847 3.75084 8.59668C3.89978 8.74562 4.0965 8.95076 4.18923 9.05474C4.41124 9.30204 4.4562 9.30485 4.74003 9.07722C4.85525 8.9873 4.97046 8.88613 5.00138 8.85522L5.05196 8.7962L5.16999 8.85522C5.23181 8.88613 5.29082 8.91704 5.29645 8.92266C5.30207 8.92828 5.31612 9.04069 5.33017 9.17277C5.35827 9.45941 5.40885 9.58586 5.51283 9.65612C5.58308 9.70108 5.65053 9.7067 6.11421 9.70108C6.75212 9.69546 6.86172 9.68141 6.91511 9.59711C6.94321 9.55776 6.96289 9.42287 6.97694 9.23459C6.9938 8.95076 6.99661 8.9339 7.05562 8.9339C7.08653 8.9339 7.15679 8.90299 7.21018 8.86365L7.30573 8.79339L7.44905 8.93109C7.64295 9.11937 7.8228 9.24302 7.90711 9.24302C7.99422 9.24302 8.03919 9.20649 8.5675 8.66131C8.83728 8.3831 9.0087 8.18358 9.0087 8.14986C9.0087 8.11895 8.94688 8.02059 8.87381 7.93067C8.67991 7.69742 8.61527 7.59625 8.63776 7.57377C8.649 7.56253 8.6771 7.49509 8.70239 7.42202L8.74735 7.28994L9.04804 7.27589C9.30939 7.26465 9.35716 7.25341 9.3937 7.20564C9.42742 7.15786 9.43304 7.04827 9.41618 6.45251C9.40494 6.07032 9.40213 5.75839 9.41056 5.75839C9.41899 5.75839 9.47238 5.83989 9.52577 5.94105C9.69158 6.23331 9.79274 6.27266 9.95573 6.10966C10.0428 6.02255 10.0625 6.01412 10.1019 6.04784C10.1272 6.07032 10.1777 6.09842 10.2171 6.10966C10.3548 6.14901 10.3857 6.2024 10.3857 6.39068C10.3857 6.55648 10.3913 6.56772 10.4644 6.59583C10.5936 6.64641 10.8803 6.66327 11.2035 6.6436C11.5856 6.61831 11.6166 6.59864 11.639 6.35415C11.6559 6.21364 11.6671 6.17992 11.7093 6.17992C11.7346 6.17992 11.7964 6.14901 11.8414 6.10966L11.9257 6.03941L12.0606 6.15182C12.2095 6.27547 12.2179 6.27828 12.2966 6.23612C12.3725 6.19397 12.8587 5.55887 12.8587 5.49985C12.8587 5.48861 12.8193 5.43522 12.7715 5.38183C12.6929 5.28909 12.69 5.27785 12.7181 5.17106L12.7491 5.05584H12.9008C13.1565 5.05584 13.1397 5.09238 13.1369 4.48257C13.1341 4.1875 13.1256 3.90648 13.1144 3.86152C13.0975 3.78002 13.0919 3.77721 12.9064 3.76878L12.7181 3.76035V3.63951C12.7181 3.54958 12.735 3.50462 12.7884 3.45404C12.8277 3.41751 12.8587 3.37535 12.8587 3.35849C12.8587 3.34163 12.7743 3.23203 12.6732 3.11682C12.572 3.0016 12.4512 2.85266 12.4062 2.78521C12.3022 2.63908 12.2348 2.63346 12.1083 2.76835L12.0128 2.86952L11.9088 2.79927C11.8526 2.75992 11.7711 2.71215 11.729 2.69248C11.6559 2.66157 11.6503 2.6447 11.6503 2.50139C11.6503 2.30748 11.6306 2.27657 11.4929 2.24566C11.3636 2.21475 10.7707 2.21475 10.5627 2.24566ZM11.2484 2.80489L11.2316 2.99879L11.358 3.01846C11.4283 3.02689 11.5688 3.08028 11.6699 3.13368C11.8835 3.24327 11.9594 3.25171 12.0859 3.17302L12.1786 3.11682L12.2657 3.22079C12.3697 3.34444 12.3697 3.35287 12.2966 3.45685L12.2376 3.53553L12.3275 3.81093C12.3753 3.96268 12.4203 4.10319 12.4259 4.12005C12.4315 4.14534 12.4905 4.15658 12.5889 4.15658H12.7434L12.7519 4.42355L12.7603 4.69052H12.6001H12.4399L12.395 4.83946C12.3725 4.92377 12.3191 5.03336 12.2826 5.08395C12.1926 5.20478 12.1955 5.22446 12.2966 5.32281C12.3444 5.36777 12.3809 5.41274 12.3809 5.42679C12.3809 5.47175 12.1758 5.75839 12.1449 5.75839C12.128 5.75839 12.0774 5.7331 12.0296 5.70219C11.9172 5.62631 11.8638 5.63193 11.6671 5.73029C11.5744 5.77806 11.4508 5.82303 11.3889 5.83427C11.2681 5.85394 11.2681 5.85113 11.2428 6.07313L11.2259 6.23612H11.0011H10.7791V6.14058C10.7791 5.91857 10.7538 5.87642 10.5993 5.82584C10.5206 5.80054 10.3829 5.74153 10.2958 5.69376L10.1356 5.60664L9.99789 5.68252L9.86019 5.75558L9.74497 5.58697C9.68033 5.49423 9.62694 5.40712 9.62694 5.39307C9.62694 5.38183 9.66628 5.33686 9.71406 5.29752L9.80117 5.22165L9.72811 5.05303C9.68596 4.9603 9.6438 4.84227 9.63537 4.79169C9.62132 4.69333 9.5595 4.66242 9.38527 4.66242C9.32063 4.66242 9.31782 4.65399 9.31782 4.47133C9.31782 4.36735 9.30939 4.25494 9.30096 4.21841C9.2841 4.1594 9.28972 4.15658 9.43866 4.15658H9.59322L9.63818 4.03575C9.66066 3.97111 9.70844 3.83903 9.74216 3.74068L9.80398 3.56364L9.71406 3.4709C9.60727 3.3613 9.61289 3.30791 9.73654 3.18988L9.81803 3.1112L9.96416 3.18426L10.1131 3.26014L10.2564 3.15897C10.3435 3.09996 10.4644 3.04656 10.5627 3.02689L10.7229 2.99317V2.80208V2.61098H10.9927H11.2653L11.2484 2.80489ZM6.53012 4.0217L6.53855 4.29428L6.64252 4.31115C6.83362 4.34206 6.96851 4.38421 7.17927 4.48538L7.38441 4.58373L7.53054 4.44603C7.60923 4.37016 7.70758 4.28023 7.75255 4.24089L7.82842 4.17345L7.96331 4.31396C8.03638 4.38983 8.16283 4.51348 8.24433 4.58654C8.32302 4.65961 8.39046 4.72986 8.39046 4.74391C8.39046 4.75515 8.30334 4.85913 8.19656 4.97435L8.00546 5.1823L8.10101 5.32562C8.2078 5.4858 8.33145 5.81459 8.33426 5.93543V6.01693L8.62933 5.99726L8.92439 5.97759V6.32886C8.92439 6.51995 8.93283 6.71666 8.94126 6.76163L8.95812 6.84593L8.649 6.8656L8.33707 6.88809L8.30896 7.02578C8.2921 7.10447 8.27805 7.18035 8.27805 7.19721C8.27805 7.21407 8.22747 7.33491 8.16283 7.46698C8.03357 7.73676 8.01952 7.67494 8.28648 7.97282L8.42137 8.11895L8.25838 8.30723C8.16845 8.4084 8.05043 8.54329 7.99422 8.60792L7.89025 8.72033L7.79189 8.63883C7.7385 8.59106 7.62328 8.49832 7.53616 8.42807C7.44905 8.35781 7.37879 8.29037 7.37879 8.27913C7.37879 8.26789 7.33664 8.28756 7.28887 8.3269C7.15398 8.42807 6.85329 8.56296 6.71559 8.58544L6.59756 8.6023L6.5807 8.80182C6.56946 8.91423 6.55541 9.06036 6.54698 9.13061L6.53012 9.25707H6.17041H5.81071L5.7798 9.11656C5.76294 9.04069 5.74045 8.88894 5.72921 8.77934L5.71235 8.58263L5.51283 8.53486C5.38075 8.50113 5.2571 8.44493 5.14751 8.37186C4.98451 8.25946 4.9817 8.25946 4.94236 8.31566C4.90021 8.37748 4.70912 8.55734 4.59109 8.65007C4.55175 8.68379 4.49835 8.70066 4.47306 8.69223C4.4281 8.67536 3.92226 8.0796 3.92226 8.04307C3.92226 8.03183 4.00095 7.94191 4.0965 7.84636L4.27073 7.67213L4.19485 7.50914C4.1527 7.41921 4.08244 7.24498 4.04029 7.12133C3.96161 6.89933 3.9588 6.89652 3.8492 6.87685C3.79019 6.8656 3.66654 6.85717 3.57942 6.85717L3.41924 6.85436L3.41081 6.43284L3.40238 6.01412L3.68059 6.00569L3.95599 5.99726L4.02343 5.73591C4.05996 5.59259 4.12741 5.40993 4.17518 5.33405C4.22014 5.25818 4.25949 5.19073 4.25949 5.1823C4.25949 5.17387 4.17237 5.0699 4.06277 4.94625L3.86887 4.72424L4.14989 4.44884C4.30445 4.29428 4.43653 4.16502 4.44215 4.16221C4.44777 4.15658 4.49835 4.20436 4.55737 4.26618C4.61357 4.33082 4.72036 4.43198 4.79342 4.49381L4.92831 4.60621L5.0913 4.50786C5.18404 4.45165 5.32736 4.38983 5.41166 4.36454C5.72359 4.28023 5.70673 4.29428 5.71235 4.15658C5.71797 4.08633 5.7264 3.96268 5.73764 3.88119L5.75451 3.73225L6.13669 3.74068L6.52169 3.74911L6.53012 4.0217ZM8.98341 4.97716C9.00589 5.03055 9.04242 5.05865 9.10144 5.0699C9.26162 5.10362 9.28972 5.11486 9.32063 5.17106C9.34311 5.21321 9.33468 5.24413 9.28972 5.30595C9.2307 5.39307 9.21665 5.49142 9.26162 5.51953C9.27567 5.52796 9.30377 5.56168 9.31782 5.58978C9.34592 5.64036 9.3403 5.64317 9.27005 5.61507C9.2307 5.60102 9.09863 5.57854 8.9806 5.57011L8.76421 5.55325L8.68834 5.38745L8.60965 5.21884L8.67991 5.14577C8.71925 5.10362 8.79232 4.99964 8.8429 4.91534C8.92721 4.77764 8.93845 4.76921 8.94688 4.83103C8.9525 4.87037 8.96936 4.93501 8.98341 4.97716Z" fill="#000"/>
<path id="Vector_5" d="M10.7512 3.52111C10.6135 3.56889 10.4139 3.7094 10.3015 3.83585C10.1582 4.00165 10.0964 4.16746 10.0936 4.39789C10.0936 4.57493 10.1048 4.62271 10.2004 4.81661C10.2594 4.93464 10.3549 5.08077 10.4167 5.14259C10.6303 5.35616 11.1109 5.42642 11.3863 5.28591C11.5492 5.2016 11.76 4.98241 11.8443 4.80256C11.9061 4.67048 11.9174 4.60866 11.9174 4.39508C11.9174 4.18994 11.9061 4.11687 11.8527 4.0129C11.7544 3.81337 11.6083 3.66162 11.42 3.56889C11.2767 3.49582 11.2176 3.48177 11.049 3.48177C10.9394 3.48458 10.8045 3.50144 10.7512 3.52111ZM11.2176 3.91735C11.3216 3.9595 11.4481 4.13373 11.4818 4.27986C11.5296 4.49344 11.4003 4.76884 11.212 4.84752C10.9479 4.95712 10.6837 4.84471 10.5685 4.57212C10.4533 4.2911 10.5882 3.99322 10.8804 3.88644C10.9956 3.84709 11.0659 3.85272 11.2176 3.91735Z" fill="#000"/>
<path id="Vector_6" d="M5.98802 4.94432C5.54401 5.02301 5.0466 5.34056 4.86675 5.66373C4.46209 6.38595 4.66723 7.27116 5.33605 7.69268C5.55525 7.83319 5.72667 7.8894 6.02174 7.92874C6.57816 8.00462 7.10647 7.74889 7.43807 7.24868C7.77249 6.74284 7.78654 6.17518 7.47461 5.65811C7.34534 5.43892 7.26665 5.36023 7.01936 5.19443C6.70461 4.98367 6.31119 4.88812 5.98802 4.94432ZM6.40955 5.3799C6.74115 5.46702 7.0587 5.76771 7.1683 6.09931C7.23855 6.30726 7.21607 6.65011 7.12052 6.85525C6.91257 7.30488 6.4517 7.56342 6.01612 7.47349C5.63674 7.3948 5.40631 7.21776 5.24613 6.88335C5.15058 6.68383 5.14496 6.65573 5.14496 6.39157C5.14496 6.13865 5.15339 6.0965 5.22365 5.95599C5.36416 5.68059 5.63674 5.45859 5.92338 5.38271C6.1201 5.32932 6.21002 5.32932 6.40955 5.3799Z" fill="#000"/>
<path id="Vector_7" d="M13.5135 5.30692C13.3365 5.35188 13.1398 5.53173 13.0077 5.77341C12.9374 5.89987 12.929 5.94202 12.929 6.18931V6.4619L12.3979 6.94807C12.1028 7.21222 11.774 7.50729 11.6644 7.60003C11.5548 7.69276 11.3469 7.88667 11.2035 8.02718C11.0574 8.1705 10.9225 8.28852 10.9 8.28852C10.8804 8.28852 10.8157 8.26885 10.7595 8.24637C10.5207 8.1452 10.161 8.24075 10.0036 8.44589C9.94458 8.52458 9.91086 8.60889 9.89681 8.70162C9.87433 8.87585 9.82936 8.91801 9.39659 9.18497C9.06218 9.39012 8.90481 9.5222 8.45799 9.96621C8.20507 10.2163 7.9353 10.4243 7.86223 10.4243C7.84256 10.4243 7.78074 10.3905 7.72453 10.3484C7.63461 10.2809 7.60088 10.2725 7.40979 10.2725C7.24118 10.2725 7.16812 10.2866 7.06133 10.3371C6.92363 10.4046 6.7494 10.5479 6.72973 10.6125C6.71568 10.6631 6.29415 10.5873 6.04123 10.4917C5.94006 10.4552 5.71244 10.3962 5.54102 10.3653C5.17288 10.3006 4.97055 10.25 4.93964 10.2135C4.92559 10.1966 4.9003 10.1292 4.88062 10.0589C4.83566 9.90438 4.71482 9.76949 4.52654 9.67114C4.4057 9.6065 4.35231 9.59526 4.1303 9.59526C3.89425 9.59526 3.86615 9.60088 3.73688 9.67957C3.55703 9.79197 3.39123 10.028 3.36593 10.2163C3.28163 10.7755 3.64414 11.2252 4.17527 11.2224C4.40289 11.2195 4.65581 11.1156 4.77946 10.9694L4.86657 10.8711L5.27124 10.9441C5.79113 11.0369 6.49929 11.2083 6.53301 11.2505C6.54707 11.2673 6.58079 11.3629 6.60889 11.4612C6.70444 11.8041 7.0529 12.0823 7.38731 12.0823C7.52501 12.0823 7.74983 12.0261 7.87347 11.9614C8.11515 11.835 8.28938 11.5006 8.29219 11.1549C8.29219 11.0397 8.30624 10.9245 8.32029 10.8992C8.33715 10.8767 8.46923 10.7531 8.61536 10.6238C8.76149 10.4945 8.96102 10.3062 9.05375 10.2023C9.28981 9.94653 9.46685 9.81727 9.86871 9.60931L10.2115 9.43227L10.3043 9.49971C10.3802 9.55311 10.4336 9.56716 10.5684 9.56435C10.9338 9.55873 11.212 9.31986 11.271 8.96297C11.2822 8.89271 11.3075 8.8056 11.3272 8.76626C11.3693 8.68757 11.6138 8.44589 11.8386 8.2548C11.9735 8.14239 12.7351 7.45952 13.1398 7.08576C13.3224 6.91996 13.3224 6.91715 13.3927 6.96774C13.5838 7.09982 13.9716 7.11668 14.1964 7.00146C14.3397 6.92839 14.4943 6.75416 14.5926 6.55464C14.7388 6.25395 14.6629 5.83523 14.4156 5.5795C14.1908 5.34345 13.8142 5.23104 13.5135 5.30692ZM13.9547 5.79027C14.0784 5.86052 14.2076 6.07129 14.2076 6.20618C14.2076 6.34387 14.1374 6.48438 14.0334 6.54621C13.7721 6.70358 13.4292 6.50968 13.4011 6.18931C13.3842 6.00665 13.4573 5.87738 13.6175 5.79308C13.7721 5.7172 13.8198 5.71439 13.9547 5.79027ZM10.8326 8.72691C10.9113 8.81122 10.9225 8.84213 10.9085 8.9152C10.8832 9.04446 10.8045 9.1091 10.6752 9.11191C10.5319 9.11472 10.4083 9.05008 10.3717 8.95454C10.3492 8.8899 10.3577 8.85337 10.4055 8.77188C10.5179 8.57235 10.6696 8.55549 10.8326 8.72691ZM4.36917 10.0786C4.54621 10.2079 4.59118 10.472 4.46472 10.621C4.31859 10.7952 4.1303 10.7952 3.94764 10.621C3.84929 10.5282 3.83805 10.503 3.83805 10.3793C3.83805 10.2276 3.90268 10.1011 4.01228 10.0393C4.09658 9.9915 4.27643 10.0112 4.36917 10.0786ZM7.54468 10.7727C7.58683 10.7952 7.66833 10.8655 7.72453 10.9273C7.81727 11.0313 7.82851 11.0594 7.82851 11.1999C7.82851 11.3404 7.82008 11.3657 7.74139 11.4387C7.55311 11.613 7.32268 11.5989 7.13439 11.3994C6.98826 11.242 6.95454 11.1043 7.03042 10.9638C7.1372 10.7671 7.36483 10.6828 7.54468 10.7727Z" fill="#000"/>
<path id="Vector_8" d="M1.19651 6.94188C0.791847 7.00932 0.339407 7.35778 0.159555 7.73435C-0.0736902 8.22613 -0.0512087 8.69262 0.227 9.14506C0.38718 9.40079 0.491157 9.49915 0.749694 9.63403C1.01385 9.76892 1.27801 9.8167 1.64333 9.79703C1.95245 9.78297 2.04519 9.74925 2.28406 9.5694C2.65781 9.28838 2.91073 8.79941 2.91073 8.35821C2.91073 8.17555 2.82923 7.84114 2.74212 7.67252C2.67186 7.53483 2.4611 7.30158 2.2953 7.17793C2.00866 6.96998 1.57308 6.87443 1.19651 6.94188ZM1.83162 7.54045C2.16603 7.69501 2.34869 7.96197 2.37117 8.31606C2.38803 8.6027 2.30935 8.80784 2.11263 9.00455C1.90749 9.2097 1.73888 9.28276 1.47753 9.28557C1.3033 9.28557 1.23867 9.27152 1.10659 9.20689C0.819949 9.06638 0.581083 8.72353 0.558602 8.41722C0.52769 8.04066 0.83119 7.6107 1.19932 7.50391C1.38761 7.45052 1.67706 7.46738 1.83162 7.54045Z" fill="#000"/>
<path id="Vector_9" d="M16.0878 7.00338C15.7196 7.12984 15.4611 7.35747 15.2897 7.70593C15.1042 8.0825 15.062 8.40848 15.1492 8.75132C15.2784 9.23748 15.7365 9.67587 16.2255 9.77985C16.4559 9.82762 16.9392 9.79952 17.1219 9.72926C18.0718 9.35832 18.305 8.06282 17.5547 7.35185C17.4479 7.25068 17.3046 7.13546 17.2371 7.09612C16.9505 6.92751 16.4306 6.88536 16.0878 7.00338ZM16.8437 7.51484C17.0207 7.56823 17.2568 7.77619 17.3608 7.97009C17.4788 8.18647 17.5069 8.39162 17.4535 8.59957C17.3776 8.90026 17.2287 9.0773 16.9336 9.20938C16.4952 9.41452 15.9557 9.19252 15.7196 8.71479C15.6269 8.52088 15.6297 8.24268 15.7309 8.0291C15.8517 7.77057 16.0653 7.56542 16.2873 7.49798C16.4081 7.46144 16.692 7.46987 16.8437 7.51484Z" fill="#000"/>
<path id="Vector_10" d="M14.0307 8.28002L13.6147 8.29126L13.6344 11.1914C13.6457 13.0264 13.6625 14.1055 13.6822 14.1252C13.7019 14.1533 13.8339 14.1617 14.1684 14.1617C14.5927 14.1617 14.6292 14.1589 14.6573 14.1083C14.6882 14.0465 14.6995 8.50484 14.6686 8.34747C14.6517 8.26878 14.6433 8.26035 14.5477 8.26597C14.4915 8.26878 14.2583 8.27721 14.0307 8.28002Z" fill="#000"/>
<path id="Vector_11" d="M12.2068 9.90817L11.9623 9.91941L11.9764 12.0046C11.9933 13.8537 11.9989 14.0925 12.0382 14.1234C12.1 14.174 12.96 14.174 12.9881 14.1263C13.0021 14.1066 13.0105 13.1483 13.0077 11.9961L13.0049 9.90255L12.7267 9.89974C12.575 9.89974 12.3417 9.90255 12.2068 9.90817Z" fill="#000"/>
<path id="Vector_12" d="M1.23855 10.3034C1.06713 10.3287 1.07556 10.2078 1.09242 12.293C1.10086 13.5351 1.11772 14.2685 1.1402 14.3838C1.19359 14.6957 1.36501 15.1594 1.528 15.4404C1.76406 15.8451 2.10971 16.2525 2.39635 16.4689C2.59025 16.615 3.02583 16.8455 3.2647 16.927C3.68061 17.0731 3.8436 17.0844 5.47632 17.0844H6.98539V16.6797C6.98539 16.3284 6.97977 16.2722 6.93761 16.2582C6.91232 16.2469 6.25193 16.2413 5.4707 16.2413C3.94195 16.2441 3.8717 16.2385 3.46703 16.0924C3.10733 15.9631 2.5762 15.5416 2.34296 15.2015C2.2446 15.0582 2.08723 14.7266 2.00855 14.5018C1.90738 14.2152 1.89614 13.9201 1.89614 12.1075L1.89895 10.3455L1.81183 10.3146C1.72472 10.2837 1.41279 10.2781 1.23855 10.3034Z" fill="#000"/>
<path id="Vector_13" d="M16.3293 10.2978C16.3152 10.3034 16.2506 10.3231 16.186 10.3371L16.0707 10.368L16.0539 12.116C16.0342 14.2039 16.0258 14.2882 15.7504 14.8446C15.4609 15.4292 15.0816 15.7861 14.483 16.0418C14.0305 16.2357 13.9772 16.2413 12.2939 16.2385C11.4733 16.2385 10.7988 16.2413 10.796 16.2469C10.7932 16.2525 10.796 16.438 10.8016 16.6628L10.8129 17.0703H12.3753C14.1233 17.0675 14.0839 17.0731 14.7022 16.8624C15.1743 16.7022 15.4216 16.542 15.8375 16.1289C16.0314 15.935 16.2394 15.7046 16.2984 15.6174C16.4304 15.4179 16.6047 15.0217 16.7171 14.6676C16.7986 14.4063 16.7986 14.3866 16.8239 13.5154C16.8379 13.0293 16.852 12.1216 16.8548 11.5005L16.8632 10.368L16.7564 10.3259C16.6637 10.2893 16.4023 10.2725 16.3293 10.2978Z" fill="#000"/>
<path id="Vector_14" d="M10.366 11.2567L10.3014 11.268V12.6815C10.3014 13.7409 10.3098 14.1006 10.3351 14.1259C10.3829 14.1737 11.2737 14.1737 11.3018 14.1259C11.3159 14.1062 11.3243 13.4487 11.3271 12.6646V11.237L10.8775 11.2399C10.6302 11.2427 10.3997 11.2511 10.366 11.2567Z" fill="#000"/>
<path id="Vector_15" d="M8.89627 11.2926L8.6012 11.3095L8.61244 12.7146C8.61806 13.8752 8.62649 14.1253 8.66021 14.1506C8.69955 14.1815 9.59319 14.1759 9.6241 14.145C9.63253 14.1365 9.63815 13.4874 9.64097 12.7005V11.2673L9.41615 11.2729C9.2925 11.2758 9.05926 11.2842 8.89627 11.2926Z" fill="#000"/>
<path id="Vector_16" d="M3.57953 11.5398C3.55424 11.5455 3.52895 11.5679 3.52332 11.5848C3.50646 11.6298 3.55424 14.0802 3.5711 14.1252C3.57953 14.1533 3.70318 14.1617 4.06007 14.1617C4.46755 14.1617 4.5378 14.1561 4.55185 14.1168C4.56028 14.0915 4.56871 13.4985 4.56871 12.796V11.5202L4.09941 11.523C3.83807 11.5258 3.60763 11.5314 3.57953 11.5398Z" fill="#000"/>
<path id="Vector_17" d="M5.30513 12.0201C5.27422 12.0398 5.2686 12.2477 5.27703 13.0767C5.28546 13.9563 5.29108 14.1109 5.32762 14.1334C5.3501 14.1502 5.56648 14.1587 5.8194 14.1531L6.26903 14.1474L6.27746 13.1105C6.28027 12.5372 6.27184 12.0595 6.2606 12.0482C6.22407 12.0117 5.3501 11.9892 5.30513 12.0201Z" fill="#000"/>
<path id="Vector_18" d="M7.05564 12.4722L6.88702 12.4891L6.89545 13.2478C6.90107 13.6638 6.90951 14.0403 6.91794 14.0797L6.93199 14.1527L7.41534 14.1696C7.73008 14.178 7.90993 14.1724 7.93522 14.1555C7.96052 14.1331 7.96895 13.9363 7.96333 13.2928L7.95489 12.461L7.58957 12.4582C7.39005 12.4582 7.14837 12.4638 7.05564 12.4722Z" fill="#000"/>
<path id="Vector_19" d="M8.53101 15.0712C7.98583 15.192 7.50529 15.7232 7.40413 16.3133C7.37321 16.4819 7.37602 16.5578 7.41256 16.7826C7.43504 16.9287 7.48843 17.117 7.52777 17.2041C7.71044 17.6032 8.15164 17.8926 8.71086 17.9854C9.11834 18.05 9.56797 17.8983 9.92767 17.5751C10.0654 17.4514 10.13 17.3643 10.2227 17.176C10.338 16.9428 10.3436 16.9231 10.352 16.6309C10.3633 16.2796 10.3267 16.111 10.1693 15.8103C10.0513 15.5855 9.7703 15.3101 9.52301 15.1808C9.25604 15.0375 8.87104 14.9953 8.53101 15.0712ZM9.18859 15.5995C9.34877 15.6473 9.6326 15.9339 9.73377 16.1475C9.7984 16.288 9.80965 16.3442 9.80683 16.5634C9.80683 16.7798 9.79559 16.836 9.73096 16.9625C9.52863 17.3559 9.10148 17.547 8.64061 17.4486C8.18817 17.3531 7.91277 16.9625 7.9493 16.4735C7.9774 16.0997 8.16569 15.8075 8.48043 15.6501C8.62656 15.5798 8.68557 15.5658 8.86261 15.5658C8.97783 15.5658 9.12396 15.5798 9.18859 15.5995Z" fill="#F2F2F2"/>
</g>
</svg>
