<svg width="120" height="42" viewBox="0 0 120 42" fill="none" xmlns="http://www.w3.org/2000/svg">
<g id="3 6" clip-path="url(#clip0_309_425)">
<g id="Clip path group">
<mask id="mask0_309_425" style="mask-type:luminance" maskUnits="userSpaceOnUse" x="8" y="7" width="104" height="36">
<g id="clip0_1034_2459">
<path id="Vector" d="M111.999 7.28772H8V42.6994H111.999V7.28772Z" fill="white"/>
</g>
</mask>
<g mask="url(#mask0_309_425)">
<g id="Group">
<g id="Mask group">
<mask id="mask1_309_425" style="mask-type:luminance" maskUnits="userSpaceOnUse" x="8" y="7" width="104" height="36">
<g id="Group_2">
<path id="Vector_2" d="M112 7.28595H8.00122V42.6977H112V7.28595Z" fill="white"/>
</g>
</mask>
<g mask="url(#mask1_309_425)">
<g id="Group_3">
<path id="Vector_3" d="M8.78833 19.0978L15.8809 10.4325C17.144 8.91291 19.3055 8.41407 21.1032 9.29301L23.751 10.5513L8.78833 19.0978Z" fill="#75F7FF"/>
<path id="Vector_4" d="M26.1134 7.28595L39.1322 17.5236L39.4668 14.9987C39.5918 14.0578 39.373 13.1043 38.8485 12.3034C38.324 11.5026 37.5267 10.9051 36.595 10.6145L26.1134 7.28595Z" fill="#75F7FF"/>
<path id="Vector_5" d="M43.4395 19.0991L37.1394 35.6369L39.8318 35.1072C41.8821 34.7035 43.3887 32.8885 43.3887 30.746L43.4395 19.0991Z" fill="#75F7FF"/>
<path id="Vector_6" d="M37.1396 38.7854H19.8143L21.2662 40.869C21.8089 41.6451 22.6288 42.2273 23.5878 42.5179C24.5468 42.8085 25.5865 42.7898 26.532 42.4646L37.1396 38.7854Z" fill="#75F7FF"/>
<path id="Vector_7" d="M11.7121 23.0369L9.41723 25.0153C8.65973 25.6701 8.17339 26.5391 8.03905 27.4779C7.90472 28.4168 8.13048 29.3688 8.67882 30.1757L15.0888 39.5746L11.7121 23.0369Z" fill="#75F7FF"/>
<path id="Vector_8" d="M57.9227 12.7992C57.9227 13.2549 58.0365 13.5589 58.2634 13.7023C58.4903 13.8458 58.8646 13.9183 59.3757 13.9183H60.7642V14.9893H57.9391V18.2832C57.9371 18.4449 57.9561 18.6063 57.9956 18.7633C58.0276 18.903 58.0854 19.0356 58.1659 19.1545C58.2449 19.2669 58.3511 19.3578 58.4748 19.4186C58.6248 19.4872 58.7889 19.5201 58.9539 19.5147H60.7642V20.6738H58.6533C58.012 20.6738 57.5328 20.4741 57.2002 20.0821C56.8677 19.69 56.7088 19.1463 56.7088 18.4755V14.9893H55.2516V13.9298H58.3961C57.8113 13.9298 57.3813 13.8254 57.1052 13.6257C56.8292 13.426 56.6907 13.0421 56.6907 12.4846V11.2237H57.9251L57.9227 12.7992Z" fill="#75F7FF"/>
<path id="Vector_9" d="M61.5529 17.5301C61.5529 16.4513 61.869 15.6613 62.4956 15.1432C63.1221 14.625 63.9974 14.3743 65.1265 14.3743C66.2403 14.3743 67.1097 14.6184 67.7203 15.1145C68.3309 15.6107 68.6405 16.4154 68.6405 17.533C68.6405 18.5826 68.3316 19.3733 67.7065 19.8907C67.0814 20.4082 66.2185 20.6742 65.1192 20.6742C64.6355 20.6789 64.1537 20.6134 63.6884 20.48C63.2763 20.3655 62.8921 20.1659 62.5601 19.8937C62.2425 19.6264 61.9893 19.2895 61.8197 18.9087C61.6392 18.5158 61.5529 18.0549 61.5529 17.5301ZM62.6595 17.5154C62.6491 17.8554 62.7103 18.1936 62.8393 18.5078C62.9528 18.7707 63.1269 19.0024 63.3469 19.1835C63.5809 19.3655 63.8507 19.4952 64.1381 19.5639C64.4677 19.6475 64.8062 19.6894 65.146 19.6885C65.9227 19.6885 66.5187 19.5089 66.9212 19.1424C67.3236 18.776 67.5324 18.2367 67.5324 17.5177C67.5324 16.7848 67.3309 16.238 66.9284 15.9002C66.5259 15.5624 65.9299 15.3828 65.146 15.3828C64.3621 15.3828 63.7515 15.5624 63.3135 15.9148C62.8755 16.2674 62.6595 16.8039 62.6595 17.5154Z" fill="#75F7FF"/>
<path id="Vector_10" d="M74.1535 15.4366H72.5024C72.0633 15.4366 71.722 15.5164 71.4775 15.6698C71.2418 15.8172 71.0537 16.0191 70.9326 16.2545C70.8105 16.4887 70.7363 16.7411 70.7135 16.9993C70.6889 17.263 70.6724 17.5036 70.6724 17.7158V20.6744H69.4283V14.5234H70.6642V16.6194C70.6569 16.2909 70.7176 15.9639 70.8431 15.6556C70.9546 15.3945 71.1218 15.1561 71.3354 14.9539C71.5403 14.7619 71.7906 14.6147 72.0674 14.5234C72.3551 14.4218 72.6615 14.3713 72.9701 14.3745H74.1494V15.4344L74.1535 15.4366Z" fill="#75F7FF"/>
<path id="Vector_11" d="M81.5248 14.3743H82.8154V20.4923H81.5248V17.8756C81.5248 18.4321 81.4178 18.8876 81.193 19.2488C81.002 19.5886 80.7232 19.8834 80.3794 20.1091C80.0682 20.3166 79.7135 20.467 79.3361 20.5513C79.0054 20.6274 78.6657 20.6687 78.3242 20.6744C78.1302 20.6738 77.9365 20.664 77.7437 20.6449C77.4985 20.6206 77.2563 20.5771 77.0197 20.5152C76.7598 20.446 76.5094 20.3513 76.2732 20.2329C76.0164 20.1073 75.7878 19.9406 75.5989 19.7412C75.3874 19.52 75.2256 19.2647 75.122 18.9894C74.9924 18.6497 74.9312 18.2924 74.9413 17.9338V14.3743H76.2309V17.6567C76.2309 18.2781 76.4366 18.755 76.8471 19.1022C77.2577 19.4494 77.8507 19.6226 78.6311 19.6226C79.0053 19.624 79.3781 19.5804 79.7391 19.4928C80.0684 19.4163 80.38 19.2891 80.6598 19.1169C80.9149 18.957 81.128 18.7498 81.2843 18.5095C81.4451 18.2485 81.5246 17.9541 81.5149 17.6567V14.3743H81.5248Z" fill="#75F7FF"/>
<path id="Vector_12" d="M84.7539 18.6495C84.7636 18.8435 84.8359 19.0304 84.9619 19.1856C85.0939 19.3372 85.2638 19.4559 85.4584 19.5308C85.694 19.6254 85.9452 19.6848 86.2017 19.7067C86.5088 19.7438 86.819 19.7611 87.1299 19.7584C87.4176 19.7584 87.7061 19.7509 87.9939 19.7284C88.2593 19.7107 88.5225 19.6665 88.7774 19.5967C88.9877 19.54 89.1837 19.445 89.3537 19.3174C89.4283 19.259 89.4864 19.1857 89.5252 19.103C89.564 19.0203 89.5818 18.9305 89.5774 18.8404C89.5774 18.6562 89.4335 18.502 89.1539 18.3627C88.8736 18.2235 88.4338 18.1381 87.8344 18.0835L85.8968 17.885C85.5978 17.8572 85.3026 17.7981 85.0171 17.7091C84.7577 17.6364 84.5124 17.5249 84.291 17.3789C84.0882 17.2482 83.9189 17.0776 83.7944 16.8795C83.6595 16.6503 83.5939 16.3916 83.6036 16.1306C83.6133 15.8696 83.699 15.6159 83.8511 15.3961C84.0308 15.1558 84.2731 14.9611 84.5549 14.83C84.903 14.6671 85.275 14.5533 85.659 14.4924C86.1361 14.4088 86.6207 14.3695 87.106 14.3748C87.5809 14.371 88.0558 14.4119 88.5217 14.4969C88.9027 14.5627 89.268 14.6894 89.602 14.8713C89.8823 15.0241 90.1186 15.2385 90.2893 15.4957C90.4556 15.766 90.5391 16.0733 90.5316 16.3845H89.3962C89.3962 15.9877 89.1875 15.7009 88.7804 15.5324C88.3726 15.3639 87.8113 15.2756 87.1 15.2756C86.8302 15.2759 86.5603 15.2904 86.2927 15.319C86.0347 15.3459 85.7797 15.396 85.5322 15.4687C85.3295 15.5268 85.1393 15.6189 84.9724 15.7405C84.9038 15.79 84.8486 15.8536 84.8113 15.9263C84.7741 15.9989 84.7554 16.0786 84.7569 16.1591C84.7569 16.3501 84.8844 16.511 85.1401 16.6586C85.3958 16.806 85.8446 16.9004 86.4686 16.9663L88.6597 17.2163C88.9318 17.2467 89.2001 17.3034 89.4596 17.3856C89.6914 17.4577 89.9099 17.5642 90.1052 17.7008C90.2841 17.8265 90.4317 17.987 90.5368 18.171C90.6434 18.3664 90.6956 18.5834 90.6897 18.8023C90.6897 19.1699 90.6017 19.4708 90.434 19.706C90.2528 19.9548 90.0038 20.1549 89.7131 20.2863C89.3575 20.4455 88.9757 20.5468 88.5829 20.5858C88.102 20.6469 87.6159 20.6764 87.1306 20.6742C86.643 20.6782 86.157 20.6388 85.6776 20.5566C85.2885 20.4933 84.9135 20.3716 84.5661 20.1964C84.2746 20.0459 84.0293 19.8286 83.8541 19.5652C83.6811 19.2839 83.5947 18.9636 83.6058 18.6398H84.7584L84.7539 18.6495Z" fill="#75F7FF"/>
<path id="Vector_13" d="M109.843 23.0912H112.033V36.6595H109.843V23.0912Z" fill="#75F7FF"/>
<path id="Vector_14" d="M101.663 36.9102C101.185 36.9102 100.713 36.8456 100.248 36.7164C99.7958 36.5872 99.382 36.3997 99.0078 36.1542C98.6454 35.8958 98.3487 35.5792 98.1161 35.2045C97.8962 34.8168 97.7866 34.371 97.7866 33.867C97.7866 33.3631 97.9089 32.9366 98.1549 32.5877C98.4002 32.2388 98.717 31.961 99.1047 31.7542C99.4924 31.5345 99.9188 31.3731 100.384 31.2697C100.862 31.1534 101.32 31.0887 101.76 31.0758L106.548 30.8626V30.5331C106.548 30.1196 106.457 29.7772 106.276 29.5058C106.095 29.2215 105.85 28.9953 105.54 28.8274C105.23 28.6594 104.874 28.5431 104.474 28.4785C104.073 28.4138 103.653 28.3816 103.214 28.3816C102.774 28.3816 102.361 28.4268 101.973 28.5172C101.586 28.5948 101.243 28.7176 100.946 28.8855C100.661 29.0535 100.435 29.2732 100.268 29.5446C100.099 29.803 100.016 30.1067 100.016 30.4556H98.0192C98.0192 29.7965 98.1415 29.2279 98.3875 28.7498C98.6455 28.2717 99.0011 27.8841 99.4536 27.5868C99.9188 27.2896 100.467 27.07 101.101 26.9278C101.734 26.7856 102.439 26.7146 103.214 26.7146C104.984 26.7146 106.328 27.0635 107.246 27.7613C108.176 28.4591 108.641 29.5898 108.641 31.1534V36.6388H106.587V33.1886C106.587 33.9898 106.399 34.6359 106.025 35.1269C105.65 35.605 105.197 35.9798 104.668 36.2512C104.15 36.5096 103.614 36.6841 103.059 36.7745C102.503 36.8649 102.038 36.9102 101.663 36.9102ZM102.322 35.3014C102.697 35.3014 103.13 35.2691 103.621 35.2045C104.112 35.1269 104.577 35.0041 105.017 34.8362C105.456 34.6682 105.824 34.4485 106.121 34.1772C106.432 33.8929 106.587 33.5375 106.587 33.1111V32.3745L102.594 32.549C102.322 32.5619 102.032 32.5942 101.721 32.6459C101.411 32.6846 101.121 32.7557 100.849 32.8591C100.59 32.9495 100.371 33.0723 100.19 33.2274C100.022 33.3695 99.9382 33.5569 99.9382 33.7895C99.9382 34.0738 100.009 34.3128 100.151 34.5067C100.306 34.7005 100.494 34.8556 100.713 34.9719C100.946 35.0882 101.204 35.1722 101.489 35.2239C101.773 35.2755 102.051 35.3014 102.322 35.3014Z" fill="#75F7FF"/>
<path id="Vector_15" d="M93.3411 25.3397C93.3411 25.9987 93.4962 26.438 93.8063 26.6577C94.1291 26.8645 94.6465 26.9679 95.357 26.9679H96.9658V28.8093H93.3411V33.0736C93.3411 33.5259 93.438 33.9006 93.6319 34.1978C93.8257 34.4951 94.1552 34.6436 94.6204 34.6436H96.9658V36.6595H93.9808C93.0764 36.6595 92.3913 36.3752 91.9261 35.8066C91.4609 35.238 91.2283 34.4692 91.2283 33.5V28.8093H89.1737V26.9679H93.7094C93.309 26.9679 92.9534 26.942 92.6433 26.8903C92.3332 26.8257 92.0685 26.7159 91.8486 26.5608C91.6421 26.3929 91.4803 26.1603 91.364 25.863C91.2604 25.5529 91.2089 25.1523 91.2089 24.6613V23.0912H93.3411V25.3397Z" fill="#75F7FF"/>
<path id="Vector_16" d="M86.6485 25.1057C86.2735 25.1057 85.9567 24.9829 85.6987 24.7374C85.4527 24.479 85.3304 24.1624 85.3304 23.7877C85.3304 23.4129 85.4527 23.1028 85.6987 22.8573C85.9567 22.5988 86.2735 22.4696 86.6485 22.4696C87.0227 22.4696 87.3329 22.5988 87.5789 22.8573C87.8242 23.1028 87.9472 23.4129 87.9472 23.7877C87.9472 24.1624 87.8242 24.479 87.5789 24.7374C87.3329 24.9829 87.0227 25.1057 86.6485 25.1057ZM85.5824 26.9859H87.7534V36.6581H85.5824V26.9859Z" fill="#75F7FF"/>
<path id="Vector_17" d="M82.0039 26.967H84.1358V35.5538C84.1358 36.3163 84.0136 37.0012 83.7676 37.6085C83.535 38.2287 83.1861 38.7521 82.7209 39.1785C82.2689 39.6179 81.7132 39.9538 81.0541 40.1864C80.4081 40.419 79.6715 40.5353 78.8444 40.5353H74.8902V38.6358H78.8832C79.917 38.6358 80.6923 38.3903 81.2092 37.8992C81.739 37.4082 82.0039 36.6264 82.0039 35.5538V32.7626C81.8488 33.6543 81.5711 34.365 81.1704 34.8948C80.7699 35.4246 80.3369 35.8252 79.8717 36.0966C79.4195 36.3679 78.9737 36.5489 78.5343 36.6393C78.095 36.7168 77.7526 36.7556 77.507 36.7556C76.7188 36.7556 76.0274 36.6329 75.433 36.3873C74.8515 36.1289 74.3734 35.78 73.9986 35.3406C73.6239 34.8884 73.3396 34.3586 73.1458 33.7512C72.9649 33.1439 72.8744 32.4913 72.8744 31.7935C72.8744 31.0311 72.9713 30.3397 73.1651 29.7195C73.359 29.0863 73.6562 28.5501 74.0568 28.1107C74.4574 27.6584 74.9549 27.3095 75.5493 27.064C76.1437 26.8185 76.8415 26.6957 77.6427 26.6957C77.9399 26.6957 78.3017 26.7409 78.7281 26.8314C79.1675 26.9089 79.6004 27.0898 80.0268 27.3741C80.4662 27.6455 80.8668 28.0461 81.2286 28.5759C81.5904 29.1057 81.8488 29.8164 82.0039 30.708V26.967ZM81.9845 31.8129C81.9845 31.2831 81.8876 30.8243 81.6938 30.4366C81.4999 30.0361 81.2351 29.7066 80.8991 29.4481C80.576 29.1897 80.1948 28.9959 79.7554 28.8666C79.3161 28.7374 78.8509 28.6728 78.3599 28.6728C77.9334 28.6728 77.52 28.7374 77.1193 28.8666C76.7188 28.9959 76.3634 29.1897 76.0532 29.4481C75.7431 29.7066 75.4911 30.0361 75.2973 30.4366C75.1035 30.8243 75.0066 31.2831 75.0066 31.8129C75.0066 32.3168 75.1035 32.7562 75.2973 33.1309C75.5041 33.5057 75.769 33.8223 76.092 34.0807C76.4151 34.3263 76.7704 34.5136 77.1581 34.6428C77.5587 34.7591 77.9593 34.8173 78.3599 34.8173C78.838 34.8173 79.2967 34.7591 79.7361 34.6428C80.1755 34.5136 80.5566 34.3263 80.8797 34.0807C81.2157 33.8223 81.4806 33.5057 81.6744 33.1309C81.8812 32.7562 81.9845 32.3168 81.9845 31.8129Z" fill="#75F7FF"/>
<path id="Vector_18" d="M70.3493 25.1057C69.9746 25.1057 69.658 24.9829 69.3995 24.7374C69.154 24.479 69.0312 24.1624 69.0312 23.7877C69.0312 23.4129 69.154 23.1028 69.3995 22.8573C69.658 22.5988 69.9746 22.4696 70.3493 22.4696C70.7241 22.4696 71.0342 22.5988 71.2797 22.8573C71.5253 23.1028 71.648 23.4129 71.648 23.7877C71.648 24.1624 71.5253 24.479 71.2797 24.7374C71.0342 24.9829 70.7241 25.1057 70.3493 25.1057ZM69.2832 26.9859H71.4542V36.6581H69.2832V26.9859Z" fill="#75F7FF"/>
<path id="Vector_19" d="M61.2598 36.6595H55.2704V23.0912H61.0854C62.1191 23.0912 63.0495 23.2657 63.8766 23.6146C64.7035 23.9506 65.4078 24.4222 65.9893 25.0295C66.5837 25.6239 67.036 26.3411 67.3462 27.1811C67.6692 28.0081 67.8307 28.9191 67.8307 29.9141C67.8307 30.9092 67.6692 31.8202 67.3462 32.6472C67.036 33.4742 66.5902 34.1849 66.0087 34.7793C65.4401 35.3737 64.7488 35.8389 63.9347 36.1749C63.1335 36.4979 62.2419 36.6595 61.2598 36.6595ZM57.4219 25.1071V34.6436H60.9691C61.7056 34.6436 62.3582 34.5338 62.9268 34.3141C63.5083 34.0815 63.9929 33.7585 64.3805 33.345C64.7682 32.9314 65.0653 32.4339 65.2721 31.8524C65.4789 31.271 65.5823 30.6248 65.5823 29.9141C65.5823 29.1776 65.4724 28.512 65.2528 27.9176C65.046 27.3233 64.7358 26.8193 64.3224 26.4058C63.9217 25.9922 63.4243 25.6757 62.8299 25.456C62.2354 25.2234 61.557 25.1071 60.7946 25.1071H57.4219Z" fill="#75F7FF"/>
</g>
</g>
</g>
</g>
</g>
</g>
</g>
<defs>
<clipPath id="clip0_309_425">
<rect width="120" height="40.8309" fill="white" transform="translate(0 0.581146)"/>
</clipPath>
</defs>
</svg>
