<svg width="18" height="18" viewBox="0 0 18 18" fill="#000" xmlns="http://www.w3.org/2000/svg">
<g id="DALL&#194;&#183;E-2024-11-07-14.26 1" clip-path="url(#clip0_1945_3581)">
<g id="Group">
<path id="Vector" d="M4.48242 0.74707C4.47188 0.773438 4.46484 0.799805 4.46484 0.808594C4.46484 0.861328 4.30137 0.878906 4.21699 0.833203C4.18711 0.819141 4.16074 0.808594 4.15898 0.812109C4.15723 0.815625 4.1168 0.85957 4.06934 0.910547L3.98496 1.00195L4.04297 1.07578C4.09746 1.14258 4.09922 1.15137 4.07637 1.19355C4.0623 1.21816 4.01836 1.25508 3.97793 1.27441L3.90234 1.30781V1.44141C3.90234 1.58555 3.91816 1.61719 3.98672 1.61719C4.09922 1.61719 4.1291 1.70156 4.05176 1.80176L4.00957 1.85977L4.06055 1.93184C4.08867 1.97051 4.13262 2.01621 4.15723 2.03203C4.20117 2.06016 4.20469 2.06016 4.25039 2.01797C4.31016 1.96172 4.3541 1.94766 4.4209 1.96523C4.46484 1.97754 4.47539 1.9916 4.48594 2.05664C4.49297 2.09883 4.50879 2.13926 4.52109 2.14805C4.5334 2.15508 4.6002 2.16211 4.67051 2.16211H4.79531L4.80762 2.08652C4.83223 1.94238 4.89902 1.91602 5.01152 2.00742L5.08008 2.06367L5.13457 2.01094C5.16445 1.98281 5.19961 1.93887 5.21367 1.91074C5.23828 1.8668 5.23652 1.85801 5.19434 1.80352C5.11699 1.70332 5.14512 1.61719 5.25586 1.61719C5.34902 1.61719 5.37891 1.57148 5.37891 1.43262C5.37891 1.30957 5.37187 1.29727 5.29453 1.26562C5.175 1.21816 5.15391 1.14785 5.22949 1.0582C5.2541 1.02832 5.27344 1.0002 5.27344 0.994922C5.27344 0.987891 5.23652 0.943945 5.19258 0.896484L5.11172 0.810351L5.04844 0.84375C4.92715 0.908789 4.82168 0.877148 4.81289 0.775195L4.80762 0.711914L4.65293 0.706641C4.50176 0.701367 4.5 0.703125 4.48242 0.74707ZM4.68984 0.887695C4.70215 0.947461 4.74258 0.977344 4.84805 1.00195C4.99043 1.03359 5.00449 1.04414 5.03437 1.14609C5.04844 1.19707 5.08535 1.27793 5.11523 1.32363L5.16973 1.40977L5.12578 1.45898C5.10293 1.48711 5.06602 1.56094 5.04492 1.62422C4.99395 1.77715 4.9834 1.78418 4.76016 1.83516C4.73027 1.84219 4.70039 1.8668 4.68281 1.9002L4.65469 1.95469L4.60898 1.91074C4.5791 1.88262 4.52285 1.85977 4.45781 1.8457C4.31016 1.81582 4.24336 1.74902 4.19941 1.59082C4.17832 1.50996 4.15195 1.45547 4.12383 1.43262C4.0834 1.40098 4.0834 1.39395 4.10801 1.3623C4.12207 1.34297 4.16074 1.2709 4.19238 1.20234C4.25918 1.05645 4.31016 1.0125 4.44023 0.982617C4.51758 0.965039 4.54219 0.950976 4.56152 0.912305C4.60195 0.836719 4.6793 0.822656 4.68984 0.887695Z" fill="#000"/>
<path id="Vector_2" d="M4.50531 1.14268C4.43675 1.18311 4.34886 1.30088 4.33304 1.3712C4.31722 1.43975 4.35062 1.55225 4.40511 1.61729C4.53167 1.76495 4.75667 1.75264 4.88148 1.58741C4.92191 1.53467 4.9307 1.50655 4.9307 1.42569C4.92894 1.29913 4.86742 1.18135 4.78128 1.13916C4.69867 1.09698 4.57562 1.09873 4.50531 1.14268ZM4.69339 1.27452C4.72152 1.28858 4.75316 1.3167 4.76371 1.33428C4.81644 1.43623 4.7391 1.58213 4.63187 1.58213C4.5598 1.58213 4.48246 1.49952 4.48246 1.42569C4.48246 1.35362 4.5598 1.26573 4.63714 1.24991C4.64066 1.24815 4.66527 1.26045 4.69339 1.27452Z" fill="#000"/>
<path id="Vector_3" d="M10.8387 0.789223C10.568 0.929848 10.5065 1.01422 10.4766 1.30426C10.4485 1.56618 10.452 1.59782 10.503 1.61715C10.5276 1.62594 10.5627 1.66813 10.5909 1.72086C10.6366 1.81403 10.6682 1.83864 10.7842 1.87379L10.8545 1.89489L10.8493 1.99157C10.844 2.07418 10.8493 2.09176 10.8791 2.10758C10.9178 2.12868 11.1463 2.13395 11.2746 2.11637L11.3573 2.10407L11.3537 2.02321C11.3502 1.9775 11.3537 1.9318 11.3608 1.92125C11.3678 1.91071 11.4223 1.88434 11.4821 1.86325C11.6209 1.81227 11.6368 1.79821 11.6631 1.69274C11.6842 1.61188 11.6877 1.60836 11.751 1.60309L11.8161 1.59782L11.8037 1.42028C11.7791 1.05641 11.6825 0.857778 11.5207 0.838442C11.4786 0.834926 11.4223 0.81559 11.3977 0.798012C11.2993 0.7277 11.2746 0.720668 11.1235 0.720668C10.9793 0.720668 10.9618 0.724184 10.8387 0.789223ZM11.3028 0.96852C11.526 1.07399 11.5946 1.16012 11.6139 1.36051C11.6244 1.48356 11.6139 1.51344 11.5172 1.62067C11.4469 1.69977 11.3625 1.74723 11.243 1.77711C11.1815 1.79293 11.1639 1.80348 11.1692 1.82633C11.1727 1.84215 11.1815 1.88082 11.1885 1.91071L11.2008 1.96872H11.1024H11.0039V1.88082C11.0039 1.79469 11.0039 1.79469 10.9213 1.75778C10.8018 1.70504 10.728 1.64352 10.6858 1.55914C10.6541 1.49762 10.6489 1.46774 10.6577 1.36579C10.6735 1.17243 10.7209 1.0986 10.8897 0.998403C11.0655 0.894692 11.1358 0.889418 11.3028 0.96852Z" fill="#000"/>
<path id="Vector_4" d="M11.0426 1.05636C11.0109 1.06515 10.9406 1.11613 10.8879 1.1671C10.7982 1.25324 10.793 1.26378 10.793 1.3464C10.7947 1.47296 10.8439 1.56964 10.9371 1.62413C11.0268 1.67687 11.0848 1.68038 11.2113 1.64347C11.366 1.59777 11.4785 1.46593 11.4785 1.33058C11.4785 1.25499 11.3924 1.11788 11.3203 1.08097C11.25 1.04581 11.1182 1.03351 11.0426 1.05636ZM11.192 1.19523C11.2061 1.19523 11.2412 1.21808 11.2693 1.24796C11.3115 1.28839 11.3186 1.30773 11.3098 1.34816C11.2746 1.49581 11.0742 1.55031 10.9828 1.43956C10.9406 1.38859 10.9424 1.2796 10.9846 1.24093C11.0232 1.20577 11.1076 1.17765 11.141 1.1882C11.1551 1.19171 11.1762 1.19523 11.192 1.19523Z" fill="#000"/>
<path id="Vector_5" d="M1.87031 0.764733C1.45547 0.854381 1.08809 1.13915 0.898242 1.51708C0.778711 1.75438 0.740039 1.93719 0.738281 2.24305C0.738281 2.69833 0.877148 3.01122 1.2252 3.34169C1.34824 3.4577 1.40977 3.49813 1.57148 3.57723C1.8123 3.69501 1.95645 3.73192 2.19727 3.73368C2.3502 3.73544 2.40996 3.72665 2.54531 3.68622C2.85469 3.59481 3.03047 3.4911 3.2291 3.28895C3.43828 3.07626 3.57539 2.82313 3.63164 2.54364C3.67031 2.35028 3.65801 1.9952 3.60352 1.81063C3.55781 1.64891 3.43301 1.40985 3.32754 1.27626C3.15176 1.05477 2.8002 0.824498 2.54707 0.764733C2.40645 0.733092 2.01973 0.731334 1.87031 0.764733ZM2.43457 0.940514C2.67539 0.99149 2.99883 1.19012 3.17285 1.39227C3.31172 1.55575 3.45234 1.90555 3.46641 2.11825L3.47168 2.20614L3.23438 2.21669C3.1043 2.22372 2.82656 2.22899 2.61914 2.23075C2.41172 2.23251 2.23066 2.23954 2.2166 2.24833C2.18672 2.26766 2.16914 2.2413 2.47852 2.65614C2.87402 3.19051 2.92676 3.2661 2.92676 3.2995C2.92676 3.31883 2.88633 3.34872 2.8125 3.38739C2.32734 3.63172 1.86328 3.59657 1.4502 3.28368C1.30957 3.17645 1.2041 3.05165 1.08457 2.8495C0.97207 2.66141 0.931641 2.54188 0.931641 2.3995V2.28524L1.55215 2.28172L2.1709 2.27645L2.16387 1.63309C2.16035 1.27977 2.16387 0.972154 2.1709 0.952818C2.18496 0.905358 2.25352 0.901842 2.43457 0.940514ZM1.95645 0.961607C1.97754 0.998522 1.93008 1.05301 1.85098 1.0829C1.7332 1.12508 1.54512 1.23758 1.45195 1.3202C1.26914 1.48192 1.14609 1.6788 1.05469 1.96005C1.01777 2.07255 0.99668 2.1077 0.965039 2.10946C0.91582 2.11122 0.97207 1.79833 1.0459 1.65243C1.15664 1.43094 1.34297 1.22001 1.52227 1.1163C1.59434 1.07411 1.89668 0.952818 1.93711 0.949303C1.94414 0.949303 1.95293 0.954576 1.95645 0.961607Z" fill="#000"/>
<path id="Vector_6" d="M12.3645 0.755881C12.3258 0.768186 12.3065 0.787522 12.3012 0.815647C12.2783 0.928147 12.3029 0.931663 13.108 0.929905C13.5018 0.928147 13.943 0.922874 14.0871 0.915842L14.3508 0.905295L14.3561 0.852561C14.3666 0.741819 14.4211 0.747092 13.3734 0.743577C12.8022 0.741819 12.3961 0.747092 12.3645 0.755881Z" fill="#000"/>
<path id="Vector_7" d="M6.30703 0.775212C6.28418 0.787516 6.27539 0.817399 6.27363 0.875407C6.27012 1.01427 6.2543 1.05822 6.20156 1.0758C6.16465 1.0881 6.14004 1.08283 6.08379 1.04767C6.04512 1.02306 6.00293 1.00197 5.99063 1.00197C5.97656 1.00197 5.89219 1.0758 5.80254 1.1672L5.6373 1.33244L5.70234 1.42209C5.79375 1.54513 5.7832 1.5715 5.65137 1.57853C5.59336 1.58205 5.54063 1.59435 5.53359 1.6049C5.52656 1.6172 5.51953 1.7297 5.51953 1.85627C5.51953 2.12697 5.52656 2.13927 5.67773 2.14806C5.79551 2.15509 5.8043 2.17795 5.73223 2.28517C5.69531 2.33966 5.68477 2.37131 5.69531 2.3924C5.71641 2.42931 5.95898 2.68947 5.9748 2.68947C5.98008 2.68947 6.02754 2.65783 6.08027 2.61916C6.22441 2.51017 6.27363 2.52775 6.27539 2.68595C6.27539 2.79142 6.29473 2.80724 6.4459 2.81779C6.52148 2.82482 6.63047 2.82306 6.68848 2.81603L6.79395 2.80373L6.81152 2.67365C6.82031 2.60158 6.83789 2.54006 6.84668 2.53654C6.85723 2.53302 6.91348 2.5717 6.975 2.62091L7.08398 2.70881L7.22461 2.56291C7.30195 2.48205 7.37051 2.39943 7.37578 2.37834C7.38281 2.35021 7.37051 2.31681 7.33184 2.26408C7.27207 2.18322 7.25977 2.10236 7.30547 2.08478C7.32129 2.07951 7.35996 2.07423 7.3916 2.07423C7.4584 2.07423 7.47598 2.04435 7.46191 1.96173C7.45664 1.93185 7.46367 1.86681 7.47773 1.81935C7.51113 1.71388 7.51289 1.64181 7.48477 1.62424C7.47246 1.6172 7.42324 1.60138 7.37578 1.59084C7.32832 1.58029 7.28613 1.56271 7.28262 1.55216C7.2791 1.54338 7.30898 1.48537 7.34941 1.42736L7.42148 1.31838L7.27559 1.16017C7.19648 1.07228 7.1209 1.00197 7.10684 1.00197C7.09453 1.00197 7.04355 1.02131 6.99609 1.04591C6.8502 1.11974 6.83438 1.1092 6.81855 0.917594C6.81152 0.834977 6.79922 0.782243 6.7834 0.771696C6.75 0.750602 6.34395 0.75236 6.30703 0.775212ZM6.66211 1.05295C6.66211 1.17072 6.66387 1.17423 6.71133 1.18654C6.7377 1.19181 6.79746 1.21642 6.84316 1.24103C6.95215 1.29552 6.96973 1.29377 7.01719 1.23048L7.05586 1.17775L7.13145 1.25158C7.17363 1.29201 7.20703 1.33244 7.20703 1.34123C7.20703 1.34826 7.18418 1.37638 7.1543 1.40099C7.09453 1.45021 7.09102 1.47834 7.12969 1.61017C7.15957 1.71564 7.18945 1.74025 7.28613 1.74025C7.33711 1.74025 7.35117 1.74904 7.36523 1.78595C7.38984 1.84923 7.38633 1.93361 7.36172 1.9424C7.34941 1.94591 7.29492 1.95295 7.23867 1.95998C7.12617 1.97228 7.12266 1.9758 7.10684 2.13048C7.09629 2.23068 7.09805 2.23595 7.15254 2.28166L7.21055 2.32912L7.13145 2.41349L7.0541 2.49963L6.99609 2.41877C6.9627 2.37482 6.93105 2.33791 6.92402 2.33791C6.91523 2.33791 6.88008 2.35373 6.84316 2.37131C6.80625 2.39064 6.74648 2.41173 6.71133 2.41701L6.64453 2.42931V2.53302V2.63673H6.51973H6.39316L6.40547 2.53302L6.41777 2.42931L6.35273 2.40822C6.31582 2.39591 6.25957 2.36955 6.22793 2.35021L6.16816 2.31506L6.08379 2.39767L6.00117 2.47853L5.94316 2.41877C5.8834 2.35724 5.87988 2.31154 5.93262 2.26759C5.96426 2.24123 5.96602 2.17795 5.93438 2.07423C5.90977 1.9881 5.85703 1.95998 5.75508 1.97756C5.70059 1.98634 5.70059 1.98634 5.69004 1.89494C5.66543 1.70158 5.66191 1.70685 5.79375 1.70158L5.90801 1.69631L5.94316 1.59435C5.97656 1.4924 5.97656 1.4924 5.94316 1.44318C5.92383 1.41681 5.8957 1.38517 5.88164 1.37287C5.85703 1.35177 5.86406 1.33947 5.9291 1.26564L6.00293 1.18302L6.06445 1.23224C6.13652 1.29201 6.15059 1.29377 6.20684 1.25158C6.22969 1.234 6.28594 1.20939 6.3334 1.19533L6.41602 1.17248V1.05295V0.931657H6.53906H6.66211V1.05295Z" fill="#000"/>
<path id="Vector_8" d="M6.47757 1.3694C6.38792 1.39225 6.30882 1.44147 6.22092 1.52936C6.09964 1.65065 6.06975 1.79303 6.126 1.97936C6.1928 2.2026 6.41604 2.31158 6.67268 2.2483C6.77815 2.22193 6.93108 2.08307 6.97151 1.9776C7.00842 1.8774 6.99788 1.7069 6.9469 1.60494C6.86428 1.44322 6.63753 1.32897 6.47757 1.3694ZM6.70608 1.58912C6.79925 1.66119 6.8221 1.7069 6.82385 1.82467C6.82561 1.94596 6.79221 2.00221 6.68323 2.069C6.60061 2.11998 6.51272 2.11998 6.41428 2.069C6.31585 2.01627 6.26839 1.93717 6.26663 1.8194C6.26487 1.58209 6.52151 1.4485 6.70608 1.58912Z" fill="#000"/>
<path id="Vector_9" d="M8.58516 0.782227C8.57989 0.796289 8.56582 0.880664 8.55352 0.970313C8.53418 1.13203 8.53418 1.13379 8.47266 1.16719L8.40938 1.20059L8.29688 1.13027C8.10528 1.01074 8.12813 1.00547 7.89961 1.24102C7.78887 1.35527 7.69922 1.45547 7.69922 1.46074C7.69922 1.46777 7.73438 1.51875 7.77832 1.575C7.86094 1.68223 7.89082 1.74902 7.86446 1.77539C7.85567 1.78418 7.79063 1.79824 7.72031 1.80879C7.50938 1.83691 7.47949 1.89141 7.49356 2.22188C7.49707 2.33965 7.50762 2.44687 7.51289 2.4627C7.53223 2.5084 7.6043 2.53125 7.73614 2.53125C7.8293 2.53125 7.86094 2.53828 7.86797 2.55762C7.88731 2.60332 7.86094 2.66133 7.77832 2.75625C7.71153 2.83711 7.70274 2.85469 7.72207 2.88105C7.81524 3.00938 8.08242 3.30469 8.10703 3.30469C8.12285 3.30469 8.19317 3.27129 8.26348 3.23086L8.39004 3.15703L8.45332 3.19219C8.52188 3.2291 8.54824 3.29414 8.56934 3.48574C8.58692 3.63691 8.59043 3.63867 8.90156 3.63867C9.08789 3.63867 9.17754 3.63164 9.19864 3.61582C9.21973 3.60176 9.23906 3.54023 9.25664 3.42773C9.29004 3.23438 9.31992 3.16406 9.36914 3.16406C9.38848 3.16406 9.4711 3.19922 9.55196 3.24316C9.63281 3.28711 9.71016 3.31875 9.72246 3.31348C9.74531 3.30469 9.8877 3.13418 10.0336 2.94258L10.0934 2.86523L10.0125 2.72988C9.9668 2.6543 9.9334 2.58047 9.93516 2.56641C9.93867 2.54707 9.98614 2.53477 10.1074 2.51719C10.2076 2.50488 10.2832 2.48555 10.3008 2.46973C10.3219 2.44863 10.3289 2.38711 10.3324 2.17793C10.3395 1.85625 10.3324 1.84043 10.183 1.8123C10.0125 1.77891 9.94922 1.75781 9.94922 1.73145C9.94922 1.71914 9.98438 1.6541 10.0283 1.58906C10.0723 1.52578 10.1074 1.46777 10.1074 1.46426C10.1074 1.45547 9.88594 1.20586 9.77871 1.09336C9.7084 1.01953 9.70137 1.01602 9.66446 1.04063C9.6416 1.05469 9.57305 1.09512 9.50977 1.13027C9.40254 1.18828 9.39199 1.19004 9.33926 1.16895C9.27598 1.14258 9.26895 1.12676 9.25313 0.94043C9.24785 0.863086 9.23379 0.789258 9.225 0.776953C9.21094 0.761133 9.12481 0.755859 8.89981 0.755859C8.64668 0.755859 8.59219 0.759375 8.58516 0.782227ZM9.0791 1.10215C9.08438 1.18828 9.09317 1.26562 9.09668 1.27617C9.09844 1.28496 9.13184 1.30254 9.16875 1.31484C9.20742 1.32539 9.28301 1.3623 9.34102 1.39746L9.44297 1.45898L9.55371 1.37109C9.61524 1.32188 9.66797 1.27266 9.67324 1.26035C9.67676 1.2498 9.69258 1.26211 9.7084 1.29199C9.72246 1.32012 9.76289 1.37285 9.79805 1.40449C9.83321 1.43789 9.86133 1.4748 9.86133 1.48359C9.86133 1.49414 9.81914 1.53809 9.76817 1.58027L9.67324 1.65762L9.71543 1.77012C9.73828 1.83164 9.75586 1.9002 9.75586 1.92305C9.75586 1.97227 9.81387 1.98633 10.0107 1.98633H10.1338L10.1285 2.15156L10.1232 2.31504L10.0424 2.32734C9.99844 2.33262 9.9334 2.33789 9.89824 2.33789C9.8209 2.33789 9.79981 2.35195 9.78223 2.4082C9.7752 2.43281 9.74883 2.49785 9.72422 2.5541L9.68028 2.65605L9.76114 2.73867C9.80684 2.78438 9.84375 2.83359 9.84375 2.84766C9.84375 2.86172 9.80684 2.91973 9.76289 2.97422L9.68379 3.07441L9.5836 2.99707C9.5291 2.95312 9.47637 2.91797 9.46582 2.91797C9.45703 2.91797 9.36739 2.9584 9.26895 3.00762L9.09141 3.09727L9.0791 3.23262C9.06153 3.4418 9.07383 3.42773 8.89453 3.42773H8.73985L8.72578 3.29941C8.71875 3.23086 8.71172 3.15352 8.71172 3.13066C8.70996 3.09727 8.6959 3.08496 8.63614 3.06738C8.59395 3.05508 8.52188 3.01992 8.47617 2.99004C8.42871 2.96016 8.37598 2.93555 8.36016 2.93555C8.34258 2.93555 8.28281 2.9707 8.22656 3.01465C8.17031 3.05859 8.11934 3.09375 8.11406 3.09375C8.10879 3.09375 8.08418 3.05859 8.05957 3.01641C8.03496 2.97598 7.99981 2.92676 7.98047 2.90918C7.96114 2.8916 7.94531 2.86875 7.94531 2.8582C7.94531 2.8459 7.98574 2.79844 8.03496 2.75098C8.11231 2.67363 8.12285 2.65605 8.11406 2.61035C8.09649 2.51719 8.03145 2.37656 8.00156 2.36426C7.98399 2.35723 7.9084 2.34141 7.83106 2.33086C7.67285 2.30625 7.68867 2.33613 7.69571 2.10234L7.69922 1.98984L7.86973 1.97578L8.04024 1.95996L8.08067 1.8457C8.10176 1.78242 8.1211 1.72266 8.1211 1.71211C8.1211 1.70156 8.08242 1.6418 8.03496 1.58027L7.95059 1.46777L8.04375 1.37285L8.13867 1.27969L8.24414 1.37285L8.35137 1.46426L8.40762 1.41152C8.46211 1.36055 8.60274 1.30078 8.66953 1.30078C8.71524 1.30078 8.73633 1.23223 8.73633 1.0916C8.73633 1.02656 8.7416 0.966797 8.74864 0.961524C8.75391 0.954492 8.82949 0.949219 8.91387 0.949219H9.0668L9.0791 1.10215Z" fill="#000"/>
<path id="Vector_10" d="M8.71348 1.58016C8.61504 1.62059 8.46211 1.73309 8.40938 1.80516C8.28633 1.97039 8.24766 2.18484 8.30391 2.37469C8.38301 2.64539 8.69941 2.85633 8.97715 2.82293C9.12129 2.80535 9.24258 2.74383 9.36387 2.62606C9.49746 2.49422 9.5502 2.37117 9.55195 2.17957C9.55371 2.07059 9.54492 2.03016 9.50625 1.94578C9.43945 1.8034 9.3041 1.66805 9.17051 1.60652C9.02461 1.54149 8.83652 1.53094 8.71348 1.58016ZM9.08086 1.77352C9.2584 1.85438 9.36035 2.01082 9.35859 2.19715C9.35508 2.4327 9.14414 2.6366 8.90332 2.6366C8.80488 2.6366 8.68008 2.58211 8.60273 2.50301C8.43398 2.33426 8.43223 2.04422 8.59922 1.87723C8.73281 1.74363 8.92441 1.7032 9.08086 1.77352Z" fill="#000"/>
<path id="Vector_11" d="M12.6018 1.19185C12.4682 1.19712 12.4664 1.19712 12.4559 1.2481C12.4506 1.27798 12.4506 1.32368 12.4576 1.35357C12.4664 1.40278 12.4717 1.4063 12.5508 1.4063H12.6334L12.6422 1.60493C12.6492 1.78071 12.6562 1.81587 12.702 1.91782C12.7617 2.04439 12.9129 2.21841 13.0236 2.28521C13.0623 2.30982 13.0957 2.33618 13.0957 2.34673C13.0957 2.35552 13.0553 2.39243 13.0061 2.42583C12.883 2.51021 12.7635 2.64556 12.702 2.77036C12.6598 2.8565 12.6492 2.9022 12.6422 3.04458L12.6334 3.21333L12.535 3.22915L12.4365 3.24321L12.44 3.32056C12.4418 3.36275 12.4453 3.39966 12.4488 3.40318C12.4611 3.41548 14.2137 3.41724 14.2348 3.40493C14.2453 3.39614 14.2559 3.36099 14.2559 3.32407C14.2559 3.25904 14.2523 3.25552 14.1908 3.24497C14.1539 3.2397 14.1029 3.23443 14.0783 3.23443C14.0326 3.23443 14.0326 3.23091 14.0238 3.08853C14.0062 2.81607 13.8814 2.58755 13.6758 2.44693C13.6125 2.40474 13.5598 2.36431 13.558 2.35728C13.5545 2.352 13.5967 2.31685 13.6494 2.27818C13.892 2.10415 14.0273 1.84575 14.0273 1.55396V1.40806L14.1293 1.40278L14.2295 1.39751L14.2348 1.31138C14.2383 1.26392 14.2312 1.21646 14.2207 1.20591C14.2031 1.18833 12.985 1.17778 12.6018 1.19185ZM13.8129 1.41509C13.8357 1.42388 13.8428 1.55571 13.8234 1.64712C13.8129 1.69986 13.8129 1.69986 13.6863 1.70337C13.616 1.70513 13.5369 1.71392 13.507 1.72095C13.4578 1.73677 13.4596 1.73677 13.5316 1.73853C13.5773 1.74028 13.6037 1.74732 13.5967 1.75786C13.5914 1.76665 13.5967 1.77544 13.609 1.77544C13.623 1.7772 13.6213 1.78423 13.6002 1.80005C13.5773 1.81763 13.5756 1.82642 13.5896 1.83169C13.6055 1.83696 13.6002 1.8563 13.5721 1.89497C13.551 1.92661 13.5422 1.95122 13.5527 1.95122C13.5633 1.95122 13.5492 1.97232 13.5176 1.99693C13.4754 2.03384 13.4684 2.0479 13.4842 2.06724C13.5018 2.08833 13.5141 2.08657 13.5633 2.05493C13.6687 1.98989 13.6266 2.03384 13.4965 2.12525C13.4262 2.17446 13.3523 2.21489 13.3312 2.21489C13.2697 2.21489 13.0412 2.05318 12.9691 1.9565C12.8672 1.82114 12.832 1.72095 12.8285 1.5645C12.8285 1.48892 12.832 1.42036 12.8373 1.41333C12.8461 1.39751 13.7689 1.39927 13.8129 1.41509ZM13.4982 2.57173C13.6617 2.69302 13.7303 2.76861 13.7725 2.87407L13.8006 2.94439L13.7637 2.9022L13.7285 2.86177V2.90923V2.95845L13.6951 2.91626C13.6775 2.89341 13.6582 2.86177 13.6529 2.84771C13.6477 2.83189 13.6424 2.84068 13.6424 2.8688C13.6406 2.9022 13.6494 2.91802 13.667 2.91802C13.6811 2.91802 13.6934 2.92505 13.6934 2.9356C13.6934 2.94439 13.6811 2.95318 13.6652 2.95318C13.6424 2.95318 13.6389 2.96548 13.6459 3.00591C13.6529 3.03404 13.6512 3.05689 13.6441 3.05689C13.6371 3.05513 13.6178 3.05513 13.602 3.05689C13.5633 3.05864 13.5598 3.0938 13.5984 3.0938C13.6125 3.0938 13.6195 3.10083 13.6143 3.11138C13.609 3.12017 13.6107 3.12896 13.6195 3.12896C13.6283 3.12896 13.6354 3.14126 13.6354 3.15532C13.6354 3.17818 13.5861 3.18169 13.2996 3.18169C13.115 3.18169 12.9322 3.18696 12.8953 3.194L12.8268 3.20454L12.8373 3.06919C12.8514 2.88286 12.9076 2.77036 13.0482 2.64907C13.1062 2.59986 13.1871 2.52954 13.2258 2.49263C13.2785 2.44517 13.3031 2.43286 13.3242 2.44517C13.3383 2.45571 13.4174 2.51196 13.4982 2.57173Z" fill="#000"/>
<path id="Vector_12" d="M13.0746 1.73491C13.0852 1.73843 13.1063 1.73843 13.1186 1.73491C13.1291 1.72964 13.1203 1.72612 13.0957 1.72612C13.0711 1.72612 13.0623 1.72964 13.0746 1.73491Z" fill="#000"/>
<path id="Vector_13" d="M13.1801 1.73491C13.2012 1.73843 13.2363 1.73843 13.2592 1.73491C13.2803 1.7314 13.2627 1.72788 13.2187 1.72788C13.1748 1.72788 13.1572 1.7314 13.1801 1.73491Z" fill="#000"/>
<path id="Vector_14" d="M13.3734 1.73491C13.384 1.73843 13.4051 1.73843 13.4174 1.73491C13.4279 1.72964 13.4191 1.72612 13.3945 1.72612C13.3699 1.72612 13.3611 1.72964 13.3734 1.73491Z" fill="#000"/>
<path id="Vector_15" d="M13.5633 2.84063C13.558 2.85469 13.565 2.86523 13.5791 2.86523C13.6143 2.86523 13.6283 2.83535 13.5984 2.8248C13.5844 2.81953 13.5685 2.82656 13.5633 2.84063Z" fill="#000"/>
<path id="Vector_16" d="M13.4965 2.84227C13.5088 2.84755 13.5246 2.84579 13.5299 2.84052C13.5369 2.83524 13.5264 2.82997 13.507 2.83173C13.4877 2.83173 13.4824 2.837 13.4965 2.84227Z" fill="#000"/>
<path id="Vector_17" d="M4.57559 2.35028C4.52109 2.35731 4.51758 2.36259 4.51758 2.42587C4.51758 2.48915 4.51055 2.49794 4.44199 2.54012C4.34883 2.59286 4.33301 2.59462 4.27676 2.54891C4.25215 2.52958 4.22051 2.51376 4.20645 2.51376C4.18359 2.51376 4.02539 2.67196 4.01133 2.71063C4.00781 2.71942 4.03242 2.75634 4.06758 2.79501C4.13086 2.86532 4.13086 2.86532 4.10449 2.93036C4.07109 3.01122 4.07988 3.00419 3.98848 3.02001L3.91113 3.03407V3.17294V3.31356L4.0043 3.32235C4.13965 3.33641 4.16426 3.38915 4.08691 3.50165C4.0623 3.5368 4.04297 3.57723 4.04297 3.5913C4.04297 3.62294 4.19766 3.77938 4.22754 3.77938C4.2416 3.77938 4.26621 3.76005 4.28555 3.73544C4.3207 3.68973 4.37344 3.6827 4.46484 3.70731C4.50352 3.71786 4.51055 3.73016 4.51758 3.82333L4.52637 3.9288L4.63184 3.94286C4.69863 3.95165 4.75664 3.94989 4.78652 3.93934C4.83047 3.92177 4.83398 3.91473 4.83398 3.8163V3.71083L4.89902 3.69325C4.96582 3.67391 5.01152 3.69501 5.08711 3.77762L5.11875 3.81278L5.20488 3.72489C5.25234 3.67567 5.29102 3.62469 5.29102 3.61063C5.29102 3.59657 5.26992 3.54559 5.24531 3.49637C5.2207 3.44716 5.20312 3.39091 5.20664 3.36981C5.21191 3.33466 5.22422 3.33114 5.32793 3.32587L5.44395 3.32059L5.45625 3.21337C5.47559 3.02528 5.47734 3.03231 5.37363 3.0077C5.30156 2.99188 5.27344 2.97606 5.25059 2.93739C5.20664 2.8618 5.21367 2.82137 5.28223 2.7704C5.35254 2.71591 5.35254 2.70887 5.23828 2.5788C5.15742 2.48739 5.12754 2.4786 5.07129 2.53134C5.03613 2.56473 5.02559 2.56473 4.94121 2.5454C4.84102 2.52255 4.81641 2.49091 4.81641 2.38895C4.81641 2.33798 4.81465 2.33798 4.725 2.34149C4.67402 2.34149 4.60547 2.34677 4.57559 2.35028ZM4.72324 2.61923C4.72324 2.64735 4.71445 2.66669 4.70566 2.65966C4.69687 2.65438 4.69863 2.66669 4.70918 2.68778C4.72148 2.70712 4.7373 2.72469 4.74785 2.72469C4.7584 2.72469 4.76016 2.73173 4.75488 2.74227C4.74961 2.75106 4.71797 2.75985 4.68457 2.75985C4.59668 2.75985 4.53516 2.78798 4.45078 2.87059C4.34004 2.97782 4.3207 3.02352 4.32422 3.17118C4.32949 3.32762 4.32773 3.33641 4.30664 3.30477C4.29258 3.28192 4.28906 3.28368 4.28906 3.30829C4.28906 3.32587 4.30137 3.33993 4.31543 3.33993C4.32949 3.33993 4.3418 3.34696 4.3418 3.35751C4.3418 3.3663 4.33301 3.37509 4.32246 3.37509C4.31016 3.37509 4.30664 3.39442 4.31191 3.42255L4.3207 3.47177L4.27148 3.41376C4.18184 3.30653 4.15723 3.11669 4.21172 2.93739C4.23984 2.84247 4.31016 2.7493 4.34004 2.76864C4.34883 2.77391 4.36113 2.76161 4.36816 2.74227C4.37344 2.72294 4.39629 2.69833 4.41738 2.68602C4.4543 2.66669 4.68984 2.57177 4.7127 2.56825C4.71797 2.56649 4.72324 2.58934 4.72324 2.61923ZM4.76895 2.93739C4.83574 2.97255 4.88496 3.02704 4.90605 3.08856C4.94824 3.21864 4.83223 3.37509 4.69336 3.37509C4.57734 3.37509 4.46484 3.25907 4.46484 3.13778C4.46484 2.99012 4.64238 2.87235 4.76895 2.93739Z" fill="#F2F2F2"/>
<path id="Vector_18" d="M10.8668 2.48197C10.8545 2.49428 10.8457 2.52416 10.8457 2.55053C10.8457 2.70345 10.8018 2.74388 10.6963 2.68763C10.6629 2.67006 10.6278 2.65424 10.6172 2.65424C10.6084 2.65424 10.5504 2.714 10.4872 2.78607C10.3729 2.92142 10.3606 2.9601 10.4168 3.00756C10.4502 3.03392 10.4485 3.08666 10.4133 3.10072C10.3975 3.10599 10.3588 3.11127 10.3272 3.11127C10.2903 3.11127 10.2657 3.12181 10.2586 3.13939C10.2428 3.18158 10.2463 3.55599 10.2639 3.58412C10.2727 3.59818 10.3096 3.614 10.3465 3.61928C10.4098 3.62982 10.4151 3.6351 10.4116 3.68256C10.4081 3.71244 10.4045 3.75638 10.4028 3.78275C10.401 3.81615 10.4239 3.86361 10.4784 3.93217C10.5645 4.04291 10.6032 4.06224 10.6524 4.01654C10.6717 3.99896 10.7209 3.98138 10.7631 3.97787L10.8405 3.96908L10.8528 4.05873C10.8686 4.17474 10.8967 4.18881 11.1147 4.19056C11.2764 4.19232 11.2905 4.18881 11.3221 4.15013C11.3432 4.12377 11.3555 4.08158 11.3555 4.03236C11.3555 3.9392 11.3836 3.93217 11.4821 3.99896C11.5172 4.02357 11.5577 4.04291 11.57 4.04291C11.5823 4.04291 11.635 3.98842 11.6842 3.92338C11.7704 3.80912 11.7756 3.79857 11.7598 3.74232C11.7334 3.65092 11.737 3.63861 11.795 3.63861C11.8248 3.63861 11.8635 3.62279 11.8829 3.60345C11.9145 3.57181 11.918 3.54545 11.918 3.35033C11.918 3.10951 11.9163 3.10424 11.8055 3.08842C11.7686 3.08314 11.7334 3.0726 11.7282 3.06732C11.7229 3.06381 11.7299 3.02689 11.7422 2.98822C11.7651 2.91967 11.7651 2.91791 11.679 2.80365C11.5858 2.6806 11.5524 2.65951 11.4961 2.68939C11.475 2.69994 11.4381 2.70697 11.4118 2.70345C11.3678 2.69818 11.3643 2.69115 11.359 2.6015C11.3555 2.53646 11.345 2.49779 11.3256 2.48197C11.2852 2.45385 10.8967 2.45209 10.8668 2.48197ZM11.2008 2.72806C11.2061 2.81068 11.2114 2.82299 11.2588 2.84584C11.2887 2.8599 11.3608 2.87572 11.4206 2.87924C11.5225 2.88627 11.5295 2.88978 11.5471 2.94076C11.5577 2.96888 11.5665 3.01986 11.5665 3.05326C11.5665 3.0849 11.577 3.13939 11.5911 3.17279C11.6122 3.22025 11.628 3.23256 11.6754 3.23783L11.7334 3.2431L11.7387 3.36263L11.7457 3.48217L11.6772 3.47689L11.6104 3.47162L11.5981 3.61224C11.5788 3.82318 11.5911 3.8056 11.4592 3.80033C11.3836 3.79681 11.3221 3.80385 11.2799 3.81967C11.2219 3.84428 11.2166 3.85306 11.2114 3.93217L11.2061 4.01654L11.1059 4.02181L11.004 4.02709V3.94974C11.004 3.9058 10.9934 3.86361 10.9829 3.85482C10.9389 3.81967 10.8229 3.7933 10.7086 3.78978L10.5909 3.78803V3.64388C10.5909 3.56654 10.5856 3.49623 10.5786 3.4892C10.5733 3.48392 10.5329 3.47513 10.4907 3.47162L10.4151 3.46635L10.4098 3.37142L10.4045 3.27474L10.4731 3.25541C10.5557 3.2308 10.5821 3.17982 10.5944 3.03041C10.5997 2.9724 10.6137 2.91088 10.6278 2.8933C10.6489 2.86342 10.6524 2.86342 10.6788 2.88978C10.7051 2.91439 10.7122 2.91439 10.7579 2.89154C10.786 2.87748 10.8493 2.85638 10.8985 2.84584L10.9864 2.8265V2.74213V2.65599L11.062 2.64896C11.1024 2.64545 11.1498 2.64193 11.1657 2.64017C11.1903 2.63666 11.1973 2.65424 11.2008 2.72806Z" fill="#F2F2F2"/>
<path id="Vector_19" d="M10.9775 2.99538C10.8316 3.05866 10.7156 3.22213 10.7191 3.35748C10.7262 3.72135 11.2236 3.8567 11.4135 3.54733C11.5084 3.3944 11.4943 3.23795 11.3748 3.10612C11.2658 2.98483 11.1041 2.93913 10.9775 2.99538ZM11.2043 3.17116C11.2764 3.20104 11.3098 3.27838 11.2975 3.38561C11.2869 3.48932 11.2289 3.54909 11.1305 3.56315C10.9969 3.58073 10.8984 3.4858 10.8984 3.33639C10.8984 3.27663 10.909 3.25553 10.9617 3.20631C11.032 3.13952 11.1041 3.12897 11.2043 3.17116Z" fill="#F2F2F2"/>
<path id="Vector_20" d="M6.55137 2.95488C6.51973 2.97422 6.47051 3.05684 6.45293 3.12363L6.44238 3.16406L6.3457 3.11309L6.24902 3.06035L6.19277 3.1166C6.12598 3.17988 6.12246 3.1957 6.16992 3.27305C6.18926 3.30469 6.20508 3.34512 6.20508 3.3627C6.20508 3.39609 6.1418 3.42773 6.07324 3.42773C6.02754 3.42773 6.01172 3.45762 6.01172 3.54199C6.01172 3.60879 6.03457 3.6334 6.10664 3.64219C6.18223 3.65098 6.19277 3.70371 6.1418 3.81445L6.09785 3.90762L6.14707 3.97793C6.2209 4.0834 6.26133 4.09395 6.33691 4.02715C6.37207 3.99727 6.41602 3.97266 6.43359 3.97266C6.46348 3.97266 6.46875 3.98496 6.46875 4.05C6.46875 4.1502 6.51094 4.18359 6.63574 4.18359C6.73594 4.18359 6.75879 4.16074 6.77812 4.04297C6.78516 4.0043 6.79746 3.97266 6.80801 3.97266C6.81855 3.97266 6.86074 3.99199 6.90293 4.0166C6.99258 4.06934 7.02422 4.06055 7.08574 3.96211L7.12441 3.89707L7.08574 3.82324C7.03125 3.71953 7.0418 3.67031 7.12266 3.64746C7.15781 3.63867 7.19121 3.62461 7.19824 3.61758C7.2123 3.60352 7.21406 3.44707 7.2 3.43301C7.19473 3.42598 7.15957 3.41719 7.12441 3.41191L7.05762 3.39961L7.06289 3.27129C7.06641 3.16934 7.06113 3.13418 7.03828 3.10781C6.99961 3.06563 6.93984 3.06738 6.89941 3.11133C6.85195 3.16406 6.8291 3.15527 6.76055 3.05859C6.72539 3.00937 6.67617 2.96191 6.65156 2.95312C6.59707 2.93203 6.5918 2.93203 6.55137 2.95488ZM6.67617 3.34688C6.81152 3.41719 6.80625 3.66328 6.6709 3.70898C6.54258 3.75117 6.45117 3.66855 6.45117 3.51035C6.45117 3.44004 6.45996 3.41543 6.50215 3.37324C6.56016 3.31699 6.6041 3.30996 6.67617 3.34688Z" fill="#F2F2F2"/>
<path id="Vector_21" d="M12.4154 3.61573C12.3908 3.62452 12.3855 3.6878 12.4066 3.72296C12.433 3.76163 12.9516 3.78272 13.5967 3.77042C13.9271 3.76515 14.2207 3.75108 14.2523 3.74054C14.3033 3.72472 14.3104 3.71769 14.3051 3.66847L14.2998 3.61222L13.3682 3.6087C12.8566 3.60694 12.426 3.61046 12.4154 3.61573Z" fill="#F2F2F2"/>
<path id="Vector_22" d="M13.0957 4.19237C13.0957 4.29783 13.0834 4.3119 12.9709 4.33299C12.9199 4.34178 12.8953 4.33651 12.8408 4.29959C12.8039 4.27498 12.7652 4.25389 12.7529 4.25389C12.7318 4.25389 12.5947 4.42264 12.5754 4.4701C12.5719 4.4824 12.5965 4.52635 12.6316 4.56678L12.6949 4.64061L12.6615 4.7074C12.6316 4.77069 12.6264 4.77244 12.5297 4.77772L12.4277 4.78299V4.90955C12.4277 5.10291 12.4312 5.10994 12.5473 5.12401C12.7055 5.14334 12.7318 5.21541 12.6316 5.34725L12.5719 5.42459L12.6686 5.54237C12.723 5.60916 12.7775 5.66014 12.7951 5.66014C12.8127 5.66014 12.8496 5.63201 12.8742 5.59862C12.9252 5.53358 12.9533 5.52654 13.0412 5.55643C13.0922 5.57401 13.0957 5.58104 13.0957 5.66717C13.0957 5.71815 13.1045 5.76737 13.1168 5.77967C13.1291 5.79197 13.1941 5.80076 13.2838 5.80076C13.4473 5.80076 13.442 5.80604 13.4508 5.63377C13.4561 5.55115 13.4596 5.54588 13.5229 5.52127L13.5896 5.49666L13.6635 5.56873C13.7057 5.60916 13.7461 5.64256 13.7566 5.64256C13.7725 5.64256 13.8533 5.56346 13.9289 5.47205C13.9605 5.43338 13.9605 5.43162 13.8955 5.35779C13.8375 5.28924 13.8322 5.27518 13.8428 5.2119C13.8551 5.12752 13.8727 5.11522 13.9781 5.11522C14.0783 5.11522 14.0836 5.10115 14.0766 4.90428L14.0713 4.77244L13.9658 4.76365C13.8727 4.75662 13.8604 4.74959 13.8498 4.71092C13.827 4.63006 13.834 4.60545 13.8973 4.53514L13.9605 4.46658L13.8762 4.35936C13.8305 4.30135 13.7848 4.25389 13.7725 4.25389C13.7602 4.25389 13.7215 4.27674 13.6846 4.30662C13.609 4.36639 13.5896 4.3699 13.5176 4.33299C13.4719 4.31014 13.4648 4.29432 13.4543 4.20115L13.442 4.09569H13.2697H13.0957V4.19237ZM13.4139 4.62654C13.5439 4.69334 13.5949 4.75838 13.623 4.89373C13.6512 5.03084 13.6195 5.13631 13.5264 5.23123C13.3611 5.39647 13.0852 5.36658 12.948 5.17147C12.876 5.06951 12.8619 4.89373 12.9182 4.78475C12.9586 4.7074 13.05 4.63533 13.1607 4.5949C13.2592 4.55975 13.2891 4.56502 13.4139 4.62654Z" fill="#F2F2F2"/>
<path id="Vector_23" d="M1.94417 4.16257C1.9389 4.17136 1.93011 4.24518 1.92483 4.32604C1.90901 4.54226 1.90726 4.54753 1.83343 4.57038C1.79651 4.58268 1.73851 4.60729 1.70335 4.62663C1.63128 4.66706 1.65061 4.67585 1.47308 4.52116C1.42561 4.48073 1.37815 4.44733 1.36585 4.44733C1.35354 4.44733 1.26214 4.52995 1.16018 4.6319L0.977372 4.81472L1.10042 4.95183L1.22522 5.08893L1.17073 5.19616C1.11097 5.31745 1.09163 5.32624 0.894755 5.32624C0.836747 5.32624 0.787528 5.33503 0.776982 5.34733C0.762919 5.36491 0.745341 5.78854 0.75413 5.88347C0.755888 5.89929 0.812138 5.90632 0.942216 5.90983L1.12854 5.91511L1.17073 6.02936L1.21116 6.14186L1.16722 6.19987C1.14261 6.23151 1.09163 6.29304 1.05296 6.33874L0.982646 6.4196L1.09515 6.5444C1.15843 6.61472 1.24456 6.70085 1.28851 6.73952L1.36936 6.80808L1.46956 6.73073C1.52405 6.68854 1.58733 6.63933 1.61194 6.62175C1.65237 6.58835 1.65413 6.59011 1.77893 6.64108C1.851 6.67097 1.91077 6.70788 1.9178 6.72722C1.92483 6.74479 1.93186 6.83093 1.93186 6.91882C1.93362 7.02429 1.94065 7.08581 1.95647 7.09811C1.98811 7.12448 2.4346 7.12448 2.45745 7.09636C2.46624 7.08581 2.4803 6.99089 2.48733 6.88718L2.49964 6.69733L2.5928 6.66921C2.64554 6.65163 2.70882 6.62175 2.73694 6.5989L2.78616 6.56022L2.91097 6.68151C2.98128 6.74831 3.04456 6.8028 3.05511 6.8028C3.0762 6.8028 3.41018 6.45124 3.41018 6.43015C3.41018 6.42136 3.36624 6.35632 3.3135 6.28425C3.26077 6.21394 3.21683 6.14538 3.21683 6.13483C3.21683 6.12429 3.24143 6.06979 3.26956 6.01179L3.32229 5.90632H3.49456C3.6053 5.90632 3.67386 5.89929 3.68792 5.88522C3.71956 5.85358 3.7178 5.36315 3.68616 5.35085C3.6721 5.34558 3.58421 5.33679 3.48753 5.32976L3.3135 5.31745L3.27483 5.23659C3.20452 5.08893 3.20452 5.0819 3.31175 4.94304C3.36624 4.87272 3.41018 4.8112 3.41018 4.80593C3.41018 4.78483 3.07093 4.42976 3.04983 4.42976C3.03929 4.42976 3.00765 4.45436 2.97776 4.48425C2.94964 4.51413 2.88987 4.56511 2.84417 4.59851L2.76155 4.66003L2.69475 4.61784C2.65784 4.59323 2.59983 4.56511 2.56468 4.55456C2.49085 4.53171 2.47854 4.49655 2.47854 4.31374C2.47854 4.15202 2.47151 4.14851 2.18851 4.14851C2.05843 4.14851 1.94944 4.15554 1.94417 4.16257ZM2.37308 4.68464C2.76331 4.77077 2.97952 4.95183 3.09378 5.28405C3.13245 5.39479 3.13772 5.43874 3.11136 5.42292C3.10257 5.41765 3.09378 5.42819 3.09378 5.44753C3.09378 5.46862 3.08675 5.48444 3.0762 5.48444C3.05159 5.48444 3.05511 5.5319 3.08147 5.54948C3.11136 5.56882 3.11311 5.69538 3.08323 5.69538C3.06917 5.69538 3.05862 5.70241 3.05862 5.71296C3.05862 5.72175 3.07093 5.73054 3.08499 5.73054C3.10081 5.73054 3.10608 5.74108 3.10081 5.7569C3.09378 5.77097 3.07444 5.78327 3.05686 5.78327C3.03929 5.78327 3.02347 5.7903 3.02347 5.80085C3.02347 5.80964 3.04104 5.81843 3.06038 5.81843C3.0885 5.81843 3.09378 5.8237 3.08147 5.83952C3.05335 5.87468 3.04456 5.95729 3.06565 5.96608C3.0762 5.9696 3.06917 5.97487 3.05159 5.97487C3.02522 5.97663 3.02171 5.9819 3.03577 5.99597C3.06038 6.02058 3.03401 6.08034 2.94612 6.20339C2.81253 6.39147 2.39241 6.58659 2.16741 6.56374C1.71214 6.51804 1.36058 6.21921 1.28499 5.8114C1.27444 5.7569 1.25862 5.69714 1.24808 5.67956C1.23929 5.66022 1.2305 5.62507 1.2305 5.60046C1.2305 5.56179 1.20589 5.53015 1.17425 5.52839C1.16897 5.52839 1.15667 5.52136 1.14788 5.51257C1.13558 5.49851 1.14612 5.50026 1.22874 5.52136C1.24456 5.52663 1.2639 5.48268 1.29378 5.37546C1.35179 5.16101 1.40804 5.05905 1.54339 4.92722C1.68929 4.78483 1.75257 4.75144 1.98636 4.69167C2.08831 4.6653 2.17093 4.64245 2.17268 4.64245C2.17444 4.64069 2.26409 4.66003 2.37308 4.68464ZM3.1553 5.71296C3.14827 5.73405 3.13948 5.74636 3.13421 5.74284C3.12893 5.73757 3.13069 5.71647 3.13772 5.69538C3.14475 5.67429 3.15354 5.66198 3.15882 5.6655C3.16409 5.67077 3.16233 5.69186 3.1553 5.71296Z" fill="#F2F2F2"/>
<path id="Vector_24" d="M1.98984 4.90244C1.77715 4.97627 1.53633 5.2083 1.49063 5.38584C1.47832 5.43505 1.46777 5.55107 1.46777 5.64248C1.46777 5.79716 1.47305 5.81826 1.52754 5.93252C1.64355 6.16982 1.84043 6.31044 2.12871 6.36318C2.31152 6.39658 2.49082 6.34736 2.66836 6.21377C2.8002 6.11533 2.87578 6.00634 2.93027 5.83935C2.96719 5.72685 2.97246 5.68291 2.96543 5.57216C2.95137 5.37705 2.90039 5.25752 2.7668 5.11513C2.64902 4.99033 2.56816 4.94462 2.38008 4.89541C2.24473 4.86025 2.1041 4.86201 1.98984 4.90244ZM2.45039 5.09755C2.72109 5.19951 2.86523 5.48779 2.78789 5.7708C2.71055 6.04853 2.46797 6.2208 2.17266 6.20146C1.95469 6.1874 1.77363 6.05556 1.6752 5.84111C1.63652 5.75673 1.63125 5.72685 1.63828 5.60029C1.6541 5.32959 1.79121 5.16435 2.08301 5.06943C2.1709 5.03955 2.32734 5.05185 2.45039 5.09755Z" fill="#F2F2F2"/>
<path id="Vector_25" d="M8.58695 4.21169C8.40062 4.23279 7.99456 4.31365 7.75902 4.37869C7.29144 4.50701 6.96448 4.64587 6.45999 4.93064C6.32112 5.00974 6.00648 5.24529 5.83948 5.39646C5.28929 5.89041 4.91839 6.38084 4.61605 7.00486C4.20999 7.84509 4.06585 8.80662 4.21175 9.72068C4.38226 10.7982 5.00101 11.8775 5.86234 12.5965C6.06448 12.767 6.43187 13.0219 6.63577 13.1344C7.05413 13.3629 7.69222 13.5844 8.16859 13.6652C8.74866 13.7619 9.13187 13.7672 9.66624 13.6845C10.2059 13.6019 10.6717 13.4543 11.1885 13.1994C11.4487 13.0711 11.5524 13.0095 11.7668 12.8478C12.3522 12.4066 12.7846 11.9302 13.1397 11.3291C13.5176 10.6892 13.7514 9.90877 13.776 9.20037C13.7971 8.62029 13.725 8.12634 13.5405 7.56736C13.3471 6.98904 13.0606 6.46169 12.7002 6.02751C12.2942 5.5406 11.809 5.11169 11.3819 4.86384C11.2026 4.76013 10.7508 4.55798 10.5118 4.47361C10.0073 4.29959 9.55023 4.21873 9.01761 4.20994C8.81898 4.20642 8.62562 4.20818 8.58695 4.21169ZM11.3291 5.0449L11.3731 5.06248V5.3613C11.3731 5.58103 11.366 5.67771 11.3485 5.72165C11.3291 5.76736 11.3274 5.79724 11.3397 5.8447C11.3502 5.87986 11.3555 6.04334 11.352 6.20681L11.3467 6.50388L11.5225 6.49334C11.6825 6.48455 11.9373 6.50388 12.0076 6.53025C12.0287 6.53904 12.0393 6.52673 12.0463 6.48806C12.0639 6.40369 12.1166 6.36326 12.208 6.36326C12.2819 6.36326 12.2907 6.36853 12.3258 6.42654L12.3627 6.48982L12.5842 6.48455L12.8057 6.47752L12.8532 6.56541C12.8795 6.61287 12.9024 6.65857 12.9024 6.6656C12.9024 6.67439 12.7811 6.67966 12.6317 6.67966H12.3627L12.3504 6.79568C12.3364 6.9363 12.3205 6.9697 12.252 7.00486C12.1817 7.04177 12.1008 7.03826 12.0586 6.99607C12.027 6.96443 12.0252 6.94685 12.0358 6.80271L12.0463 6.64275L12.0006 6.66033C11.976 6.67087 11.8371 6.67791 11.6912 6.67791C11.5453 6.67791 11.417 6.68318 11.4082 6.68845C11.3748 6.70955 11.3379 6.66033 11.3379 6.5988C11.3379 6.54607 11.3326 6.53904 11.2905 6.53904C11.2623 6.53904 11.2219 6.53377 11.1991 6.52673L11.1569 6.51619L11.1674 6.19275L11.178 5.87107H11.0004C10.902 5.87107 10.7965 5.87986 10.7649 5.89216C10.6787 5.9238 10.575 5.88689 10.5451 5.81658C10.5258 5.76736 10.5276 5.7533 10.5645 5.68298C10.5909 5.63201 10.6278 5.59334 10.6647 5.57576C10.7192 5.54939 10.7297 5.54939 10.8071 5.57927C11.0022 5.65486 11.0303 5.66189 11.0918 5.65134C11.1252 5.64431 11.1586 5.63025 11.1657 5.6197C11.1727 5.6074 11.1797 5.51423 11.1797 5.41228C11.1797 5.31033 11.185 5.17673 11.1903 5.11697C11.2043 4.99744 11.2043 4.99744 11.3291 5.0449ZM6.76937 5.11873C6.77816 5.45271 6.79398 5.61267 6.8221 5.63025C6.8432 5.64431 6.89769 5.63552 7.02073 5.60037C7.12269 5.57224 7.2053 5.55642 7.22991 5.56345C7.34066 5.59861 7.42327 5.75681 7.37933 5.84822C7.34769 5.91502 7.27913 5.93611 7.1807 5.90974C7.13675 5.89744 7.03128 5.88865 6.94515 5.88865H6.7887L6.77816 6.14705C6.76234 6.51619 6.76234 6.51619 6.68675 6.52849C6.65335 6.53552 6.60941 6.53552 6.58831 6.53025C6.55316 6.51794 6.55316 6.50916 6.56019 6.22439C6.56546 6.05388 6.57777 5.90798 6.59183 5.87459C6.60941 5.82712 6.60941 5.80076 6.59007 5.73396C6.55667 5.6197 6.55667 5.09587 6.59007 5.05544C6.60589 5.03787 6.64105 5.02732 6.69027 5.02732H6.76761L6.76937 5.11873ZM9.24964 5.23474C9.52562 5.35603 9.68206 5.71638 9.58363 6.00291C9.56605 6.05212 9.51507 6.15056 9.46761 6.22087C9.3973 6.32459 9.37972 6.36853 9.37445 6.4406C9.36566 6.54431 9.40257 6.63044 9.47991 6.68669C9.53616 6.72712 9.50452 6.72712 10.5012 6.71834C10.9864 6.71306 11.1516 6.71658 11.1621 6.7324C11.1692 6.74294 11.1762 7.05935 11.178 7.43201C11.1815 8.35486 11.1832 8.37068 11.3239 8.47263C11.4276 8.54822 11.4996 8.54294 11.7229 8.44275C11.8705 8.37771 11.9321 8.36013 12.0305 8.3531C12.2696 8.33904 12.4453 8.45154 12.5789 8.70818C12.6387 8.81892 12.6457 8.84705 12.6528 8.99998C12.6616 9.1863 12.6264 9.32693 12.5385 9.45877C12.4453 9.59939 12.2063 9.73826 12.0586 9.73826C11.9813 9.73826 11.8459 9.68904 11.7387 9.62576C11.5418 9.50623 11.4135 9.50623 11.2817 9.62927C11.2184 9.68904 11.2114 9.70662 11.1973 9.81736C11.1885 9.88591 11.1815 10.2463 11.1797 10.6207C11.1797 11.257 11.178 11.3027 11.1498 11.3045C11.1323 11.3045 10.7983 11.3045 10.4063 11.3045C10.0125 11.3027 9.66448 11.3097 9.62581 11.3185C9.54144 11.3396 9.47816 11.3836 9.42542 11.4627C9.36214 11.5541 9.37796 11.6578 9.47991 11.8107C9.58714 11.9724 9.6223 12.0832 9.61175 12.2238C9.6012 12.3469 9.5432 12.491 9.46937 12.5789C9.4096 12.6492 9.24964 12.7336 9.1055 12.7705C8.96663 12.8074 8.83831 12.7986 8.69241 12.7424C8.50433 12.672 8.318 12.4453 8.27933 12.2379C8.25648 12.1113 8.28812 11.9865 8.3971 11.7791C8.48323 11.6156 8.49202 11.5875 8.48148 11.5242C8.46566 11.424 8.42874 11.3748 8.34085 11.3361C8.26878 11.3045 8.21429 11.301 7.49886 11.301L6.73597 11.2992L6.72366 11.2605C6.69905 11.1814 6.69202 10.3166 6.71487 10.0441C6.73597 9.77341 6.73597 9.77341 6.69554 9.6908C6.63577 9.57302 6.57952 9.53787 6.45296 9.53611C6.36331 9.53611 6.3387 9.54314 6.27191 9.59412C6.23148 9.624 6.15413 9.67146 6.1014 9.69607C6.01878 9.73826 5.99241 9.74177 5.86409 9.73474C5.62503 9.72244 5.43167 9.59412 5.3262 9.37966C5.07308 8.86462 5.43343 8.29334 5.9555 8.38474C6.02054 8.39529 6.13655 8.43396 6.2139 8.46736C6.4512 8.57459 6.57073 8.55173 6.65687 8.38298C6.69554 8.30564 6.69554 8.30037 6.6973 7.5322C6.6973 7.10681 6.70433 6.74998 6.71136 6.73767C6.72191 6.72185 6.92054 6.71482 7.51468 6.7113L8.3057 6.70603L8.37425 6.66384C8.52015 6.57244 8.54652 6.43357 8.44808 6.27537C8.29515 6.03279 8.28988 6.01697 8.28812 5.83591C8.28812 5.69177 8.29515 5.65486 8.33558 5.56697C8.4182 5.38943 8.60277 5.24353 8.79085 5.2031C8.91566 5.17673 9.15648 5.19255 9.24964 5.23474ZM6.18577 5.40876C6.14534 5.46326 5.90277 5.69529 5.82894 5.7533C5.78851 5.78318 5.75335 5.81306 5.74808 5.81834C5.7428 5.82361 5.71995 5.84294 5.69534 5.86228C5.61097 5.92732 5.82718 5.70759 6.00823 5.54412C6.18402 5.38416 6.23499 5.34548 6.18577 5.40876ZM5.52308 6.05916C5.50374 6.08728 5.45804 6.14001 5.42288 6.17869L5.35784 6.249L5.42464 6.16111C5.50726 6.05212 5.54066 6.01169 5.54944 6.01169C5.55472 6.01169 5.54066 6.03279 5.52308 6.05916ZM5.36136 6.26482C5.36136 6.26833 5.3473 6.2824 5.33148 6.2947C5.30335 6.31755 5.30159 6.3158 5.32444 6.28767C5.3473 6.25955 5.36136 6.25076 5.36136 6.26482ZM5.84476 6.39841C5.87288 6.39841 5.90628 6.47576 5.90804 6.54431C5.90804 6.59529 5.9098 6.59705 5.92386 6.56189C5.93265 6.5408 5.96253 6.51619 5.9889 6.50916C6.06273 6.48806 6.51624 6.49158 6.53734 6.51267C6.54964 6.52498 6.5514 6.56013 6.54261 6.60935L6.52855 6.68845L6.25081 6.68318C6.09788 6.68142 5.95902 6.67087 5.93968 6.66209C5.9098 6.64451 5.90628 6.64978 5.90628 6.70076C5.90628 6.7324 5.91859 6.79216 5.93265 6.83259C5.97659 6.9574 5.92386 7.03123 5.79378 7.03123C5.74984 7.03123 5.71468 7.01541 5.67425 6.98025C5.62152 6.93455 5.61624 6.91873 5.61097 6.80447L5.60394 6.67966H5.3139H5.02562L5.03616 6.63923C5.08362 6.4863 5.11702 6.46873 5.38069 6.46873C5.55999 6.46873 5.58812 6.46521 5.61448 6.43533C5.6514 6.3949 5.70062 6.38084 5.77269 6.39138C5.80081 6.3949 5.83245 6.39841 5.84476 6.39841ZM9.63284 6.47752C9.65745 6.51091 9.65745 6.51091 9.62933 6.48806C9.61175 6.47576 9.59769 6.45642 9.59769 6.44587C9.59769 6.43533 9.59945 6.43181 9.60296 6.43533C9.60472 6.43884 9.61878 6.45818 9.63284 6.47752ZM5.91683 11.0408C5.94319 11.0689 5.95023 11.1041 5.95023 11.192V11.308L6.11722 11.2957C6.20862 11.2886 6.33695 11.2799 6.40023 11.2728C6.5057 11.264 6.51976 11.2658 6.55316 11.3045C6.57425 11.3256 6.59183 11.3607 6.59183 11.3818C6.59183 11.4363 6.62523 11.4609 6.70257 11.4609H6.77112L6.76761 11.7633C6.76585 11.9302 6.76409 12.0937 6.76585 12.1236L6.76761 12.1816H6.86253C6.91351 12.1816 6.99964 12.1728 7.05062 12.1605C7.20179 12.1289 7.25452 12.1342 7.31253 12.1904C7.38812 12.2625 7.39691 12.3275 7.34066 12.4101C7.27034 12.5174 7.17191 12.5349 6.88011 12.4875L6.80804 12.4769L6.79749 12.5595C6.79046 12.6052 6.78519 12.7107 6.78519 12.7933V12.941L6.73421 12.9322C6.70433 12.9252 6.65159 12.9094 6.61644 12.8935L6.5514 12.8672L6.56194 12.651C6.56898 12.5332 6.58128 12.4101 6.59183 12.3767C6.60237 12.3363 6.60237 12.2906 6.59007 12.2361C6.56722 12.1377 6.56194 11.6332 6.58128 11.5506L6.59534 11.4908L6.53734 11.5013C6.50394 11.5066 6.36155 11.4978 6.22093 11.482C6.07855 11.4679 5.95023 11.4609 5.93441 11.4662C5.91683 11.4732 5.90628 11.4978 5.90628 11.5365C5.90628 11.6138 5.85882 11.656 5.76917 11.6595C5.69534 11.6613 5.62503 11.6191 5.62503 11.5752C5.62503 11.5383 5.57933 11.5312 5.36839 11.5312H5.168L5.11527 11.4574C5.08714 11.4187 5.06253 11.3748 5.06253 11.3625C5.06253 11.3291 5.18558 11.315 5.41234 11.322L5.61624 11.3291L5.62679 11.2219C5.63382 11.1515 5.64964 11.0953 5.67601 11.0584C5.71116 11.0109 5.72523 11.0039 5.79905 11.0039C5.86234 11.0039 5.89222 11.0127 5.91683 11.0408ZM12.252 11.0707C12.2924 11.1111 12.303 11.1427 12.3135 11.2412L12.3276 11.3607L12.6071 11.3502L12.8883 11.3379L12.8778 11.3836C12.8602 11.4521 12.8127 11.5154 12.767 11.533C12.7424 11.5418 12.6422 11.5488 12.542 11.5488C12.361 11.5488 12.3592 11.5488 12.3082 11.6033C12.2696 11.6455 12.2379 11.6595 12.1764 11.6666C12.078 11.6789 12.0481 11.6578 12.0235 11.5681L12.0059 11.5013L11.8125 11.4978C11.7071 11.4961 11.5664 11.4996 11.4996 11.5066L11.3784 11.5172L11.3678 11.8459C11.3608 12.0779 11.3502 12.1957 11.3309 12.2484C11.3063 12.3187 11.3063 12.3293 11.3326 12.3802C11.352 12.4207 11.3608 12.4875 11.3625 12.6299C11.3643 12.8847 11.3573 12.9076 11.2623 12.9445C11.2219 12.9603 11.1815 12.9726 11.1744 12.9726C11.1674 12.9726 11.1621 12.8672 11.1621 12.7388V12.5068L11.011 12.5138C10.7701 12.5226 10.6787 12.5051 10.5996 12.433C10.517 12.3592 10.503 12.3222 10.5293 12.2431C10.5645 12.1359 10.7227 12.041 10.7227 12.1271C10.7227 12.1535 10.7438 12.164 10.8334 12.1799C10.9793 12.208 11.1217 12.2115 11.1428 12.1904C11.1516 12.1799 11.1621 12.0146 11.1657 11.8213L11.1709 11.4697L11.2325 11.4504C11.2782 11.4345 11.2993 11.4135 11.3239 11.3572L11.3537 11.2851H11.526C11.6209 11.2851 11.7668 11.2957 11.8512 11.308L12.0024 11.3308L12.0147 11.2166C12.0305 11.0654 12.0586 11.0215 12.1395 11.0215C12.1852 11.0215 12.2151 11.0355 12.252 11.0707ZM8.06312 11.5242C8.05784 11.5295 8.04202 11.5312 8.02972 11.526C8.01566 11.5207 8.02093 11.5154 8.04027 11.5154C8.0596 11.5136 8.07015 11.5189 8.06312 11.5242ZM9.68558 11.5383C9.68558 11.5418 9.67327 11.5541 9.65921 11.5664C9.63636 11.5857 9.6346 11.584 9.64339 11.5594C9.65218 11.5347 9.68558 11.5189 9.68558 11.5383Z" fill="#F2F2F2"/>
<path id="Vector_26" d="M7.12445 8.12285C7.06293 8.16152 7.04359 8.18789 7.09808 8.158C7.13675 8.13515 7.20004 8.08769 7.18949 8.08593C7.18421 8.08593 7.15433 8.10351 7.12445 8.12285Z" fill="#F2F2F2"/>
<path id="Vector_27" d="M7.52344 8.14043C7.23164 8.18086 7.00137 8.37949 6.91875 8.65723C6.90293 8.71524 6.87305 8.79785 6.85371 8.8418C6.82031 8.9209 6.80801 8.98067 6.79395 9.14766C6.78867 9.225 6.79043 9.22852 6.81328 9.20039C6.83613 9.17051 6.83613 9.17227 6.81855 9.21446C6.80625 9.24082 6.79043 9.2584 6.7834 9.25313C6.77461 9.24785 6.76758 9.25313 6.76758 9.26192C6.76758 9.27246 6.77461 9.28125 6.7834 9.28125C6.79395 9.28125 6.79746 9.31992 6.79395 9.36739C6.78164 9.52559 6.90469 9.67852 7.12793 9.78223C7.19648 9.81563 7.30547 9.87188 7.37051 9.91055C7.51816 9.99668 7.66758 10.0283 7.80645 10.002C7.93125 9.97735 8.15801 9.86485 8.28633 9.76114C8.64492 9.47461 8.71875 8.91387 8.4498 8.51309C8.30566 8.29688 8.12109 8.18614 7.82227 8.13867C7.69395 8.11934 7.6834 8.11934 7.52344 8.14043Z" fill="#F2F2F2"/>
<path id="Vector_28" d="M14.5161 4.21172C14.5002 4.21699 14.4756 4.25039 14.4616 4.28555C14.4369 4.34707 14.4369 4.35059 14.4686 4.36289C14.5002 4.3752 14.502 4.39277 14.4985 4.59141L14.4932 4.80762L14.3754 4.81289C14.2489 4.81816 14.2225 4.84277 14.2471 4.92363C14.2577 4.95703 14.27 4.95879 14.3754 4.95352L14.4932 4.94824L14.4985 5.24355L14.5055 5.54063L14.2682 5.77969C14.1399 5.91328 14.0239 6.03809 14.0133 6.05742C13.9957 6.08906 14.001 6.10488 14.0414 6.15762C14.0678 6.19277 14.0942 6.2209 14.0994 6.22266C14.1065 6.22266 14.2893 6.04688 14.5055 5.83066C14.7235 5.61621 15.0768 5.27168 15.2895 5.06602L15.6762 4.69336L15.7623 4.76543C15.8819 4.86914 16.9875 5.98184 17.0438 6.05566C17.0772 6.09961 17.086 6.12422 17.0719 6.14004C17.042 6.1752 17.0297 6.3123 17.0262 6.63926L17.0244 6.95215L15.5883 6.95566C14.7991 6.95566 14.1434 6.9627 14.1346 6.96973C14.1135 6.98203 14.1082 7.06465 14.1258 7.10859C14.1364 7.1332 14.2875 7.13672 15.6621 7.13672C16.861 7.13672 17.1914 7.13145 17.2055 7.11387C17.2143 7.10156 17.2266 6.90645 17.2319 6.64453C17.2371 6.34922 17.2477 6.16816 17.2635 6.11367L17.2864 6.0293L17.1018 5.84121C16.9998 5.73574 16.8909 5.61797 16.8592 5.57578L16.8012 5.50195H16.8452C16.8821 5.50195 16.8891 5.49141 16.8996 5.42109C16.9049 5.37539 16.9102 5.25762 16.9102 5.15742V4.97461H16.9946C17.0403 4.97461 17.1071 4.96934 17.144 4.96406C17.2055 4.95352 17.209 4.95 17.209 4.88496V4.81641H17.0578H16.9067L16.9119 4.52461C16.919 4.27148 16.9155 4.2293 16.8909 4.21348C16.8557 4.19238 16.7871 4.2082 16.7344 4.25039C16.6957 4.28203 16.694 4.28555 16.7221 4.32598C16.7467 4.35938 16.752 4.41035 16.752 4.59316V4.81816L16.6202 4.80586L16.4883 4.79355V4.87617V4.95703H16.6184H16.7502L16.7555 5.20664C16.759 5.34551 16.7608 5.45977 16.7608 5.46152C16.7608 5.46328 16.5217 5.22773 16.2299 4.9377C15.9364 4.64941 15.6885 4.41211 15.678 4.41211C15.6604 4.41211 14.6936 5.35254 14.6813 5.38242C14.6778 5.39121 14.6672 5.39648 14.6584 5.39648C14.6496 5.39648 14.6426 5.29805 14.6426 5.17676V4.95703H14.7832H14.9239V4.87617V4.79707L14.792 4.80059C14.72 4.80234 14.6549 4.79883 14.6496 4.79355C14.6426 4.78828 14.6444 4.6916 14.6514 4.5791L14.6637 4.37695H14.7938H14.9221L14.9344 4.31543C14.9397 4.28027 14.9432 4.24863 14.9379 4.24512C14.9344 4.2416 14.8764 4.23457 14.8096 4.2293C14.7411 4.22578 14.6549 4.21699 14.6162 4.21172C14.5776 4.2082 14.5336 4.2082 14.5161 4.21172Z" fill="#F2F2F2"/>
<path id="Vector_29" d="M4.58265 4.23105C4.57562 4.23633 4.57035 4.28027 4.57035 4.32773C4.57035 4.3875 4.56332 4.41211 4.54574 4.41211C4.53343 4.41211 4.48597 4.43145 4.43851 4.45605L4.3559 4.50176L4.31019 4.45605C4.28558 4.43145 4.25043 4.41211 4.23109 4.41562C4.14672 4.42793 4.08695 4.60371 4.13441 4.69688C4.19242 4.80762 4.13617 4.88672 3.9973 4.88672C3.94984 4.88672 3.93754 4.89375 3.93754 4.92012C3.93754 4.9377 3.93226 4.97813 3.92699 5.00801L3.91644 5.0625H4.01312C4.10629 5.0625 4.1098 5.06426 4.12914 5.11699C4.15726 5.19609 4.15375 5.2998 4.12211 5.32617C4.07816 5.36309 4.09222 5.42461 4.15726 5.48262C4.23109 5.54766 4.24691 5.54941 4.3014 5.49844C4.3348 5.4668 4.34886 5.46328 4.38051 5.48086C4.40336 5.49141 4.44906 5.50723 4.48246 5.51602C4.53168 5.52832 4.5475 5.54238 4.56156 5.5916C4.58969 5.68652 4.60199 5.69531 4.69515 5.69531C4.7725 5.69531 4.78129 5.6918 4.78304 5.65488C4.7848 5.63379 4.78832 5.60391 4.79008 5.58984C4.79183 5.57578 4.79535 5.55469 4.79711 5.54414C4.79711 5.53359 4.83051 5.51953 4.86918 5.5125C4.90785 5.50723 4.96761 5.48789 5.00101 5.47207C5.06078 5.44395 5.06429 5.44395 5.09066 5.48086C5.12933 5.53535 5.15394 5.53008 5.22074 5.44746C5.27172 5.38242 5.27699 5.37012 5.2559 5.33672C5.24359 5.31738 5.22426 5.2875 5.21547 5.26992C5.20316 5.25059 5.2014 5.21191 5.21371 5.15742L5.22953 5.07129L5.32621 5.05371L5.42289 5.03613V4.95879V4.87969L5.335 4.86211L5.24711 4.84277L5.24886 4.7373C5.25062 4.6793 5.25765 4.60723 5.26468 4.57734C5.27347 4.53516 5.2682 4.5123 5.22953 4.46836C5.17504 4.40332 5.14164 4.39805 5.08715 4.44902L5.04672 4.48594L4.95531 4.44023C4.90433 4.41562 4.85336 4.39453 4.84105 4.39453C4.81468 4.39453 4.79886 4.3541 4.79886 4.27852V4.21875H4.69691C4.64066 4.21875 4.58793 4.22402 4.58265 4.23105ZM5.02386 4.6459L5.10648 4.72852L5.11351 4.87969C5.1223 5.12402 5.10648 5.21191 5.03265 5.28223C4.99926 5.31563 4.94125 5.35078 4.90609 5.36309C4.87093 5.37363 4.81468 5.39824 4.77953 5.41582C4.72328 5.44395 4.70746 5.4457 4.6266 5.42461C4.51058 5.39297 4.36117 5.31035 4.32074 5.2541C4.24691 5.15391 4.22758 4.84805 4.28734 4.73027C4.32601 4.6582 4.49301 4.53691 4.61429 4.49473C4.67933 4.47188 4.6934 4.47363 4.81293 4.51758C4.90785 4.55273 4.96234 4.58613 5.02386 4.6459Z" fill="#F2F2F2"/>
<path id="Vector_30" d="M4.5879 4.75848C4.56681 4.78485 4.55275 4.82528 4.55626 4.84989C4.55978 4.8868 4.5756 4.89735 4.64064 4.91317C4.71447 4.92899 4.72326 4.93778 4.77247 5.04149C4.82872 5.16278 4.86564 5.18563 4.93244 5.14168C5.04669 5.06785 5.00451 4.97996 4.74962 4.75848C4.67755 4.69871 4.63537 4.69871 4.5879 4.75848Z" fill="#F2F2F2"/>
<path id="Vector_31" d="M4.46133 5.02041C4.43496 5.04502 4.44727 5.12764 4.48242 5.17334C4.51934 5.2208 4.58965 5.24541 4.64063 5.22959C4.6793 5.21729 4.74082 5.06787 4.71797 5.04502C4.69688 5.02393 4.47715 5.00283 4.46133 5.02041Z" fill="#F2F2F2"/>
<path id="Vector_32" d="M15.6691 5.03074C15.6621 5.04129 15.6639 5.04481 15.6744 5.03953C15.6832 5.03426 15.7131 5.04129 15.7412 5.05535C15.7922 5.08172 15.7922 5.08172 15.7588 5.04481C15.7236 5.00613 15.6885 4.9991 15.6691 5.03074Z" fill="#F2F2F2"/>
<path id="Vector_33" d="M15.6076 5.38248C15.5461 5.40884 15.5233 5.42818 15.5145 5.46334C15.4969 5.54771 15.4828 6.52857 15.4986 6.60943C15.5127 6.68502 15.5162 6.68853 15.5901 6.70259C15.634 6.71138 15.7113 6.71314 15.7623 6.70611L15.8555 6.69556L15.852 6.05924L15.8467 5.42467L15.7869 5.38424C15.7166 5.33677 15.7131 5.33677 15.6076 5.38248Z" fill="#F2F2F2"/>
<path id="Vector_34" d="M16.2738 5.89565C16.2492 5.90972 16.2 5.92905 16.1684 5.9396L16.1068 5.96069L16.0963 6.2103C16.0893 6.34741 16.084 6.51792 16.084 6.58823V6.71655L16.2826 6.71128L16.4795 6.70601L16.4742 6.63569C16.4707 6.5689 16.4637 6.35269 16.4566 6.09077C16.4531 5.9853 16.4461 5.96069 16.4092 5.91851C16.3582 5.86401 16.3406 5.86226 16.2738 5.89565Z" fill="#F2F2F2"/>
<path id="Vector_35" d="M14.9818 5.94482L14.9273 6.00283L14.9221 6.35439L14.915 6.70596L15.0855 6.70771L15.2543 6.70947L15.2648 6.56709C15.2701 6.48799 15.2684 6.31748 15.2613 6.1874C15.249 5.9624 15.2473 5.9501 15.2104 5.94482C15.1893 5.94131 15.1629 5.92725 15.1523 5.91318C15.1154 5.86924 15.0398 5.8833 14.9818 5.94482Z" fill="#F2F2F2"/>
<path id="Vector_36" d="M14.2295 6.29484C14.2014 6.30187 14.1838 6.30714 14.1926 6.3089C14.2014 6.3089 14.1909 6.33 14.1698 6.35285C14.1329 6.39328 14.1293 6.40734 14.1364 6.59015C14.1416 6.80636 14.1522 6.8257 14.2471 6.81515C14.2963 6.80988 14.2998 6.8046 14.3051 6.73078C14.3069 6.68859 14.3034 6.57082 14.2963 6.46886L14.2823 6.28429L14.2295 6.29484Z" fill="#F2F2F2"/>
<path id="Vector_37" d="M14.1328 6.33863C14.1328 6.35269 14.1416 6.35972 14.1504 6.35445C14.1609 6.34918 14.168 6.33687 14.168 6.32633C14.168 6.31754 14.1609 6.3105 14.1504 6.3105C14.1416 6.3105 14.1328 6.32281 14.1328 6.33863Z" fill="#F2F2F2"/>
<path id="Vector_38" d="M2.10936 7.50421L2.03026 7.51476L2.02147 7.61847L2.01268 7.72218L1.88612 7.76261C1.81757 7.78546 1.70858 7.83468 1.6453 7.87511C1.58026 7.91378 1.52225 7.94542 1.51346 7.94542C1.50468 7.94542 1.44491 7.88214 1.37987 7.8048C1.30428 7.71339 1.24979 7.66417 1.22694 7.66417C1.18124 7.66417 1.03885 7.7837 0.975574 7.87511C0.926355 7.94718 0.924597 7.94894 0.95448 8.00343C0.972058 8.03507 1.0371 8.11417 1.09862 8.18097L1.21112 8.30401L1.1619 8.41827C1.13378 8.48155 1.10565 8.56241 1.09862 8.59581C1.07401 8.72237 1.0828 8.7171 0.926355 8.72237L0.782214 8.72765L0.776941 8.88937L0.771667 9.05284H0.88241C1.05643 9.05284 1.06698 9.05987 1.09159 9.17413C1.10214 9.22862 1.13202 9.3253 1.15487 9.3921L1.19882 9.50987L1.07401 9.63819C0.91405 9.80167 0.912292 9.82101 1.05643 9.97394C1.17772 10.104 1.21464 10.1216 1.2744 10.0829C1.32362 10.0495 1.45194 9.88429 1.46073 9.84034C1.466 9.81573 1.48885 9.82276 1.59081 9.88956C1.72616 9.97394 1.85096 10.0196 1.95468 10.0196H2.02147V10.1075C2.02147 10.162 2.03026 10.1989 2.04432 10.2042C2.05487 10.2095 2.14803 10.2077 2.24999 10.2007L2.43456 10.1866L2.43983 10.111C2.44335 10.053 2.45214 10.0372 2.47675 10.0372C2.533 10.0372 2.7826 9.94933 2.84764 9.90714C2.88104 9.88605 2.93026 9.8544 2.95487 9.83683L3.00057 9.80694L3.05682 9.89483C3.11835 9.99151 3.23788 10.1075 3.27479 10.1075C3.31698 10.1075 3.55077 9.85089 3.55077 9.80694C3.55077 9.76476 3.41718 9.60831 3.31874 9.53624L3.27128 9.50108L3.32401 9.37101C3.35389 9.29894 3.38202 9.19522 3.38905 9.14249L3.40136 9.04405L3.54198 9.03526L3.68085 9.02647L3.69491 8.95616C3.7037 8.91749 3.70897 8.85069 3.70546 8.80675L3.70018 8.72765L3.56132 8.71886L3.42069 8.71007L3.39784 8.60636C3.3785 8.52022 3.29764 8.30929 3.27303 8.2794C3.26952 8.27413 3.23612 8.30577 3.19921 8.34796L3.13241 8.42355L3.17811 8.53253C3.23788 8.67667 3.2537 8.98605 3.208 9.15831C3.13593 9.43605 2.97245 9.63995 2.72108 9.76827C2.54003 9.86144 2.40468 9.89659 2.23241 9.89659C1.85096 9.89659 1.50995 9.68038 1.33768 9.33233C1.23573 9.12667 1.21464 8.98077 1.25507 8.74347C1.30956 8.40948 1.4871 8.1546 1.76132 8.01925C2.02147 7.88917 2.21659 7.8628 2.4662 7.92608C2.591 7.95948 2.65604 7.98585 2.72811 8.03858C2.75448 8.05616 2.76854 8.04913 2.82479 7.99288L2.89159 7.92608L2.83182 7.87511C2.77382 7.82589 2.62968 7.76964 2.50135 7.74327C2.45917 7.73448 2.44335 7.72218 2.43983 7.69405C2.43807 7.67296 2.43456 7.63956 2.4328 7.62022C2.43104 7.60089 2.42928 7.56397 2.42753 7.53585C2.42577 7.48839 2.42577 7.48839 2.308 7.4919C2.2412 7.4919 2.15331 7.49894 2.10936 7.50421ZM1.32362 7.95421L1.39042 8.03331L1.32362 8.11241C1.28846 8.15636 1.25331 8.19151 1.24803 8.19151C1.23046 8.19151 1.12499 8.03858 1.12499 8.01397C1.12499 7.98233 1.21112 7.87511 1.23573 7.87511C1.24803 7.87687 1.28671 7.91202 1.32362 7.95421ZM3.35389 9.63116C3.39432 9.68038 3.3785 9.75245 3.31171 9.82628C3.27655 9.86495 3.24139 9.89659 3.23436 9.89659C3.22733 9.89659 3.18866 9.87198 3.14823 9.84386C3.06385 9.78233 3.06561 9.7753 3.18866 9.64347C3.27303 9.55206 3.28534 9.55206 3.35389 9.63116ZM1.3078 9.66983L1.37635 9.75948L1.31307 9.82276L1.24803 9.88605L1.20233 9.85265C1.17772 9.83331 1.14432 9.7964 1.13026 9.77179C1.10214 9.72608 1.10389 9.72257 1.1619 9.65226C1.1953 9.61358 1.22518 9.58019 1.23046 9.58194C1.23573 9.58194 1.27089 9.62237 1.3078 9.66983Z" fill="#F2F2F2"/>
<path id="Vector_39" d="M16.6482 7.54277C16.4602 7.59902 16.3564 7.74668 16.3564 7.95586C16.3564 8.07715 16.3547 8.08242 16.2949 8.13164C16.2615 8.15976 16.1771 8.23183 16.1068 8.2916L15.9803 8.40058L15.8801 8.35488C15.7395 8.2916 15.6568 8.28633 15.5303 8.33203C15.3527 8.39531 15.3615 8.39531 15.2385 8.29511C15.177 8.2459 15.0926 8.17207 15.0521 8.13164C14.9783 8.06308 14.9766 8.05781 14.9766 7.95058C14.9766 7.69922 14.8236 7.54101 14.5811 7.54101C14.4475 7.54101 14.3561 7.5832 14.2629 7.68515C14.0783 7.88554 14.1451 8.20371 14.3982 8.33203C14.4949 8.38301 14.6215 8.39355 14.7023 8.36015C14.7832 8.32676 14.7727 8.31972 15.0029 8.53945L15.1734 8.70293L15.1629 8.78554C15.1559 8.83125 15.1594 8.89629 15.1699 8.92968L15.1893 8.99121L15.0135 9.16172L14.8377 9.33222L14.7797 9.30937C14.6127 9.23906 14.4264 9.26543 14.2963 9.37793C14.1346 9.51679 14.1258 9.80332 14.2787 9.96328C14.4352 10.1268 14.6549 10.1478 14.8324 10.0195C14.9256 9.95273 14.9783 9.84726 14.9906 9.7084L14.9994 9.59941L15.1945 9.42539L15.3896 9.25136L15.4582 9.29707C15.5162 9.33574 15.5514 9.34277 15.6691 9.34804C15.7887 9.35156 15.8256 9.34629 15.8977 9.31289L15.9838 9.2707L16.1191 9.40605C16.1947 9.47988 16.2809 9.55547 16.3107 9.57304C16.3617 9.60293 16.3652 9.60996 16.3652 9.71718C16.3652 9.89121 16.4338 9.99843 16.5938 10.0705C16.8205 10.1742 17.0965 10.0459 17.1738 9.80156C17.274 9.48691 16.9453 9.17226 16.6377 9.28828L16.5604 9.31816L16.4848 9.26543C16.4426 9.23554 16.3547 9.16172 16.2896 9.10019L16.1701 8.98945L16.1912 8.90683C16.2053 8.84531 16.207 8.80488 16.193 8.74863L16.1736 8.6748L16.2826 8.57812C16.3424 8.52539 16.4268 8.44804 16.4707 8.40586L16.548 8.33027L16.643 8.36015C16.7871 8.4041 16.9594 8.36718 17.0754 8.26523C17.1791 8.17207 17.2248 7.9207 17.1598 7.79238C17.0754 7.6289 16.9682 7.55156 16.7959 7.53398C16.7484 7.52871 16.6816 7.53222 16.6482 7.54277ZM14.6936 7.73965C14.748 7.76777 14.8008 7.86797 14.8008 7.94179C14.8008 8.0666 14.6918 8.1914 14.5811 8.1914C14.4738 8.1914 14.3613 8.07011 14.3613 7.9541C14.3613 7.78359 14.5477 7.66406 14.6936 7.73965ZM16.8996 7.77129C16.9559 7.81523 16.998 7.89258 16.998 7.94883C16.9963 8.0209 16.933 8.13515 16.8768 8.16328C16.7221 8.24414 16.5586 8.12461 16.5586 7.92773C16.5586 7.86797 16.5691 7.84336 16.6184 7.79414C16.6711 7.7414 16.6904 7.73437 16.766 7.73437C16.8275 7.73437 16.8662 7.74492 16.8996 7.77129ZM15.8379 8.54824C15.9803 8.64316 16.0295 8.87695 15.9381 9.01406C15.8994 9.07383 15.8748 9.0914 15.7922 9.11601C15.5479 9.18633 15.3633 9.05449 15.3633 8.81191C15.3633 8.67832 15.4143 8.59922 15.5426 8.53418C15.6533 8.47793 15.7359 8.4832 15.8379 8.54824ZM14.6777 9.45703C14.6971 9.46758 14.7322 9.50976 14.7568 9.55195C14.8096 9.6416 14.8148 9.75234 14.7709 9.8209C14.7393 9.86836 14.6514 9.91406 14.5881 9.91406C14.4791 9.91406 14.3613 9.7875 14.3613 9.66972C14.3613 9.50976 14.5459 9.38672 14.6777 9.45703ZM16.868 9.46758C16.9295 9.49746 16.998 9.60996 16.998 9.68379C16.998 9.75058 16.9436 9.84551 16.8855 9.88066C16.7977 9.93515 16.7115 9.92461 16.6289 9.85078C16.5445 9.77519 16.527 9.70136 16.5674 9.60468C16.6307 9.45176 16.7344 9.40429 16.868 9.46758Z" fill="#F2F2F2"/>
<path id="Vector_40" d="M3.32754 7.59727C3.30645 7.62012 3.27129 7.67637 3.24668 7.72559C3.18691 7.84512 3.01641 8.04199 2.68066 8.37598C2.52598 8.53066 2.36074 8.69941 2.31328 8.75039C2.26758 8.80137 2.22715 8.8418 2.22539 8.83828C2.22187 8.83477 2.21133 8.80664 2.19902 8.77676C2.17441 8.71699 2.04785 8.58867 2.02148 8.59922C1.99512 8.60977 1.75781 8.87344 1.75781 8.89277C1.75781 8.92617 2.10234 9.26367 2.1375 9.26367C2.17441 9.26367 2.31855 9.11777 2.51016 8.88574C2.58223 8.79785 2.7668 8.5957 2.92148 8.43398C3.07617 8.27402 3.22031 8.11758 3.23965 8.08945C3.29766 8.00684 3.33105 7.99277 3.40137 8.01738C3.47871 8.04551 3.53672 8.0209 3.58594 7.9418C3.62988 7.86797 3.62988 7.78711 3.58594 7.70098C3.51738 7.56562 3.39961 7.51992 3.32754 7.59727ZM2.19902 8.82949C2.21133 8.85762 2.20957 8.88926 2.19375 8.93848C2.16211 9.0334 2.11641 9.03867 2.04961 8.9543L1.99863 8.88926L2.04609 8.84707C2.07246 8.82422 2.10059 8.81016 2.10938 8.81543C2.11816 8.8207 2.12871 8.81719 2.13574 8.80664C2.15332 8.77676 2.17969 8.7873 2.19902 8.82949Z" fill="#F2F2F2"/>
<path id="Vector_41" d="M15.3897 10.3781C15.2473 10.4115 14.9907 10.5047 14.8623 10.5679C14.5231 10.7384 14.2014 11.1533 14.0959 11.5576C14.0502 11.7351 14.0327 12.092 14.0608 12.2625C14.1452 12.7371 14.5424 13.2222 14.9995 13.4015C15.2368 13.4947 15.3721 13.5211 15.627 13.5246C15.8924 13.5263 16.0366 13.5 16.251 13.4068C16.4602 13.3154 16.6993 13.1396 16.6993 13.0746C16.6993 13.0605 16.6659 13.0218 16.6254 12.9902C16.5832 12.9568 16.5235 12.9006 16.4918 12.8636C16.4584 12.8267 16.3864 12.7599 16.3284 12.716C16.2704 12.672 16.135 12.5525 16.0278 12.4523C15.9206 12.3521 15.8221 12.2695 15.8098 12.2695C15.7957 12.2695 15.7852 12.2572 15.7852 12.2396C15.7852 12.1922 15.7676 12.2256 15.7588 12.2888C15.7448 12.4013 15.7289 12.4629 15.7131 12.4629C15.7043 12.4629 15.7026 12.4734 15.7079 12.4875C15.7131 12.5015 15.7096 12.5279 15.6991 12.5472C15.6868 12.5701 15.6868 12.5859 15.7008 12.6C15.7166 12.6158 15.7166 12.6211 15.6991 12.6211C15.6868 12.6211 15.6815 12.6281 15.6885 12.6369C15.6938 12.6457 15.6903 12.658 15.6815 12.665C15.6709 12.6703 15.6692 12.6879 15.6745 12.7037C15.6815 12.723 15.6797 12.7283 15.6657 12.7195C15.6516 12.7107 15.6446 12.7248 15.6446 12.7652C15.6446 12.7986 15.6358 12.8338 15.6235 12.8461C15.6077 12.8619 15.6077 12.8672 15.6235 12.8672C15.6393 12.8672 15.6428 12.8847 15.6358 12.9234C15.6288 12.955 15.6217 13.0007 15.6182 13.0254C15.6006 13.1414 15.5883 13.1941 15.5725 13.2082C15.5637 13.2187 15.5567 13.2381 15.5567 13.2539C15.5567 13.3031 15.4899 13.3277 15.3932 13.3154C15.0715 13.2697 14.8202 13.1185 14.5407 12.7968C14.3157 12.5384 14.2471 12.3451 14.2489 11.9619C14.2489 11.7088 14.2594 11.6472 14.3368 11.4398C14.5196 10.9547 15.068 10.5644 15.5672 10.5644H15.6604L15.6657 11.2183C15.6692 11.5787 15.678 11.8863 15.685 11.9004C15.6938 11.9144 15.7325 11.9531 15.7729 11.9847C15.8133 12.0181 15.9663 12.157 16.1104 12.2959C16.2563 12.433 16.4338 12.5965 16.5059 12.658C16.578 12.7195 16.6834 12.8179 16.7397 12.8759L16.8416 12.9814L16.9014 12.9129C16.9928 12.8091 17.093 12.6281 17.1563 12.4541C17.2055 12.3187 17.2143 12.2642 17.2231 12.0867C17.2442 11.5787 17.1141 11.206 16.7995 10.8685C16.5991 10.6558 16.3829 10.5222 16.0752 10.4238C15.8643 10.357 15.569 10.3377 15.3897 10.3781ZM16.3248 11.9109C16.3723 11.9232 16.3987 12.0093 16.3934 12.1324C16.3881 12.2484 16.3653 12.2695 16.2352 12.2695C16.1772 12.2695 16.1368 12.2625 16.1473 12.2554C16.1579 12.2484 16.1719 12.1939 16.1789 12.1324C16.1913 12.0234 16.1913 12.0234 16.1456 12.0234C16.0963 12.0234 16.0875 11.9865 16.128 11.9531C16.1491 11.9355 16.2123 11.9144 16.2774 11.9021C16.2827 11.9021 16.3038 11.9056 16.3248 11.9109ZM16.6957 11.939C16.7379 11.9812 16.7151 12.0779 16.643 12.1588C16.6079 12.1957 16.6079 12.1957 16.6571 12.2203C16.6834 12.2326 16.7081 12.2537 16.7133 12.2642C16.7221 12.2924 16.462 12.2959 16.4444 12.2695C16.4391 12.259 16.4778 12.2062 16.5305 12.15C16.6571 12.0164 16.6571 11.9988 16.5323 12.0111C16.425 12.0216 16.4075 12.0111 16.4461 11.9566C16.469 11.925 16.4901 11.9179 16.5745 11.9179C16.6289 11.9179 16.6834 11.9267 16.6957 11.939ZM16.9875 11.9461C16.9928 11.9619 16.9981 12.0093 16.9981 12.0533C16.9981 12.1166 17.0051 12.1341 17.0315 12.1412C17.0631 12.1482 17.0614 12.1535 17.0209 12.2273C16.9735 12.3117 16.9331 12.3275 16.9243 12.2642C16.9207 12.2326 16.9067 12.2238 16.8434 12.2203C16.7995 12.2168 16.7643 12.2045 16.759 12.1904C16.7467 12.1588 16.7872 12.0849 16.8663 11.9918C16.9348 11.9144 16.97 11.9004 16.9875 11.9461Z" fill="#F2F2F2"/>
<path id="Vector_42" d="M16.2246 12.0867C16.2246 12.1587 16.2281 12.1658 16.265 12.1605C16.2967 12.157 16.302 12.1464 16.2984 12.0972C16.2949 12.0638 16.3002 12.041 16.3125 12.041C16.323 12.041 16.3266 12.0322 16.3213 12.0234C16.316 12.0128 16.2914 12.0058 16.2668 12.0058C16.2281 12.0058 16.2246 12.0128 16.2246 12.0867Z" fill="#F2F2F2"/>
<path id="Vector_43" d="M16.875 12.085C16.8645 12.1113 16.8522 12.1412 16.8469 12.1482C16.8416 12.157 16.8451 12.1641 16.8539 12.1641C16.875 12.1641 16.919 12.0621 16.9049 12.0463C16.8979 12.041 16.8856 12.0586 16.875 12.085Z" fill="#F2F2F2"/>
<path id="Vector_44" d="M0.833219 10.5997C0.734781 10.6384 0.738297 10.5804 0.738297 12.0253C0.738297 12.7583 0.74357 13.37 0.748844 13.3859C0.780484 13.465 0.780484 13.465 2.17443 13.4632C2.89689 13.4632 3.54377 13.4579 3.61056 13.4491C3.71252 13.4386 3.73888 13.428 3.77228 13.3876L3.81447 13.3401V12.0095C3.81271 10.6032 3.81623 10.6472 3.73185 10.6032C3.68615 10.5786 0.892984 10.5751 0.833219 10.5997ZM3.62111 10.9425V11.1095H2.27638H0.931656V10.9425V10.7755H2.27638H3.62111V10.9425ZM3.61408 11.3064C3.62111 11.3134 3.62814 11.7581 3.63166 12.296L3.63693 13.2716H2.39416C1.71037 13.2716 1.09865 13.2769 1.03361 13.2839L0.914078 13.2944V13.0976C0.914078 12.9833 0.921109 12.9025 0.931656 12.9025C0.940445 12.9025 0.975602 12.9165 1.01076 12.9323C1.07228 12.9622 1.07228 12.9622 1.12677 12.9095C1.20412 12.8374 1.54337 12.4683 1.61896 12.3769L1.68048 12.2995L1.78595 12.3698C1.8422 12.4085 1.91427 12.4525 1.94591 12.4683L2.00041 12.4982L2.14455 12.3452C2.22365 12.2626 2.33088 12.1396 2.38537 12.0745C2.48205 11.955 2.50314 11.9392 2.52072 11.9691C2.53654 11.9937 2.79494 12.1642 2.81779 12.1642C2.86173 12.1642 3.39084 11.7036 3.42951 11.6333C3.45236 11.5911 3.41896 11.5331 3.35216 11.498C3.30822 11.4734 3.30295 11.4769 3.18166 11.6069C3.1131 11.679 3.00236 11.788 2.93556 11.8478L2.81252 11.9568L2.74572 11.911C2.71056 11.8864 2.63673 11.8302 2.584 11.7862C2.53127 11.7423 2.47853 11.7071 2.46623 11.7071C2.45568 11.7071 2.3924 11.7757 2.32736 11.8601C2.26056 11.9462 2.15685 12.0763 2.09357 12.1519C1.9881 12.2784 1.97755 12.2855 1.94416 12.2644C1.92306 12.2503 1.84923 12.2064 1.77716 12.1642L1.64709 12.0868L1.57502 12.1659C1.20412 12.5667 1.09513 12.6792 1.02482 12.7249C0.980875 12.7548 0.93693 12.7741 0.929898 12.7689C0.910563 12.7583 0.908805 11.3134 0.926383 11.2958C0.943961 11.2782 3.5965 11.2905 3.61408 11.3064Z" fill="#F2F2F2"/>
<path id="Vector_45" d="M4.31368 12.0603C4.28555 12.0691 4.24161 12.0955 4.21875 12.1201C4.16426 12.1781 4.16075 12.2537 4.17833 12.788L4.19239 13.1906L4.26446 13.2117C4.35938 13.2398 4.59668 13.2169 4.63711 13.1765C4.66348 13.1519 4.66875 13.0816 4.6793 12.6861C4.68985 12.2695 4.68809 12.2203 4.65997 12.1728C4.59493 12.0585 4.46485 12.0164 4.31368 12.0603ZM4.51934 12.6298C4.51583 12.8513 4.51231 13.0359 4.51055 13.0376C4.50704 13.0412 4.46836 13.0482 4.42266 13.0535C4.35938 13.0623 4.33477 13.0587 4.32247 13.0412C4.31368 13.0271 4.30665 12.8355 4.30665 12.6158V12.215L4.41739 12.2203L4.52637 12.2255L4.51934 12.6298Z" fill="#F2F2F2"/>
<path id="Vector_46" d="M12.753 12.4401C12.6545 12.4559 12.6563 12.4453 12.6563 12.9832C12.6563 13.6002 12.6317 13.551 12.9428 13.5545C13.0606 13.5563 13.2803 13.5563 13.4297 13.5528C13.6723 13.551 13.7057 13.5457 13.7373 13.5158C13.7707 13.4842 13.7725 13.4543 13.7778 12.9938C13.7813 12.5895 13.7778 12.5016 13.7567 12.4717C13.7321 12.4383 13.7092 12.4365 13.268 12.4348C13.0131 12.433 12.7828 12.4365 12.753 12.4401ZM13.602 12.985L13.5967 13.3682L13.2153 13.3735L12.8321 13.377L12.8303 13.2504C12.8303 13.1801 12.825 13.0131 12.8215 12.8795C12.818 12.7459 12.818 12.6281 12.8233 12.6194C12.8303 12.6106 13.0026 12.6035 13.2205 12.6035H13.6055L13.602 12.985Z" fill="#F2F2F2"/>
<path id="Vector_47" d="M13.0026 12.7934C12.9621 12.8373 12.9656 12.9252 13.0061 12.9621C13.0465 12.999 13.0694 12.9885 13.1045 12.9217C13.1238 12.8813 13.1379 12.8742 13.1748 12.8795C13.1994 12.8848 13.2188 12.8953 13.2188 12.9041C13.2188 12.9287 13.4543 12.9234 13.4789 12.8988C13.5158 12.8619 13.5018 12.8303 13.4385 12.8039C13.3471 12.767 13.2416 12.7705 13.2276 12.8145C13.217 12.8496 13.1836 12.8637 13.1836 12.8338C13.1836 12.767 13.0518 12.7389 13.0026 12.7934Z" fill="#F2F2F2"/>
<path id="Vector_48" d="M13.3067 13.0324C13.2856 13.0517 13.2539 13.0535 13.1502 13.0412C13.0799 13.0307 13.0166 13.0289 13.0113 13.0342C12.992 13.0535 13.0043 13.1713 13.0289 13.1853C13.0412 13.1941 13.0817 13.2012 13.1186 13.2012C13.1713 13.2012 13.1871 13.1924 13.1994 13.159C13.2135 13.1256 13.2504 13.0957 13.2803 13.0957C13.2838 13.0957 13.3014 13.1238 13.3225 13.159C13.3541 13.2117 13.3664 13.2205 13.4174 13.2152C13.4666 13.21 13.4736 13.2029 13.4789 13.1502C13.4895 13.0394 13.4719 13.0078 13.3981 13.0078C13.3611 13.0078 13.3207 13.0183 13.3067 13.0324Z" fill="#F2F2F2"/>
<path id="Vector_49" d="M5.00098 12.6984C4.89902 12.7424 4.89551 12.7547 4.90078 13.0939C4.90781 13.4754 4.90078 13.4648 5.13984 13.4648C5.37188 13.4648 5.37188 13.4648 5.38594 13.1097C5.4 12.8021 5.3877 12.7511 5.29102 12.7002C5.22949 12.6685 5.07305 12.6668 5.00098 12.6984ZM5.23477 13.0816L5.22949 13.2961L5.1416 13.2908C5.09414 13.289 5.05195 13.2855 5.0502 13.2838C5.0502 13.282 5.04492 13.1906 5.04141 13.0834C5.03613 12.8636 5.03086 12.8724 5.16445 12.8689L5.24004 12.8672L5.23477 13.0816Z" fill="#F2F2F2"/>
<path id="Vector_50" d="M4.52991 13.3278C4.52288 13.3524 4.52815 13.3788 4.54397 13.3946C4.56683 13.4175 4.57034 13.4139 4.57034 13.377C4.57034 13.3102 4.54222 13.2768 4.52991 13.3278Z" fill="#F2F2F2"/>
<path id="Vector_51" d="M4.30664 13.384C4.30664 13.4086 4.31191 13.4297 4.3207 13.4314C4.32773 13.4314 4.35586 13.4367 4.38223 13.4402C4.41211 13.4455 4.42793 13.442 4.42266 13.4314C4.41562 13.4226 4.42969 13.4015 4.45078 13.3875C4.48945 13.3593 4.48945 13.3593 4.42617 13.3593C4.39102 13.3593 4.35059 13.3541 4.33477 13.3488C4.31367 13.34 4.30664 13.3488 4.30664 13.384Z" fill="#F2F2F2"/>
<path id="Vector_52" d="M11.7598 13.521C11.7598 13.6159 11.7492 13.63 11.6684 13.6564C11.5488 13.695 11.4258 13.8708 11.4258 14.0009C11.4258 14.0448 11.4891 14.1837 11.5277 14.2259C11.5734 14.2769 11.7018 14.3349 11.8441 14.37C12.048 14.4193 12.1096 14.4948 12.0111 14.5722C11.9707 14.6038 11.9461 14.6091 11.8652 14.6021C11.7773 14.595 11.7633 14.588 11.6947 14.5107C11.6191 14.4298 11.6156 14.428 11.5383 14.4386C11.4293 14.4527 11.3906 14.4773 11.3906 14.53C11.3906 14.653 11.5102 14.7831 11.6578 14.82C11.7422 14.8429 11.7422 14.8429 11.7422 14.915C11.7422 15.0275 11.7686 15.0503 11.8916 15.0433L11.9971 15.038L12.0023 14.9378C12.0076 14.8376 12.0076 14.8376 12.0691 14.8253C12.2748 14.7866 12.3961 14.5318 12.3064 14.3314C12.2643 14.24 12.1799 14.1855 11.9848 14.1222C11.9057 14.0958 11.8178 14.0642 11.7914 14.0501C11.693 14.0027 11.758 13.9042 11.8863 13.9042C11.9373 13.9042 11.9689 13.9183 12.0217 13.9657C12.0797 14.0185 12.1008 14.0273 12.1781 14.0273C12.2801 14.0273 12.3223 13.9886 12.3223 13.8989C12.3223 13.804 12.1975 13.6845 12.0691 13.6599C12.0164 13.6476 12.0146 13.6441 12.0094 13.5474L12.0041 13.4472H11.8828H11.7598V13.521Z" fill="#F2F2F2"/>
<path id="Vector_53" d="M16.7344 13.7074C16.6676 13.7724 16.6641 13.783 16.6641 13.8797V13.9834L16.4496 14.1961C16.3301 14.3139 16.1877 14.4422 16.1332 14.4826C16.077 14.523 15.9328 14.6514 15.8116 14.7674C15.6903 14.8851 15.5918 14.973 15.5918 14.9642C15.5918 14.9396 15.511 14.9062 15.4495 14.9062C15.4213 14.9062 15.3721 14.9185 15.3422 14.9344L15.2877 14.9625L15.1453 14.8236C14.9977 14.6795 14.7762 14.4861 14.7024 14.4369C14.6655 14.414 14.6602 14.3965 14.6602 14.2998C14.6602 14.2066 14.6532 14.1803 14.6092 14.1205C14.5002 13.9693 14.3139 13.9377 14.1821 14.0449C14.1012 14.1117 14.0625 14.1961 14.0625 14.3051V14.3912L13.7953 14.6531C13.435 15.0029 13.4596 14.9836 13.3963 14.9502C13.3278 14.915 13.21 14.9168 13.1502 14.9519C13.1239 14.9678 13.0852 15.0064 13.0623 15.0381C13.0289 15.0873 13.0237 15.1172 13.0272 15.2086L13.0307 15.3193L12.8549 15.4986L12.6791 15.6779L12.6106 15.6445C12.4963 15.5848 12.3768 15.6094 12.2854 15.7078C12.1623 15.8431 12.187 16.0699 12.3346 16.1578C12.5315 16.2721 12.753 16.149 12.7741 15.9099L12.7846 15.8045L12.9745 15.6375L13.1643 15.4705L13.2188 15.4986C13.3014 15.539 13.3981 15.5056 13.5053 15.3967C13.5897 15.314 13.5914 15.3105 13.5844 15.2139L13.5791 15.1154L13.8745 14.8236L14.1698 14.5318L14.2102 14.5705C14.2911 14.6478 14.4299 14.6531 14.5301 14.5828C14.5653 14.5582 14.5705 14.5599 14.618 14.6109C14.6461 14.639 14.7287 14.7111 14.8008 14.7709C15.0012 14.9308 15.1875 15.1207 15.1875 15.1611C15.1875 15.3035 15.2789 15.4195 15.4108 15.4476C15.583 15.4846 15.7149 15.3545 15.7149 15.1471C15.7149 15.1084 15.7536 15.0609 15.91 14.9098C16.0172 14.806 16.1385 14.7023 16.1825 14.6795C16.2246 14.6566 16.2827 14.6092 16.3125 14.5723C16.3407 14.5353 16.4514 14.4264 16.5569 14.3279L16.7502 14.1486L16.803 14.175C16.8311 14.1908 16.8856 14.2031 16.9207 14.2031C16.9735 14.2031 16.9998 14.189 17.0596 14.1275C17.1914 13.9974 17.1985 13.8463 17.0789 13.7144C17.0262 13.6582 17.0104 13.6512 16.912 13.6441C16.8065 13.6371 16.8047 13.6371 16.7344 13.7074Z" fill="#F2F2F2"/>
<path id="Vector_54" d="M6.1453 13.8306C6.14003 13.8394 6.133 14.6058 6.12772 15.5339C6.12069 16.8681 6.12421 17.2284 6.14179 17.2425C6.15585 17.2548 6.64979 17.2618 7.61835 17.2636C9.02284 17.2671 9.07558 17.2671 9.09843 17.2355C9.12831 17.195 9.13007 17.1282 9.10194 17.1107C9.0914 17.1036 8.99472 17.0931 8.88749 17.0878L8.69237 17.0773V16.2335C8.69237 15.7695 8.6871 15.4337 8.68007 15.4865C8.67304 15.5392 8.66601 15.6728 8.66425 15.78C8.66073 15.9329 8.65546 15.9786 8.63612 15.9786C8.62382 15.9786 8.61327 15.9698 8.61327 15.9593C8.61327 15.9488 8.60097 15.9435 8.5869 15.9505C8.56933 15.9575 8.56054 15.9488 8.56054 15.9259C8.56054 15.8978 8.54823 15.8907 8.49726 15.8907H8.43397L8.441 15.7712L8.44628 15.6534L8.38651 15.6482C8.35136 15.6447 8.32147 15.6517 8.31268 15.664C8.28983 15.7009 8.27577 15.6693 8.28808 15.613C8.29686 15.5726 8.30565 15.562 8.33378 15.5691C8.35136 15.5743 8.36718 15.5691 8.36718 15.5585C8.36718 15.548 8.38651 15.5392 8.40936 15.5392C8.44276 15.5392 8.44979 15.5322 8.44276 15.504C8.43749 15.4847 8.44276 15.4689 8.45331 15.4689C8.46386 15.4689 8.47265 15.4531 8.47265 15.4337C8.47265 15.4056 8.48495 15.3986 8.53944 15.3968C8.60448 15.395 8.60448 15.395 8.55175 15.381C8.50429 15.3687 8.5078 15.3669 8.58339 15.3652C8.62909 15.3652 8.66601 15.3546 8.66601 15.3458C8.66601 15.3353 8.58163 15.3282 8.44628 15.3282H8.22655V15.6482C8.22655 15.8486 8.23358 15.9611 8.24237 15.9452C8.25468 15.9259 8.26171 15.9347 8.26698 15.9804C8.2705 16.0191 8.27577 16.0015 8.27929 15.9259C8.28104 15.8626 8.28808 15.8292 8.29159 15.8503C8.29862 15.8837 8.31093 15.8907 8.36893 15.8907C8.43749 15.8907 8.43749 15.8907 8.43749 15.9593C8.43749 16.0085 8.44628 16.0296 8.46561 16.0349C8.49022 16.0402 8.48847 16.0454 8.45858 16.0788C8.43925 16.1017 8.4164 16.1193 8.40409 16.1193C8.39354 16.1193 8.38476 16.1298 8.38476 16.1404C8.38476 16.1527 8.36015 16.2107 8.33202 16.2687C8.3039 16.3267 8.28456 16.3777 8.28983 16.3812C8.29335 16.3847 8.29686 16.3794 8.29686 16.3671C8.29686 16.3513 8.3039 16.3531 8.32323 16.3724C8.35311 16.4005 8.35839 16.4532 8.33378 16.4532C8.32499 16.4532 8.31268 16.4708 8.30917 16.4919C8.30214 16.5306 8.30214 16.5306 8.29862 16.4884C8.29511 16.448 8.29335 16.4462 8.27929 16.4796C8.26874 16.506 8.26347 16.4884 8.26347 16.4181C8.26171 16.3654 8.25292 16.3091 8.24413 16.295C8.23358 16.2775 8.22655 16.4075 8.22655 16.6782V17.0878L8.07362 17.0825L7.91893 17.0773L7.91366 16.8312C7.90839 16.6079 7.90487 16.5904 7.88378 16.6378L7.86093 16.6906L7.83983 16.6343C7.82753 16.6027 7.81171 16.5763 7.80292 16.5763C7.79413 16.5763 7.7871 16.5675 7.7871 16.5587C7.7871 16.5253 7.8205 16.5411 7.8328 16.5798C7.84335 16.6132 7.84511 16.6132 7.86093 16.5886C7.87147 16.5693 7.86972 16.5482 7.85917 16.5271C7.84862 16.5095 7.83983 16.506 7.83983 16.52C7.83983 16.5323 7.8328 16.5376 7.82226 16.5323C7.78534 16.5095 7.81522 16.3038 7.85917 16.2775C7.87323 16.2687 7.87147 16.2493 7.85214 16.2142C7.81347 16.1386 7.80292 16.0613 7.82401 16.0314C7.83983 16.0085 7.84159 16.0103 7.8328 16.0349C7.82753 16.0525 7.8328 16.07 7.84335 16.0771C7.8539 16.0841 7.85741 16.0823 7.85214 16.0718C7.84511 16.0613 7.85214 16.0384 7.8662 16.0208C7.89081 15.9892 7.89257 15.9909 7.88378 16.0402C7.87675 16.0771 7.87851 16.0841 7.88905 16.0665C7.89784 16.0525 7.91015 15.9646 7.91718 15.8732C7.92245 15.7747 7.92069 15.7167 7.9119 15.7308C7.90311 15.7448 7.88729 15.7484 7.87499 15.7413C7.85917 15.7308 7.85565 15.7343 7.8662 15.7519C7.88729 15.7853 7.88202 15.9786 7.85917 16.0015C7.84511 16.0156 7.83983 16.0156 7.83983 15.998C7.83983 15.9839 7.82929 15.9857 7.80995 16.0068C7.79061 16.0261 7.78007 16.0613 7.78183 16.1034C7.78534 16.172 7.78534 16.172 7.71679 16.172C7.65175 16.172 7.64823 16.1685 7.63593 16.1105C7.63065 16.0771 7.61835 16.0437 7.60956 16.0384C7.58671 16.0261 7.59198 16.0648 7.62011 16.1456C7.63768 16.1931 7.63944 16.2212 7.62714 16.2335C7.61483 16.2458 7.61308 16.2423 7.62011 16.2212C7.62714 16.2019 7.61835 16.1861 7.59374 16.172C7.57089 16.1597 7.56034 16.1421 7.56561 16.1263C7.57089 16.1122 7.56913 16.1052 7.56034 16.1105C7.53573 16.1245 7.51815 16.0542 7.51464 15.9118C7.50761 15.715 7.47069 15.7062 7.46718 15.8995C7.4619 16.1544 7.4619 16.4234 7.46893 16.7556C7.47245 16.9261 7.46893 17.0738 7.4619 17.0843C7.44784 17.1107 7.19472 17.1089 7.16659 17.0843C7.15077 17.0685 7.1455 16.9525 7.14726 16.6484C7.14901 16.4198 7.14374 16.2687 7.13671 16.3126L7.1244 16.3917L7.11913 16.3038C7.11561 16.2458 7.1121 16.2335 7.10683 16.2634C7.10155 16.2986 7.08925 16.3126 7.06464 16.3126C7.04706 16.3126 7.03124 16.3038 7.03124 16.295C7.03124 16.2845 7.01718 16.2775 7.00136 16.2775C6.97147 16.2792 6.97147 16.2792 7.00136 16.3021C7.04003 16.332 7.04003 16.3478 6.99784 16.3478C6.98026 16.3478 6.96093 16.3355 6.9539 16.3214C6.94159 16.2863 6.90819 16.288 6.90819 16.3249C6.90819 16.3478 6.90292 16.3495 6.8871 16.3337C6.85722 16.3038 6.8203 16.3073 6.8203 16.339C6.8203 16.3829 6.76054 16.3689 6.73768 16.3179C6.70253 16.2458 6.70956 16.23 6.77636 16.2282C6.82206 16.2265 6.83436 16.2318 6.82558 16.2511C6.81854 16.2722 6.83261 16.2775 6.88886 16.2775C6.96972 16.2775 6.98729 16.2493 6.91347 16.237C6.88534 16.2335 6.90643 16.23 6.95741 16.2335C7.02245 16.2353 7.0453 16.2318 7.03124 16.2177C7.02245 16.2089 6.93983 16.1984 6.85018 16.1948L6.68847 16.1896L6.69374 16.6044C6.6955 16.8329 6.70604 17.0122 6.71308 17.007C6.72186 17.0017 6.72011 17.0175 6.70956 17.0421C6.68671 17.0896 6.70253 17.0861 6.38964 17.0931L6.30175 17.0948L6.29647 16.4603L6.29296 15.8257L6.358 15.8134C6.47929 15.7941 6.63573 15.8011 6.67265 15.8292C6.7289 15.8714 6.77811 15.8591 6.87304 15.7782C6.92226 15.7361 7.03124 15.6552 7.11561 15.599C7.19999 15.5427 7.34237 15.4425 7.43202 15.3775C7.59022 15.2615 7.5955 15.2579 7.63593 15.2861C7.6746 15.3107 7.68339 15.3107 7.73261 15.2861C7.76073 15.2702 7.79061 15.2491 7.79589 15.2404C7.80292 15.2298 7.89257 15.1648 7.99452 15.0962C8.43222 14.8044 8.90683 14.4406 8.93847 14.3755C8.95077 14.3474 8.9455 14.3333 8.91386 14.307C8.85233 14.2577 8.80311 14.2665 8.71698 14.3404C8.61151 14.4335 8.44628 14.5583 8.22831 14.713C8.12811 14.7833 7.97694 14.8923 7.89608 14.9538C7.76425 15.0505 7.73612 15.0646 7.66933 15.0646C7.60604 15.0646 7.57616 15.0769 7.51815 15.1243C7.47772 15.156 7.29491 15.2825 7.11034 15.4038L6.77636 15.6253L6.54433 15.6306L6.31229 15.6359L6.30175 15.5743C6.29647 15.5409 6.29296 15.149 6.29472 14.7042C6.29472 14.2595 6.29472 13.8781 6.29472 13.8552C6.29296 13.8218 6.28417 13.8165 6.2244 13.8165C6.18573 13.8165 6.15058 13.8236 6.1453 13.8306ZM8.57811 15.9962C8.57811 16.005 8.55526 16.0138 8.52538 16.0138C8.49726 16.0138 8.47265 16.005 8.47265 15.9962C8.47265 15.9857 8.49726 15.9786 8.52538 15.9786C8.55526 15.9786 8.57811 15.9857 8.57811 15.9962ZM7.51991 16.1456L7.52167 16.1808L7.50585 16.1456C7.49706 16.1263 7.49179 16.0911 7.49179 16.0665V16.0226L7.50585 16.0665C7.51288 16.0911 7.51991 16.1263 7.51991 16.1456ZM8.56933 16.049C8.56405 16.0577 8.54647 16.0665 8.53241 16.0665C8.51835 16.0665 8.51132 16.0577 8.51659 16.049C8.52186 16.0384 8.53944 16.0314 8.5535 16.0314C8.56757 16.0314 8.5746 16.0384 8.56933 16.049ZM7.57968 16.2599C7.57089 16.3179 7.56913 16.3197 7.55683 16.2775C7.54979 16.2529 7.54452 16.2142 7.54276 16.1896C7.54101 16.1527 7.54452 16.1509 7.56561 16.172C7.58143 16.1896 7.58671 16.2195 7.57968 16.2599ZM7.483 16.2634C7.47772 16.2757 7.47421 16.2669 7.47421 16.2423C7.47421 16.2177 7.47772 16.2089 7.483 16.2195C7.48651 16.2318 7.48651 16.2529 7.483 16.2634ZM7.69569 16.2775C7.71327 16.2775 7.74491 16.2933 7.76952 16.3126C7.80468 16.339 7.80643 16.3478 7.78358 16.3478C7.76776 16.3478 7.75018 16.3407 7.74491 16.3337C7.73964 16.3249 7.71151 16.3197 7.68163 16.3214C7.64296 16.3232 7.6289 16.3161 7.6289 16.295C7.6289 16.2599 7.65175 16.2335 7.66054 16.2581C7.66405 16.2687 7.67987 16.2775 7.69569 16.2775ZM7.51815 16.4392C7.51288 16.4515 7.50936 16.4427 7.50936 16.4181C7.50936 16.3935 7.51288 16.3847 7.51815 16.3952C7.52167 16.4075 7.52167 16.4286 7.51815 16.4392ZM7.71679 16.6993C7.71679 16.7187 7.70976 16.7345 7.69921 16.7345C7.69042 16.7345 7.68163 16.7187 7.68163 16.6993C7.68163 16.68 7.69042 16.6642 7.69921 16.6642C7.70976 16.6642 7.71679 16.68 7.71679 16.6993ZM7.64647 16.7169C7.64647 16.7257 7.63944 16.7345 7.6289 16.7345C7.62011 16.7345 7.61132 16.7257 7.61132 16.7169C7.61132 16.7064 7.62011 16.6993 7.6289 16.6993C7.63944 16.6993 7.64647 16.7064 7.64647 16.7169ZM7.88729 16.7556C7.88202 16.7697 7.87675 16.7644 7.87675 16.745C7.87499 16.7257 7.88026 16.7152 7.88554 16.7222C7.89081 16.7275 7.89257 16.7433 7.88729 16.7556ZM8.27401 16.7732C8.26874 16.7872 8.26347 16.782 8.26347 16.7626C8.26171 16.7433 8.26698 16.7327 8.27225 16.7398C8.27753 16.745 8.27929 16.7609 8.27401 16.7732ZM7.65702 16.9806C7.69921 16.9806 7.73436 16.9876 7.73436 16.9982C7.73436 17.007 7.75546 17.0157 7.78358 17.0157C7.83456 17.0175 7.8996 17.0562 7.88026 17.0738C7.86268 17.0931 7.50936 17.0878 7.49706 17.0685C7.49179 17.0597 7.49354 17.0316 7.49882 17.0034C7.50936 16.9613 7.51288 16.9595 7.52343 16.9894C7.53573 17.0228 7.53749 17.021 7.54979 16.9806C7.55858 16.956 7.56737 16.9472 7.57089 16.9577C7.57616 16.9718 7.60956 16.9806 7.65702 16.9806ZM6.74999 17.0404C6.74999 17.0456 6.74296 17.0544 6.73241 17.0597C6.72362 17.065 6.71483 17.0615 6.71483 17.0527C6.71483 17.0421 6.72362 17.0333 6.73241 17.0333C6.74296 17.0333 6.74999 17.0368 6.74999 17.0404Z" fill="#F2F2F2"/>
<path id="Vector_55" d="M1.1373 13.957L0.857812 13.9658L0.798047 14.0309L0.738281 14.0977V15.6375C0.738281 17.223 0.738281 17.2213 0.806836 17.274C0.82793 17.2916 1.38164 17.2951 3.25723 17.2969H5.68125L5.72871 17.2477L5.77793 17.2002L5.78848 16.2861C5.79375 15.7834 5.79375 15.0838 5.78848 14.7305C5.77793 14.0396 5.77793 14.0414 5.68301 13.9799C5.6373 13.95 5.51074 13.9482 3.52441 13.9482C2.36426 13.9482 1.29023 13.9518 1.1373 13.957ZM2.28164 14.226C2.34668 14.2857 2.32207 14.4018 2.23242 14.4492C2.18848 14.4721 2.08477 14.4316 2.0584 14.3824C2.02676 14.3227 2.03555 14.2893 2.10234 14.226C2.17266 14.1609 2.20957 14.1609 2.28164 14.226ZM1.25684 14.2295C1.31133 14.2822 1.31309 14.3578 1.26387 14.4211C1.21641 14.4809 1.13906 14.4826 1.08105 14.4229C1.02305 14.3648 1.0248 14.2998 1.08809 14.2365C1.15137 14.175 1.20059 14.1715 1.25684 14.2295ZM1.74902 14.2313C1.77363 14.2576 1.79297 14.2928 1.79297 14.3121C1.79297 14.3613 1.74551 14.4457 1.70508 14.4668C1.63301 14.5055 1.48008 14.3877 1.50645 14.3139C1.51172 14.2963 1.53633 14.2611 1.56094 14.233C1.6207 14.1697 1.69277 14.1697 1.74902 14.2313ZM4.97988 14.2594C5.02031 14.3068 5.01855 14.3631 4.97285 14.4211C4.92363 14.4826 4.86562 14.4791 4.80937 14.4123C4.75137 14.3438 4.75137 14.3174 4.81641 14.2541C4.87441 14.1943 4.92539 14.1961 4.97988 14.2594ZM5.40879 14.2594C5.45625 14.3033 5.45977 14.3543 5.41934 14.4C5.38066 14.4422 5.35605 14.4404 5.29277 14.3859C5.22773 14.3332 5.22422 14.2857 5.27695 14.2488C5.32969 14.2119 5.35957 14.2137 5.40879 14.2594ZM4.7584 14.7586L4.9166 14.7709L4.91484 15.2297L4.91309 15.6885L4.83926 15.6938C4.76543 15.699 4.76367 15.7008 4.76367 15.7623V15.8238L4.84277 15.8168L4.92188 15.8115L4.91836 16.1807L4.91309 16.5498L4.57559 16.5551L4.23633 16.5586V16.2035C4.23633 16.0066 4.24336 15.8361 4.25215 15.8238C4.25918 15.8115 4.28906 15.7957 4.31719 15.7869C4.35586 15.7781 4.36992 15.7623 4.37344 15.7236C4.38047 15.6762 4.37871 15.6744 4.31191 15.685L4.24336 15.6973L4.24687 15.2262C4.24863 14.9678 4.25215 14.7551 4.25215 14.7516C4.25566 14.7428 4.60371 14.748 4.7584 14.7586ZM1.61719 15.242V15.7184L1.57852 15.7078C1.55566 15.7025 1.39746 15.6973 1.22695 15.6973H0.914062V15.4107C0.914062 15.1506 0.924609 15.0768 0.95625 15.0803C1.00898 15.0873 1.07227 15.0785 1.07227 15.0645C1.07227 15.0539 1.05469 15.0469 1.03359 15.0469C0.922852 15.0451 0.914062 15.0346 0.914062 14.8957V14.7656H1.26562H1.61719V15.242ZM2.44863 15.0855C2.45566 15.2596 2.46094 15.4705 2.46094 15.5514V15.6973H2.10938H1.75781L1.75957 15.2314V14.7656H2.09883H2.43809L2.44863 15.0855ZM3.27305 15.2174C3.27832 15.467 3.27656 15.6779 3.26953 15.685C3.2625 15.6938 3.10957 15.6938 2.92852 15.6867L2.60156 15.6744V15.3281C2.60156 15.1383 2.59629 14.9326 2.59102 14.8729L2.57871 14.7656H2.92148H3.26426L3.27305 15.2174ZM4.10449 15.2297C4.10449 15.75 4.11504 15.7148 3.97617 15.7148C3.92344 15.7148 3.91816 15.7184 3.92344 15.7623C3.92871 15.808 3.93574 15.8115 4.00957 15.8168L4.09043 15.8221L4.10273 16.1754C4.10801 16.3705 4.11152 16.5305 4.10977 16.534C4.10625 16.5357 4.05352 16.541 3.99023 16.5445L3.87598 16.5498L3.88125 16.4971C3.89004 16.3986 3.88652 15.6533 3.87598 15.5742C3.85488 15.4125 3.8584 15.416 3.76348 15.416C3.63516 15.416 3.62109 15.4248 3.62109 15.5162C3.62109 15.5584 3.6123 15.6111 3.6 15.6322C3.57891 15.6727 3.57715 16.2598 3.59824 16.4566L3.60879 16.5586H3.50859H3.41016V16.1824V15.8063L3.47695 15.7904C3.55078 15.7729 3.56484 15.7271 3.49805 15.7184C3.41367 15.7061 3.41016 15.6938 3.41016 15.3791C3.41016 15.0645 3.4084 15.0697 3.50508 15.0451C3.55605 15.0328 3.55605 15.0328 3.48574 15.0311L3.41016 15.0293V14.8975V14.7656H3.7582H4.10449V15.2297ZM5.625 15.2314V15.6973H5.54941H5.47383L5.4791 15.4195C5.48789 15.0855 5.48965 15.0715 5.55117 15.0398C5.59512 15.0152 5.58457 15.0135 5.39648 15.0117H5.19434L5.19961 15.3545L5.20488 15.6973H5.12227H5.03965L5.0502 15.235C5.05723 14.9818 5.0625 14.7727 5.0625 14.7691C5.0625 14.7674 5.18906 14.7656 5.34375 14.7656H5.625V15.2314ZM2.90039 15.8449C2.90039 15.9188 2.88105 15.9434 2.82832 15.9434H2.77734V16.2527V16.5639L2.70527 16.5533C2.6666 16.548 2.62793 16.5393 2.62266 16.5322C2.61562 16.5252 2.60859 16.3582 2.60508 16.1613L2.5998 15.8027H2.74922C2.89687 15.8027 2.90039 15.8027 2.90039 15.8449ZM3.27305 16.1279C3.2748 16.3072 3.27656 16.4742 3.27656 16.5006C3.27832 16.548 3.2748 16.5498 3.18691 16.5551L3.09375 16.5604V16.2422V15.924L3.03223 15.9363L2.9707 15.9469V15.8748V15.8027H3.12012H3.26953L3.27305 16.1279ZM5.60742 15.8326C5.61973 15.8432 5.62148 16.2369 5.61094 16.4127L5.60215 16.5586H5.32441H5.04492V16.193C5.04492 15.9908 5.04844 15.8221 5.05195 15.8186C5.0625 15.808 5.59687 15.8221 5.60742 15.8326ZM1.61191 15.8432C1.62246 15.8555 1.62422 16.5217 1.61191 16.534C1.59082 16.5551 1.30605 16.5639 1.09863 16.5498L0.914062 16.5375V16.1895C0.914062 15.873 0.917578 15.8396 0.945703 15.8309C0.97207 15.8238 1.60312 15.8344 1.61191 15.8432ZM2.46445 16.1314C2.47324 16.4584 2.46621 16.5393 2.41875 16.585C2.38008 16.6236 2.38359 16.6588 2.42578 16.6693C2.45918 16.6781 2.46094 16.6939 2.46094 16.8996V17.1211H2.11992H1.77891L1.7666 16.9383C1.74902 16.6975 1.75605 16.6799 1.85801 16.6852C1.91602 16.6869 1.94414 16.6799 1.95996 16.6588C1.9793 16.6324 1.98281 16.6359 1.99336 16.6852C1.99863 16.7168 1.99863 16.7994 1.99336 16.8697L1.98105 16.998H2.04961C2.12695 16.998 2.17266 17.0209 2.15508 17.0473C2.13047 17.0877 2.17793 17.0824 2.2043 17.042C2.22012 17.0174 2.24824 16.998 2.26582 16.998C2.30098 16.998 2.30273 16.9857 2.32559 16.316C2.33437 16.1086 2.34844 16.1227 2.12695 16.1156L1.99512 16.1104L2.00039 16.3336L2.00742 16.5586H1.94766C1.91602 16.5586 1.85977 16.5533 1.82461 16.548L1.75781 16.5357V16.207C1.75781 16.0242 1.76309 15.8643 1.76836 15.8484C1.77715 15.8238 1.82461 15.8203 2.11816 15.8203H2.45566L2.46445 16.1314ZM3.67559 16.7027L3.72305 16.7607L3.77402 16.7115C3.82148 16.6676 3.83555 16.6641 3.97266 16.6641H4.11855L4.10801 16.8785C4.10098 16.9963 4.09043 17.0965 4.08516 17.1018C4.07988 17.107 3.93047 17.1158 3.75469 17.1176L3.43301 17.1246L3.42246 17.0033C3.41543 16.9383 3.41016 16.8346 3.41016 16.7748V16.6658L3.50332 16.6588C3.55254 16.6553 3.60176 16.6518 3.61055 16.65C3.61934 16.6482 3.64922 16.6729 3.67559 16.7027ZM1.56094 16.6939L1.63477 16.7027V16.8047C1.63477 16.8592 1.62949 16.9541 1.62422 17.0139L1.61191 17.1211H1.26387H0.914062V16.8908V16.6588L1.20059 16.6711C1.35703 16.6781 1.51875 16.6869 1.56094 16.6939ZM2.8125 16.7678C2.84238 16.8732 2.8793 16.8979 2.98828 16.8891L3.0498 16.8838L3.05508 16.7818L3.06035 16.6816H3.11836C3.15176 16.6816 3.20273 16.6764 3.23262 16.6711L3.28711 16.6588V16.7555C3.28711 16.8082 3.28184 16.9119 3.27656 16.9857L3.26426 17.1211H2.94434H2.62441L2.61211 17.0279C2.59805 16.9031 2.59805 16.6904 2.61387 16.6746C2.6209 16.6676 2.66133 16.6641 2.70527 16.6676L2.78437 16.6729L2.8125 16.7678ZM4.92188 16.882V17.1L4.81289 17.1123C4.75137 17.1176 4.6002 17.1211 4.47363 17.1176L4.24512 17.1123L4.23984 16.9119C4.23809 16.8012 4.23984 16.6992 4.24336 16.6869C4.25039 16.6693 4.32773 16.6641 4.58789 16.6641H4.92188V16.882ZM5.60742 16.8943V17.1229L5.34375 17.1176C5.13105 17.1141 5.0748 17.107 5.0625 17.0859C5.04316 17.0561 5.03965 16.8311 5.05547 16.7291L5.06777 16.6641H5.33672H5.60742V16.8943Z" fill="#F2F2F2"/>
<path id="Vector_56" d="M4.51054 15.1102C4.49472 15.1242 4.48241 15.1523 4.48241 15.1717C4.48241 15.1928 4.47011 15.2051 4.44901 15.2051C4.41737 15.2051 4.41562 15.2262 4.40858 15.5689C4.40155 15.9012 4.40331 15.9381 4.43319 15.9768C4.45077 15.9996 4.46483 16.0312 4.46483 16.0471C4.46659 16.0629 4.48944 16.1033 4.51933 16.1367L4.57206 16.1982L4.60546 16.1578C4.6248 16.135 4.64765 16.0857 4.65819 16.0471C4.67753 15.9785 4.70038 15.9592 4.7162 15.9996C4.72148 16.0119 4.72323 15.8449 4.71972 15.6287C4.7162 15.4125 4.70741 15.2314 4.70214 15.2244C4.69511 15.2191 4.68105 15.2139 4.6705 15.2139C4.65819 15.2121 4.65116 15.2033 4.65292 15.191C4.65644 15.1805 4.6494 15.1506 4.64062 15.126C4.62128 15.075 4.55448 15.0662 4.51054 15.1102Z" fill="#F2F2F2"/>
<path id="Vector_57" d="M10.19 14.2418C10.1707 14.2576 10.1566 14.3068 10.1479 14.4035L10.1338 14.5424L10.0424 14.5652C9.76816 14.6355 9.57656 14.8377 9.52559 15.1084C9.50098 15.2455 9.5168 15.3686 9.58008 15.5004C9.68379 15.7184 9.84199 15.8379 10.132 15.91L10.2832 15.9469V16.1719C10.2832 16.2949 10.2779 16.4215 10.2727 16.4514C10.2621 16.4988 10.2568 16.5041 10.2146 16.4953C10.1338 16.476 10.0477 16.3934 9.99316 16.2844C9.90703 16.1121 9.91406 16.1156 9.72773 16.1227C9.5959 16.1262 9.55547 16.135 9.51504 16.1648C9.47109 16.1982 9.46582 16.2141 9.46582 16.2967C9.46582 16.418 9.5291 16.548 9.65039 16.6869C9.77168 16.8223 9.89648 16.8926 10.0951 16.9348C10.1408 16.9453 10.1426 16.9488 10.1426 17.0754C10.1426 17.1967 10.1461 17.209 10.1883 17.2424C10.227 17.2723 10.2604 17.2793 10.3711 17.2793C10.5451 17.2793 10.5645 17.2617 10.5803 17.0754L10.5908 16.94L10.684 16.9172C10.8035 16.8855 10.8545 16.8592 10.9723 16.7625C11.1604 16.6096 11.2623 16.3828 11.2465 16.149C11.2271 15.8484 11.0742 15.6867 10.6875 15.5584C10.4748 15.4863 10.3957 15.4477 10.401 15.416C10.4027 15.402 10.4133 15.3545 10.4221 15.3105C10.4326 15.2666 10.4396 15.184 10.4414 15.126C10.4432 14.9801 10.4555 14.9643 10.5398 15.0082C10.6225 15.0504 10.6541 15.0838 10.7033 15.1822C10.7525 15.2824 10.7895 15.2982 10.9529 15.2895C11.076 15.2842 11.0953 15.2789 11.1428 15.2332C11.1902 15.1875 11.1973 15.1682 11.1973 15.0926C11.1955 14.9713 11.1463 14.8693 11.032 14.7586C10.9248 14.6531 10.8123 14.5934 10.6664 14.5652L10.5645 14.5459V14.4193C10.5645 14.2418 10.5416 14.2207 10.357 14.2207C10.2744 14.2207 10.2076 14.2295 10.19 14.2418ZM10.2709 15.1207C10.2779 15.2016 10.2885 15.3 10.2937 15.3404C10.3043 15.4125 10.3043 15.416 10.2586 15.416C10.19 15.416 10.0986 15.3738 10.0652 15.3264C10.0055 15.2402 10.0494 15.0926 10.1584 15.0187C10.1918 14.9959 10.2305 14.9766 10.241 14.9766C10.2533 14.9766 10.2656 15.0328 10.2709 15.1207ZM10.6119 16.0436C10.735 16.1016 10.7684 16.258 10.6805 16.3723C10.6312 16.4373 10.5521 16.4883 10.5029 16.4883C10.4818 16.4883 10.4766 16.4602 10.4766 16.323C10.4766 16.2334 10.4713 16.1209 10.4643 16.0752L10.4537 15.9908L10.5047 16.0031C10.5328 16.0102 10.5803 16.0277 10.6119 16.0436Z" fill="#F2F2F2"/>
<path id="Vector_58" d="M8.6344 15.6622C8.6344 15.6956 8.63792 15.7097 8.64319 15.6921C8.6467 15.6763 8.6467 15.6481 8.64319 15.6306C8.63792 15.6148 8.6344 15.6288 8.6344 15.6622Z" fill="#000"/>
<path id="Vector_59" d="M8.57288 15.7395C8.56584 15.8063 8.56233 15.8643 8.5676 15.8678C8.57815 15.8801 8.601 15.6903 8.59221 15.6516C8.5887 15.6323 8.57991 15.6727 8.57288 15.7395Z" fill="#000"/>
<path id="Vector_60" d="M8.4762 15.7325C8.4762 15.7659 8.47971 15.78 8.48499 15.7624C8.4885 15.7466 8.4885 15.7185 8.48499 15.7009C8.47971 15.6851 8.4762 15.6991 8.4762 15.7325Z" fill="#000"/>
<path id="Vector_61" d="M7.46196 15.7149C7.46899 15.7254 7.48129 15.7289 7.49008 15.7237C7.51469 15.7078 7.50942 15.6973 7.47778 15.6973C7.46371 15.6973 7.45668 15.7061 7.46196 15.7149Z" fill="#000"/>
<path id="Vector_62" d="M7.61135 15.7201C7.63596 15.7341 7.65882 15.7411 7.66409 15.7376C7.67639 15.7271 7.62366 15.6972 7.59378 15.6972C7.57971 15.6972 7.58674 15.7077 7.61135 15.7201Z" fill="#000"/>
<path id="Vector_63" d="M7.65703 16.0647C7.65 16.077 7.64824 16.0911 7.65352 16.0963C7.66934 16.1122 7.68692 16.0893 7.67813 16.0647C7.6711 16.0454 7.66758 16.0454 7.65703 16.0647Z" fill="#000"/>
<path id="Vector_64" d="M7.85742 16.1472C7.85742 16.2017 7.89785 16.1964 7.90664 16.1401C7.91016 16.1138 7.90312 16.1015 7.88555 16.1015C7.86621 16.1015 7.85742 16.1173 7.85742 16.1472Z" fill="#000"/>
<path id="Vector_65" d="M7.87854 16.3477C7.87854 16.3723 7.88206 16.3811 7.88733 16.3687C7.89084 16.3582 7.89084 16.3371 7.88733 16.3248C7.88206 16.3143 7.87854 16.323 7.87854 16.3477Z" fill="#000"/>
</g>
<g id="Group 1000004452">
<path id="Vector_66" d="M16.7133 14.5846C16.6834 14.5916 16.6817 14.6672 16.6817 15.8572V17.1211H16.5217H16.3635L16.367 16.4689C16.3688 15.9293 16.3653 15.8133 16.3459 15.801C16.3319 15.7922 16.2405 15.7852 16.142 15.7852H15.961V16.4531V17.1211L15.8344 17.1193C15.7641 17.1176 15.6059 17.1123 15.4811 17.107C15.3581 17.1 15.2579 17.1018 15.2579 17.1088C15.2579 17.1158 15.184 17.1193 15.0961 17.1176L14.9327 17.1123L14.9309 16.2949C14.9291 15.8449 14.9274 15.409 14.9256 15.3229L14.9239 15.1699H14.7499C14.6532 15.1699 14.5635 15.1752 14.5477 15.1805C14.5231 15.191 14.5196 15.293 14.5196 16.1561V17.1211H14.3702H14.2208V16.2176V15.3141L14.1821 15.3035C14.1293 15.2895 14.0239 15.2912 13.9096 15.3035L13.8165 15.3158V16.2176V17.1211H13.6565H13.4948L13.5036 16.6395L13.5141 16.1578L13.4491 16.1473C13.3454 16.1297 13.1168 16.135 13.1045 16.1543C13.0887 16.1807 13.1151 17.1118 13.1309 17.1118C13.1379 17.1118 13.1393 17.1246 13.1375 17.1123C13.1375 17.1404 13.1375 17.1018 13.1375 17.1123C13.1705 17.1123 13.1424 17.1114 13.1968 17.1094C13.243 17.1057 13.2134 17.1379 13.2925 17.1049C13.2872 17.0838 13.2684 17.0683 13.286 17.1053C13.3141 17.1685 13.2887 17.1104 13.3484 17.1016L13.4012 17.0979L13.4341 17.095C13.4447 17.1512 13.4618 17.077 13.4671 17.1016C13.4759 17.135 13.4772 17.0842 13.4596 17.0912C13.4438 17.0965 13.2891 17.107 13.1151 17.1123L12.7969 17.1246V16.9225V16.7221L12.6475 16.7098C12.5666 16.7027 12.4717 16.7027 12.4366 16.7098L12.375 16.7203V16.9014C12.375 17.107 12.368 17.1387 12.3258 17.1264C12.3083 17.1229 12.2731 17.1281 12.245 17.1387C12.201 17.1545 12.1958 17.1633 12.2063 17.2125C12.2116 17.2441 12.2274 17.2758 12.2397 17.2828C12.2502 17.2898 13.3629 17.2969 14.7094 17.2969H17.1581L17.2002 17.2529C17.2249 17.2301 17.2442 17.1984 17.2442 17.1844C17.2442 17.1527 17.1915 17.1211 17.1405 17.1211C17.1194 17.1211 17.1018 17.1193 17.1 17.1158C17.0965 17.1141 17.0913 16.5428 17.086 15.8467L17.0772 14.5811L16.9102 14.5775C16.8188 14.5775 16.7291 14.5793 16.7133 14.5846Z" fill="#F2F2F2"/>
<rect id="Rectangle 2" x="15.3062" y="15.793" width="0.32959" height="1.34473" fill="#000"/>
</g>
<g id="Group 1000004453">
<path id="Vector_67" d="M14.7604 0.733008C14.734 0.736524 14.7059 0.75586 14.6954 0.773438C14.676 0.808594 14.669 3.64746 14.6866 3.69492C14.7112 3.75996 14.7604 3.76172 15.9768 3.76172C16.9788 3.76172 17.1721 3.7582 17.202 3.73711C17.2354 3.7125 17.2354 3.67734 17.2337 2.25879C17.2319 0.847266 17.2301 0.805079 17.1985 0.77168C17.1651 0.740039 17.1212 0.738281 15.9874 0.73125C15.3387 0.727735 14.7885 0.729492 14.7604 0.733008ZM17.0333 1.01777V1.12324L15.9522 1.11973L14.8712 1.11621V1.01426V0.914063H15.9522H17.0333V1.01777ZM17.0421 2.4293C17.0421 3.03574 17.035 3.53672 17.028 3.54551C17.0192 3.55254 16.5305 3.56133 15.9417 3.56484L14.8712 3.57012V2.4416V1.31484L15.9575 1.32188L17.0421 1.32891V2.4293Z" fill="#F2F2F2"/>
<rect id="Rectangle 3" x="14.9502" y="2.68945" width="0.316406" height="0.922852" fill="#000"/>
<rect id="Rectangle 4" x="15.5698" y="2.12305" width="0.316406" height="1.48975" fill="#000"/>
<rect id="Rectangle 5" x="16.2817" y="1.67383" width="0.316406" height="1.93799" fill="#000"/>
</g>
</g>
<defs>
<clipPath id="clip0_1945_3581">
<rect width="18" height="18" fill="#000"/>
</clipPath>
</defs>
</svg>
